<svg width="780" height="600" xmlns="http://www.w3.org/2000/svg" xmlns:svg="http://www.w3.org/2000/svg" xmlns:xlink="http://www.w3.org/1999/xlink">
 <g>
  <title>Layer 1</title>
  <image xlink:href="appPasteur/modules/others/lighting/point-monitor/svg/ALL.png" id="TAG_svg_back" height="600" width="780" y="0" x="0"/>
 </g>
 <g>
  <title>Layer 1</title>
  <g id="TAG_3_1">
   <rect id="TAG_svg_1" y="112" x="83" height="18" width="27" fill="green"/>
  </g>
  <g id="TAG_3_3">
   <rect id="TAG_svg_2" y="139" x="83" height="18" width="27" fill="green"/>
  </g>
  <g id="TAG_2_1">
   <rect id="TAG_svg_3" y="164" x="83" height="18" width="27" fill="green"/>
  </g>
  <g id="TAG_2_3">
   <rect id="TAG_svg_4" y="191" x="83" height="18" width="27" fill="green"/>
  </g>
  <g id="TAG_1_1">
   <rect id="TAG_svg_5" y="216" x="83" height="18" width="27" fill="green"/>
  </g>
  <g id="TAG_1_2">
   <rect id="TAG_svg_6" y="243" x="83" height="18" width="27" fill="green"/>
  </g>
  <g id="TAG_3_1">
   <rect id="TAG_svg_7" y="379" x="83" height="18" width="27" fill="green"/>
  </g>
  <g id="TAG_2_1">
   <rect id="TAG_svg_8" y="405" x="83" height="18" width="27" fill="green"/>
  </g>
  <g id="TAG_1_1">
   <rect id="TAG_svg_9" y="430" x="83" height="18" width="27" fill="green"/>
  </g>
  <g id="TAG_3_2">
   <rect id="TAG_svg_10" y="112" x="185" height="18" width="27" fill="green"/>
  </g>
  <g id="TAG_3_4">
   <rect id="TAG_svg_11" y="139" x="185" height="18" width="27" fill="green"/>
  </g>
  <g id="TAG_2_2">
   <rect id="TAG_svg_12" y="164" x="185" height="18" width="27" fill="green"/>
  </g>
  <g id="TAG_2_4">
   <rect id="TAG_svg_13" y="190" x="185" height="18" width="27" fill="green"/>
  </g>
  <g id="TAG_1_3">
   <rect id="TAG_svg_14" y="243" x="185" height="18" width="27" fill="green"/>
  </g>
  <g id="TAG_3_2">
   <rect id="TAG_svg_15" y="379" x="185" height="18" width="27" fill="green"/>
  </g>
  <g id="TAG_2_2">
   <rect id="TAG_svg_16" y="405" x="185" height="18" width="27" fill="green"/>
  </g>
  <g id="TAG_1_2">
   <rect id="TAG_svg_17" y="430" x="185" height="18" width="27" fill="green"/>
  </g>
  <g id="TAG_1_6">
   <rect id="TAG_svg_18" y="243" x="287" height="18" width="27" fill="green"/>
  </g>
  <g id="TAG_1_30_3">
   <rect id="TAG_svg_19" y="379" x="272" height="18" width="27" fill="green"/>
  </g>
  <g id="TAG_1_30_1">
   <rect id="TAG_svg_20" y="405" x="272" height="18" width="27" fill="green"/>
  </g>
  <g id="TAG_1">
   <rect id="TAG_svg_21" y="35" x="445" height="18" width="27" fill="green"/>
  </g>
  <g id="TAG_1_4">
   <rect id="TAG_svg_22" y="190" x="394" height="18" width="27" fill="green"/>
  </g>
  <g id="TAG_1_5">
   <rect id="TAG_svg_23" y="216" x="394" height="18" width="27" fill="green"/>
  </g>
  <g id="TAG_1_7">
   <rect id="TAG_svg_24" y="242" x="394" height="18" width="27" fill="green"/>
  </g>
  <g id="TAG_1_61_1">
   <rect id="TAG_svg_25" y="380" x="370" height="18" width="27" fill="green"/>
  </g>
  <g id="TAG_1_61_2">
   <rect id="TAG_svg_26" y="399" x="370" height="18" width="27" fill="green"/>
  </g>
  <g id="TAG_1_61_3">
   <rect id="TAG_svg_27" y="418" x="370" height="18" width="27" fill="green"/>
  </g>
  <g id="TAG_1_61_4">
   <rect id="TAG_svg_28" y="437" x="370" height="18" width="27" fill="green"/>
  </g>
  <g id="TAG_1_63_1">
   <rect id="TAG_svg_29" y="456" x="370" height="18" width="27" fill="green"/>
  </g>
  <g id="TAG_1_63_2">
   <rect id="TAG_svg_30" y="475" x="370" height="18" width="27" fill="green"/>
  </g>
  <g id="TAG_1_8">
   <rect id="TAG_svg_31" y="243" x="500" height="18" width="27" fill="green"/>
  </g>
 </g>
</svg>