<svg width="780" height="600" xmlns="http://www.w3.org/2000/svg" xmlns:svg="http://www.w3.org/2000/svg" xmlns:xlink="http://www.w3.org/1999/xlink">
 <g>
  <title>Layer 1</title>
  <image xlink:href="appPasteur/modules/others/lighting/point-monitor/svg/F03.png" id="TAG_svg_back" height="600" width="780" y="0" x="0"/>
 </g>
 <g>
  <title>Layer 1</title>
  <g id="TAG_2_35_2">
   <rect id="TAG_svg_1" transform="matrix(1 0 0 1 -115.667 -113.667)" height="13" width="5" y="156" x="218" fill="green"/>
   <rect id="TAG_svg_2" transform="matrix(1 0 0 1 18.3333 -13.5833)" height="13" width="5" y="71" x="84" fill="green"/>
   <rect id="TAG_svg_3" transform="matrix(1 0 0 1 18.3333 1.5)" height="13" width="5" y="71" x="84" fill="green"/>
   <rect id="TAG_svg_4" transform="matrix(1 0 0 1 134 127.25) translate(-114.667 -75) translate(-1 -38.6667) translate(0 1) translate(0 1) translate(0 1)" height="13" width="5" y="71" x="84" fill="green"/>
  </g>
  <g id="TAG_2_27_1">
   <rect id="TAG_svg_5" transform="matrix(1, 0, 0, 1, 45.6663, 16.9166)" height="13" width="5" y="71" x="84" fill="green"/>
   <rect id="TAG_svg_6" transform="matrix(1, 0, 0, 1, 45.6663, 1.8333)" height="13" width="5" y="71" x="84" fill="green"/>
   <rect id="TAG_svg_7" transform="matrix(1, 0, 0, 1, 45.6663, -13.25)" height="13" width="5" y="71" x="84" fill="green"/>
   <rect id="TAG_svg_8" transform="matrix(1, 0, 0, 1, -88.3337, -113.334)" height="13" width="5" y="156" x="218" fill="green"/>
  </g>
  <g id="TAG_2_35_4">
   <rect id="TAG_svg_9" transform="matrix(1 0 0 1 128.333 41.5833) translate(-54.3333 -24.6667) translate(0 0)" height="13" width="5" y="71" x="84" fill="green"/>
   <rect id="TAG_svg_10" transform="matrix(1 0 0 1 128.333 26.5) translate(-54.3333 -24.6667) translate(0 0)" height="13" width="5" y="71" x="84" fill="green"/>
   <rect id="TAG_svg_11" transform="matrix(1 0 0 1 128.333 11.4167) translate(-54.3333 -24.6667) translate(0 0)" height="13" width="5" y="71" x="84" fill="green"/>
   <rect id="TAG_svg_12" transform="matrix(1 0 0 1 -5.667 -88.667) translate(-54.3333 -24.6667) translate(0 0) translate(0 0)" height="13" width="5" y="156" x="218" fill="green"/>
  </g>
  <g id="TAG_2_27_2">
   <rect id="TAG_svg_13" transform="matrix(1, 0, 0, 1, 129, 16.5833)" height="13" width="5" y="71" x="84" fill="green"/>
   <rect id="TAG_svg_14" transform="matrix(1, 0, 0, 1, 129, 1.5)" height="13" width="5" y="71" x="84" fill="green"/>
   <rect id="TAG_svg_15" transform="matrix(1, 0, 0, 1, 129, -13.5833)" height="13" width="5" y="71" x="84" fill="green"/>
   <rect id="TAG_svg_16" transform="matrix(1, 0, 0, 1, -5.00033, -113.667)" height="13" width="5" y="156" x="218" fill="green"/>
  </g>
  <g id="TAG_2_37_4">
   <rect id="TAG_svg_17" transform="matrix(1, 0, 0, 1, 157, 16.5833)" height="13" width="5" y="71" x="84" fill="green"/>
   <rect id="TAG_svg_18" transform="matrix(1, 0, 0, 1, 157, 1.5)" height="13" width="5" y="71" x="84" fill="green"/>
   <rect id="TAG_svg_19" transform="matrix(1, 0, 0, 1, 157, -13.5833)" height="13" width="5" y="71" x="84" fill="green"/>
   <rect id="TAG_svg_20" transform="matrix(1, 0, 0, 1, 22.9997, -113.667)" height="13" width="5" y="156" x="218" fill="green"/>
  </g>
  <g id="TAG_2_38_2">
   <rect id="TAG_svg_21" transform="matrix(1, 0, 0, 1, 185, 16.5833)" height="13" width="5" y="71" x="84" fill="green"/>
   <rect id="TAG_svg_22" transform="matrix(1, 0, 0, 1, 185, 1.5)" height="13" width="5" y="71" x="84" fill="green"/>
   <rect id="TAG_svg_23" transform="matrix(1, 0, 0, 1, 185, -13.5833)" height="13" width="5" y="71" x="84" fill="green"/>
   <rect id="TAG_svg_24" transform="matrix(1, 0, 0, 1, 50.9997, -113.667)" height="13" width="5" y="156" x="218" fill="green"/>
  </g>
  <g id="TAG_2_27_3">
   <rect id="TAG_svg_25" transform="matrix(1, 0, 0, 1, 213.666, 16.5833)" height="13" width="5" y="71" x="84" fill="green"/>
   <rect id="TAG_svg_26" transform="matrix(1, 0, 0, 1, 213.666, 1.5)" height="13" width="5" y="71" x="84" fill="green"/>
   <rect id="TAG_svg_27" transform="matrix(1, 0, 0, 1, 213.666, -13.5833)" height="13" width="5" y="71" x="84" fill="green"/>
   <rect id="TAG_svg_28" transform="matrix(1, 0, 0, 1, 79.6663, -113.667)" height="13" width="5" y="156" x="218" fill="green"/>
  </g>
  <g id="TAG_2_40_2">
   <rect id="TAG_svg_29" transform="matrix(1 0 0 1 128.333 134.583) translate(-109.333 -2.66667) translate(0 1) translate(0 1) translate(0 1) translate(0 1) translate(0 1)" height="13" width="5" y="71" x="84" fill="green"/>
   <rect id="TAG_svg_30" transform="matrix(1 0 0 1 19 120.167)" height="13" width="5" y="71" x="84" fill="green"/>
   <rect id="TAG_svg_31" transform="matrix(1 0 0 1 19 103.416)" height="13" width="5" y="71" x="84" fill="green"/>
   <rect id="TAG_svg_32" transform="matrix(1 0 0 1 -115 1.66633)" height="13" width="5" y="156" x="218" fill="green"/>
  </g>
  <g id="TAG_2_28_2">
   <rect id="TAG_svg_33" transform="matrix(1 0 0 1 128 136.916) translate(-1 0) translate(-1 0) translate(-1 0) translate(-1 0) translate(-1 0) translate(-1 0) translate(-1 0) translate(-1 0) translate(-1 0) translate(-1 0) translate(-1 0) translate(-1 0) translate(-1 0) translate(-1 0) translate(-1 0) translate(-1 0) translate(-1 0) translate(-1 0) translate(-1 0) translate(-1 0) translate(-1 0) translate(-1 0) translate(-1 0) translate(-1 0) translate(-1 0) translate(-1 0) translate(-1 0) translate(-1 0) translate(-1 0) translate(-1 0) translate(-1 0) translate(-1 0) translate(-1 0) translate(-10 0) translate(-10 0) translate(-10 0) translate(-10 0) translate(-10 0) translate(-1 0) translate(1 0) translate(1 0) translate(0 0)" height="13" width="5" y="71" x="84" fill="green"/>
   <rect id="TAG_svg_34" transform="matrix(1 0 0 1 128 120.167) translate(-1 0) translate(-1 0) translate(-1 0) translate(-1 0) translate(-1 0) translate(-1 0) translate(-1 0) translate(-1 0) translate(-1 0) translate(-1 0) translate(-1 0) translate(-1 0) translate(-1 0) translate(-1 0) translate(-1 0) translate(-1 0) translate(-1 0) translate(-1 0) translate(-1 0) translate(-1 0) translate(-1 0) translate(-1 0) translate(-1 0) translate(-1 0) translate(-1 0) translate(-1 0) translate(-1 0) translate(-1 0) translate(-1 0) translate(-1 0) translate(-1 0) translate(-1 0) translate(-1 0) translate(-10 0) translate(-10 0) translate(-10 0) translate(-10 0) translate(-10 0) translate(-1 0) translate(1 0) translate(1 0) translate(0 0)" height="13" width="5" y="71" x="84" fill="green"/>
   <rect id="TAG_svg_35" transform="matrix(1 0 0 1 128 103.416) translate(-1 0) translate(-1 0) translate(-1 0) translate(-1 0) translate(-1 0) translate(-1 0) translate(-1 0) translate(-1 0) translate(-1 0) translate(-1 0) translate(-1 0) translate(-1 0) translate(-1 0) translate(-1 0) translate(-1 0) translate(-1 0) translate(-1 0) translate(-1 0) translate(-1 0) translate(-1 0) translate(-1 0) translate(-1 0) translate(-1 0) translate(-1 0) translate(-1 0) translate(-1 0) translate(-1 0) translate(-1 0) translate(-1 0) translate(-1 0) translate(-1 0) translate(-1 0) translate(-1 0) translate(-10 0) translate(-10 0) translate(-10 0) translate(-10 0) translate(-10 0) translate(-1 0) translate(1 0) translate(1 0)" height="13" width="5" y="71" x="84" fill="green"/>
   <rect id="TAG_svg_36" transform="matrix(1 0 0 1 -6 1.66633) translate(-1 0) translate(-1 0) translate(-1 0) translate(-1 0) translate(-1 0) translate(-1 0) translate(-1 0) translate(-1 0) translate(-1 0) translate(-1 0) translate(-1 0) translate(-1 0) translate(-1 0) translate(-1 0) translate(-1 0) translate(-1 0) translate(-1 0) translate(-1 0) translate(-1 0) translate(-1 0) translate(-1 0) translate(-1 0) translate(-1 0) translate(-1 0) translate(-1 0) translate(-1 0) translate(-1 0) translate(-1 0) translate(-1 0) translate(-1 0) translate(-1 0) translate(-1 0) translate(-1 0) translate(-10 0) translate(-10 0) translate(-10 0) translate(-10 0) translate(-10 0) translate(-1 0) translate(1 0) translate(1 0)" height="13" width="5" y="156" x="218" fill="green"/>
  </g>
  <g id="TAG_2_40_4">
   <rect id="TAG_svg_37" transform="matrix(1 0 0 1 128 136.916) translate(-1 0) translate(-1 0) translate(-1 0) translate(-1 0) translate(-1 0) translate(-10 0) translate(-10 0) translate(-10 0) translate(-10 0) translate(-1 0) translate(-1 0) translate(-1 0) translate(-1 0) translate(-1 0) translate(-1 0) translate(-1 0) translate(-1 0) translate(-1 0)" height="13" width="5" y="71" x="84" fill="green"/>
   <rect id="TAG_svg_38" transform="matrix(1 0 0 1 128 120.167) translate(-1 0) translate(-1 0) translate(-1 0) translate(-1 0) translate(-1 0) translate(-10 0) translate(-10 0) translate(-10 0) translate(-10 0) translate(-1 0) translate(-1 0) translate(-1 0) translate(-1 0) translate(-1 0) translate(-1 0) translate(-1 0) translate(-1 0) translate(-1 0)" height="13" width="5" y="71" x="84" fill="green"/>
   <rect id="TAG_svg_39" transform="matrix(1 0 0 1 128 103.416) translate(-1 0) translate(-1 0) translate(-1 0) translate(-1 0) translate(-1 0) translate(-10 0) translate(-10 0) translate(-10 0) translate(-10 0) translate(-1 0) translate(-1 0) translate(-1 0) translate(-1 0) translate(-1 0) translate(-1 0) translate(-1 0) translate(-1 0) translate(-1 0)" height="13" width="5" y="71" x="84" fill="green"/>
   <rect id="TAG_svg_40" transform="matrix(1 0 0 1 -6 1.66633) translate(-1 0) translate(-1 0) translate(-1 0) translate(-1 0) translate(-1 0) translate(-10 0) translate(-10 0) translate(-10 0) translate(-10 0) translate(-1 0) translate(-1 0) translate(-1 0) translate(-1 0) translate(-1 0) translate(-1 0) translate(-1 0) translate(-1 0) translate(-1 0)" height="13" width="5" y="156" x="218" fill="green"/>
  </g>
  <g transform="translate(0)" id="TAG_2_41_2">
   <rect id="TAG_svg_41" transform="matrix(1 0 0 1 128 136.916) translate(-10 0) translate(-10 0) translate(-1 0) translate(-1 0) translate(-1 0) translate(-1 0) translate(-1 0) translate(-1 0) translate(-1 0)" height="13" width="5" y="71" x="84" fill="green"/>
   <rect id="TAG_svg_42" transform="matrix(1 0 0 1 128 120.167) translate(-10 0) translate(-10 0) translate(-1 0) translate(-1 0) translate(-1 0) translate(-1 0) translate(-1 0) translate(-1 0) translate(-1 0)" height="13" width="5" y="71" x="84" fill="green"/>
   <rect id="TAG_svg_43" transform="matrix(1 0 0 1 128 103.416) translate(-10 0) translate(-10 0) translate(-1 0) translate(-1 0) translate(-1 0) translate(-1 0) translate(-1 0) translate(-1 0) translate(-1 0)" height="13" width="5" y="71" x="84" fill="green"/>
   <rect id="TAG_svg_44" transform="matrix(1 0 0 1 -6 1.66633) translate(-10 0) translate(-10 0) translate(-1 0) translate(-1 0) translate(-1 0) translate(-1 0) translate(-1 0) translate(-1 0) translate(-1 0)" height="13" width="5" y="156" x="218" fill="green"/>
  </g>
  <g id="TAG_2_28_3">
   <rect id="TAG_svg_45" transform="matrix(1, 0, 0, 1, 128, 136.916) translate(1)" height="13" width="5" y="71" x="84" fill="green"/>
   <rect id="TAG_svg_46" transform="matrix(1, 0, 0, 1, 129, 120.167)" height="13" width="5" y="71" x="84" fill="green"/>
   <rect id="TAG_svg_47" transform="matrix(1, 0, 0, 1, 129, 103.416)" height="13" width="5" y="71" x="84" fill="green"/>
   <rect id="TAG_svg_48" transform="matrix(1, 0, 0, 1, -5, 1.66633)" height="13" width="5" y="156" x="218" fill="green"/>
  </g>
  <g id="TAG_2_42_4">
   <rect id="TAG_svg_49" transform="matrix(1 0 0 1 128 136.916) translate(1 0) translate(1 0) translate(1 0) translate(1 0) translate(1 0) translate(1 0) translate(10 0) translate(10 0) translate(1 0) translate(1 0) translate(1 0) translate(10 0) translate(-10 0)" height="13" width="5" y="71" x="84" fill="green"/>
   <rect id="TAG_svg_50" transform="matrix(1, 0, 0, 1, 128, 120.167) translate(1) translate(1) translate(1) translate(1) translate(1) translate(1) translate(10) translate(10) translate(1) translate(1) translate(1) translate(10) translate(-10)" height="13" width="5" y="71" x="84" fill="green"/>
   <rect id="TAG_svg_51" transform="matrix(1 0 0 1 128 103.416) translate(1 0) translate(1 0) translate(1 0) translate(1 0) translate(1 0) translate(1 0) translate(10 0) translate(10 0) translate(1 0) translate(1 0) translate(1 0) translate(10 0) translate(-10 0)" height="13" width="5" y="71" x="84" fill="green"/>
   <rect id="TAG_svg_52" transform="matrix(1 0 0 1 -6 1.66633) translate(1 0) translate(1 0) translate(1 0) translate(1 0) translate(1 0) translate(1 0) translate(10 0) translate(10 0) translate(1 0) translate(1 0) translate(1 0) translate(10 0) translate(-10 0)" height="13" width="5" y="156" x="218" fill="green"/>
  </g>
  <g id="TAG_2_43_2">
   <rect id="TAG_svg_53" transform="matrix(1 0 0 1 128 136.916) translate(1 0) translate(1 0) translate(10 0) translate(10 0) translate(10 0) translate(10 0) translate(10 0) translate(1 0) translate(1 0) translate(1 0) translate(1 0) translate(1 0) translate(0 0)" height="13" width="5" y="71" x="84" fill="green"/>
   <rect id="TAG_svg_54" transform="matrix(1 0 0 1 128 120.167) translate(1 0) translate(1 0) translate(10 0) translate(10 0) translate(10 0) translate(10 0) translate(10 0) translate(1 0) translate(1 0) translate(1 0) translate(1 0) translate(1 0)" height="13" width="5" y="71" x="84" fill="green"/>
   <rect id="TAG_svg_55" transform="matrix(1 0 0 1 128 103.416) translate(1 0) translate(1 0) translate(10 0) translate(10 0) translate(10 0) translate(10 0) translate(10 0) translate(1 0) translate(1 0) translate(1 0) translate(1 0) translate(1 0)" height="13" width="5" y="71" x="84" fill="green"/>
   <rect id="TAG_svg_56" transform="matrix(1 0 0 1 -6 1.66633) translate(1 0) translate(1 0) translate(10 0) translate(10 0) translate(10 0) translate(10 0) translate(10 0) translate(1 0) translate(1 0) translate(1 0) translate(1 0) translate(1 0)" height="13" width="5" y="156" x="218" fill="green"/>
  </g>
  <g id="TAG_2_28_4">
   <rect id="TAG_svg_57" transform="matrix(1 0 0 1 128 136.916) translate(1 0) translate(1 0) translate(10 0) translate(10 0) translate(10 0) translate(10 0) translate(10 0) translate(10 0) translate(10 0) translate(10 0) translate(1 0) translate(1 0) translate(1 0) translate(1 0)" height="13" width="5" y="71" x="84" fill="green"/>
   <rect id="TAG_svg_58" transform="matrix(1 0 0 1 128 120.167) translate(1 0) translate(1 0) translate(10 0) translate(10 0) translate(10 0) translate(10 0) translate(10 0) translate(10 0) translate(10 0) translate(10 0) translate(1 0) translate(1 0) translate(1 0) translate(1 0)" height="13" width="5" y="71" x="84" fill="green"/>
   <rect id="TAG_svg_59" transform="matrix(1 0 0 1 128 103.416) translate(1 0) translate(1 0) translate(10 0) translate(10 0) translate(10 0) translate(10 0) translate(10 0) translate(10 0) translate(10 0) translate(10 0) translate(1 0) translate(1 0) translate(1 0) translate(1 0)" height="13" width="5" y="71" x="84" fill="green"/>
   <rect id="TAG_svg_60" transform="matrix(1 0 0 1 -6 1.66633) translate(1 0) translate(1 0) translate(10 0) translate(10 0) translate(10 0) translate(10 0) translate(10 0) translate(10 0) translate(10 0) translate(10 0) translate(1 0) translate(1 0) translate(1 0) translate(1 0)" height="13" width="5" y="156" x="218" fill="green"/>
  </g>
  <g id="TAG_2_43_4">
   <rect id="TAG_svg_61" transform="matrix(1 0 0 1 128 136.916) translate(1 0) translate(1 0) translate(10 0) translate(10 0) translate(10 0) translate(10 0) translate(10 0) translate(10 0) translate(10 0) translate(10 0) translate(10 0) translate(10 0) translate(10 0) translate(1 0) translate(1 0)" height="13" width="5" y="71" x="84" fill="green"/>
   <rect id="TAG_svg_62" transform="matrix(1 0 0 1 128 120.167) translate(1 0) translate(1 0) translate(10 0) translate(10 0) translate(10 0) translate(10 0) translate(10 0) translate(10 0) translate(10 0) translate(10 0) translate(10 0) translate(10 0) translate(10 0) translate(1 0) translate(1 0)" height="13" width="5" y="71" x="84" fill="green"/>
   <rect id="TAG_svg_63" transform="matrix(1 0 0 1 128 103.416) translate(1 0) translate(1 0) translate(10 0) translate(10 0) translate(10 0) translate(10 0) translate(10 0) translate(10 0) translate(10 0) translate(10 0) translate(10 0) translate(10 0) translate(10 0) translate(1 0) translate(1 0)" height="13" width="5" y="71" x="84" fill="green"/>
   <rect id="TAG_svg_64" transform="matrix(1 0 0 1 -6 1.66633) translate(1 0) translate(1 0) translate(10 0) translate(10 0) translate(10 0) translate(10 0) translate(10 0) translate(10 0) translate(10 0) translate(10 0) translate(10 0) translate(10 0) translate(10 0) translate(1 0) translate(1 0)" height="13" width="5" y="156" x="218" fill="green"/>
  </g>
  <g id="TAG_2_44_2">
   <rect id="TAG_svg_65" transform="matrix(1 0 0 1 234 136.916) translate(10 0) translate(10 0) translate(10 0) translate(1 0) translate(1 0) translate(1 0) translate(1 0) translate(1 0) translate(1 0)" height="13" width="5" y="71" x="84" fill="green"/>
   <rect id="TAG_svg_66" transform="matrix(1 0 0 1 234 120.167) translate(10 0) translate(10 0) translate(10 0) translate(1 0) translate(1 0) translate(1 0) translate(1 0) translate(1 0) translate(1 0)" height="13" width="5" y="71" x="84" fill="green"/>
   <rect id="TAG_svg_67" transform="matrix(1 0 0 1 234 103.416) translate(10 0) translate(10 0) translate(10 0) translate(1 0) translate(1 0) translate(1 0) translate(1 0) translate(1 0) translate(1 0)" height="13" width="5" y="71" x="84" fill="green"/>
   <rect id="TAG_svg_68" transform="matrix(1 0 0 1 100 1.66633) translate(10 0) translate(10 0) translate(10 0) translate(1 0) translate(1 0) translate(1 0) translate(1 0) translate(1 0) translate(1 0)" height="13" width="5" y="156" x="218" fill="green"/>
  </g>
  <g id="TAG_2_36_4">
   <rect id="TAG_svg_69" transform="matrix(1 0 0 1 42.4848 -54.1818)" height="5" width="14" y="82" x="54" fill="green"/>
   <rect id="TAG_svg_70" transform="matrix(1 0 0 1 -56.3702 -88.1818)" height="5" width="14" y="116" x="168" fill="green"/>
   <rect id="TAG_svg_71" transform="matrix(1 0 0 1 -40.2252 -88.1818)" height="5" width="14" y="116" x="167" fill="green"/>
  </g>
  <g id="TAG_2_37_2">
   <rect id="TAG_svg_72" transform="matrix(1 0 0 1 -25.0802 -88.1818)" height="5" width="14" y="116" x="167" fill="green"/>
   <rect id="TAG_svg_73" transform="matrix(1 0 0 1 -9.93519 -88.1818)" height="5" width="14" y="116" x="167" fill="green"/>
   <rect id="TAG_svg_74" transform="matrix(1 0 0 1 5.2098 -88.1818)" height="5" width="14" y="116" x="167" fill="green"/>
   <rect id="TAG_svg_75" transform="matrix(1 0 0 1 20.3548 -88.1818)" height="5" width="14" y="116" x="167" fill="green"/>
  </g>
  <g id="TAG_2_38_4">
   <rect id="TAG_svg_76" transform="matrix(1 0 0 1 35.4998 -88.1818)" height="5" width="14" y="116" x="167" fill="green"/>
   <rect id="TAG_svg_77" transform="matrix(1 0 0 1 50.6448 -88.1818)" height="5" width="14" y="116" x="167" fill="green"/>
   <rect id="TAG_svg_78" transform="matrix(1 0 0 1 65.7898 -88.1818)" height="5" width="14" y="116" x="167" fill="green"/>
   <rect id="TAG_svg_79" transform="matrix(1 0 0 1 80.9348 -88.1818)" height="5" width="14" y="116" x="167" fill="green"/>
  </g>
  <g id="TAG_2_39_2">
   <rect id="TAG_svg_80" transform="matrix(1, 0, 0, 1, 96.0797, -88.1818)" height="5" width="14" y="116" x="167" fill="green"/>
   <rect id="TAG_svg_81" transform="matrix(1 0 0 1 111.225 -88.1818)" height="5" width="14" y="116" x="167" fill="green"/>
   <rect id="TAG_svg_82" transform="matrix(1 0 0 1 126.37 -88.1818)" height="5" width="14" y="116" x="167" fill="green"/>
  </g>
  <g id="TAG_2_46_4">
   <ellipse id="TAG_svg_83" transform="matrix(1, 0, 0, 1, 34.5656, 47.5151)" ry="3" rx="3" cy="113" cx="20" fill="green"/>
   <ellipse id="TAG_svg_84" transform="matrix(1 0 0 1 19.6566 30.8485)" ry="3" rx="3" cy="113" cx="20" fill="green"/>
   <ellipse id="TAG_svg_85" transform="matrix(1, 0, 0, 1, 34.5657, 30.8485)" ry="3" rx="3" cy="113" cx="20" fill="green"/>
   <ellipse id="TAG_svg_86" transform="matrix(1, 0, 0, 1, 49.8384, 31.0303)" ry="3" rx="3" cy="113" cx="20" fill="green"/>
   <ellipse id="TAG_svg_87" transform="matrix(1, 0, 0, 1, 65.6566, 30.8485)" ry="3" rx="3" cy="113" cx="20" fill="green"/>
   <ellipse id="TAG_svg_88" transform="matrix(1, 0, 0, 1, 65.6566, 30.8485)" ry="3" rx="3" cy="113" cx="20" fill="green"/>
   <ellipse id="TAG_svg_89" transform="matrix(1, 0, 0, 1, 65.6565, 47.5151)" ry="3" rx="3" cy="113" cx="20" fill="green"/>
   <ellipse id="TAG_svg_90" transform="matrix(1, 0, 0, 1, 49.8383, 47.6969)" ry="3" rx="3" cy="113" cx="20" fill="green"/>
   <ellipse id="TAG_svg_91" transform="matrix(1 0 0 1 176.444 9) translate(-157.333 33.3333) translate(18 4.72727) translate(-17.4545 -4.54545) translate(0 1) translate(0 1) translate(0 1) translate(0 1) translate(0 1)" ry="3" rx="3" cy="113" cx="20" fill="green"/>
  </g>
  <g id="TAG_2_27_4">
   <ellipse id="TAG_svg_92" transform="matrix(1, 0, 0, 1, 65.6566, -2.48485)" ry="3" rx="3" cy="113" cx="20" fill="green"/>
   <ellipse id="TAG_svg_93" transform="matrix(1, 0, 0, 1, 49.8384, -2.30303)" ry="3" rx="3" cy="113" cx="20" fill="green"/>
   <ellipse id="TAG_svg_94" transform="matrix(1, 0, 0, 1, 34.5657, -2.48485)" ry="3" rx="3" cy="113" cx="20" fill="green"/>
   <ellipse id="TAG_svg_95" transform="matrix(1, 0, 0, 1, 65.6566, 14.1818)" ry="3" rx="3" cy="113" cx="20" fill="green"/>
   <ellipse id="TAG_svg_96" transform="matrix(1, 0, 0, 1, 49.8384, 14.3636)" ry="3" rx="3" cy="113" cx="20" fill="green"/>
   <ellipse id="TAG_svg_97" transform="matrix(1, 0, 0, 1, 34.5657, 14.1818)" ry="3" rx="3" cy="113" cx="20" fill="green"/>
   <ellipse id="TAG_svg_98" transform="matrix(1 0 0 1 19.6566 14.1818)" ry="3" rx="3" cy="113" cx="20" fill="green"/>
   <ellipse id="TAG_svg_99" transform="matrix(1 0 0 1 19.6566 -2.48485)" ry="3" rx="3" cy="113" cx="20" fill="green"/>
  </g>
  <g id="TAG_2_46_2">
   <ellipse id="TAG_svg_100" transform="matrix(1 0 0 1 67.6565 35.5151) translate(-39.4286 52.5714) translate(0 1) translate(0 1) translate(0 1) translate(0 1) translate(0 1) translate(0 1) translate(0 1) translate(0 1) translate(0 1) translate(0 1) translate(0 -1)" ry="3" rx="3" cy="113" cx="20" fill="green"/>
   <ellipse id="TAG_svg_101" transform="matrix(1, 0, 0, 1, 28.228, 71.4199)" ry="3" rx="3" cy="113" cx="20" fill="green"/>
  </g>
  <g id="TAG_2_39_4">
   <rect id="TAG_svg_102" transform="matrix(1 0 0 1 84.333 48.5833) translate(-73.1429 6.28571) translate(0 1) translate(0 1) translate(0 1) translate(0 1) translate(0 1) translate(0 1) translate(0 1) translate(0 1) translate(0 1) translate(0 1) translate(0 1)" height="13" width="5" y="71" x="84" fill="green"/>
   <rect id="TAG_svg_103" transform="matrix(1, 0, 0, 1, 11.1904, 39.7857)" height="13" width="5" y="71" x="84" fill="green"/>
  </g>
  <g id="TAG_2_29_2">
   <rect id="TAG_svg_104" transform="matrix(1 0 0 1 84.333 48.5833) translate(-53.7143 3.71429) translate(7.14286 0) translate(-0.285714 -0.571429) translate(59.7143 11.4286) translate(0 1) translate(0 1)" height="13" width="5" y="71" x="84" fill="green"/>
   <rect id="TAG_svg_105" transform="matrix(1 0 0 1 84.3333 33.5) translate(-53.7143 3.71429) translate(7.14286 0) translate(-0.285714 -0.571429) translate(59.7143 11.4286)" height="13" width="5" y="71" x="84" fill="green"/>
  </g>
  <g id="TAG_2_47_4">
   <rect id="TAG_svg_106" transform="matrix(1, 0, 0, 1, 111.047, 65.1548)" height="13" width="5" y="71" x="84" fill="green"/>
   <rect id="TAG_svg_107" transform="matrix(1, 0, 0, 1, 111.047, 48.0715)" height="13" width="5" y="71" x="84" fill="green"/>
  </g>
  <g id="TAG_2_29_3">
   <rect id="TAG_svg_108" transform="matrix(1, 0, 0, 1, 125.904, 61.1548)" height="13" width="5" y="71" x="84" fill="green"/>
   <rect id="TAG_svg_109" transform="matrix(1, 0, 0, 1, 125.905, 44.0715)" height="13" width="5" y="71" x="84" fill="green"/>
  </g>
  <g id="TAG_2_48_2">
   <rect id="TAG_svg_110" transform="matrix(1, 0, 0, 1, 136.762, 60.8691)" height="13" width="5" y="71" x="84" fill="green"/>
   <rect id="TAG_svg_111" transform="matrix(1, 0, 0, 1, 136.762, 43.7858)" height="13" width="5" y="71" x="84" fill="green"/>
  </g>
  <g id="TAG_2_30_1">
   <rect id="TAG_svg_112" transform="matrix(1 0 0 1 84.1901 49.1548) translate(68.5714 4.85714) translate(0 1) translate(0 1) translate(0 1) translate(0 -1) translate(0 1)" height="13" width="5" y="71" x="84" fill="green"/>
   <rect id="TAG_svg_113" transform="matrix(1, 0, 0, 1, 165.476, 57.0119)" height="13" width="5" y="71" x="84" fill="green"/>
  </g>
  <g id="TAG_2_29_4">
   <rect id="TAG_svg_114" transform="matrix(1, 0, 0, 1, 152.762, 36.9286)" height="13" width="5" y="71" x="84" fill="green"/>
   <rect id="TAG_svg_115" transform="matrix(1, 0, 0, 1, 165.476, 36.9286)" height="13" width="5" y="71" x="84" fill="green"/>
  </g>
  <g id="TAG_2_28_1">
   <rect id="TAG_svg_116" transform="matrix(1 0 0 1 84.333 48.5833) translate(-31.4286 3.42857) translate(0 1) translate(0 -0.857143)" height="13" width="5" y="71" x="84" fill="green"/>
   <rect id="TAG_svg_117" transform="matrix(1 0 0 1 29.9047 52.1429)" height="13" width="5" y="71" x="84" fill="green"/>
  </g>
  <g id="TAG_2_47_2">
   <rect id="TAG_svg_118" transform="matrix(1, 0, 0, 1, 52.9047, 36.9286)" height="13" width="5" y="71" x="84" fill="green"/>
   <rect id="TAG_svg_119" transform="matrix(1 0 0 1 69.333 55.5833) translate(-39.4286 11.1429) translate(0 1)" height="13" width="5" y="71" x="84" fill="green"/>
   <rect id="TAG_svg_120" transform="matrix(1 0 0 1 29.9047 36.5596)" height="13" width="5" y="71" x="84" fill="green"/>
  </g>
  <g id="TAG_2_41_4">
   <rect id="TAG_svg_121" transform="matrix(1 0 0 1 -59.3289 109.765)" height="5" width="14" y="116" x="168" fill="green"/>
   <rect id="TAG_svg_122" transform="matrix(1 0 0 1 -43.3047 109.765)" height="5" width="14" y="116" x="167" fill="green"/>
   <rect id="TAG_svg_123" transform="matrix(1, 0, 0, 1, 39.6468, 143.765)" height="5" width="14" y="82" x="54" fill="green"/>
   <rect id="TAG_svg_124" transform="matrix(1 0 0 1 -28.2805 109.765)" height="5" width="14" y="116" x="167" fill="green"/>
  </g>
  <g id="TAG_2_42_2">
   <rect id="TAG_svg_125" transform="matrix(1 0 0 1 -13.2563 109.765)" height="5" width="14" y="116" x="167" fill="green"/>
   <rect id="TAG_svg_126" transform="matrix(1 0 0 1 1.76791 109.765)" height="5" width="14" y="116" x="167" fill="green"/>
   <rect id="TAG_svg_127" transform="matrix(1 0 0 1 16.7921 109.765)" height="5" width="14" y="116" x="167" fill="green"/>
   <rect id="TAG_svg_128" transform="matrix(1 0 0 1 31.8163 109.765)" height="5" width="14" y="116" x="167" fill="green"/>
  </g>
  <g id="TAG_2_44_4">
   <rect id="TAG_svg_129" transform="matrix(1, 0, 0, 1, 46.8405, 109.765)" height="5" width="14" y="116" x="167" fill="green"/>
   <rect id="TAG_svg_130" transform="matrix(1, 0, 0, 1, 61.8648, 109.765)" height="5" width="14" y="116" x="167" fill="green"/>
   <rect id="TAG_svg_131" transform="matrix(1, 0, 0, 1, 76.889, 109.765)" height="5" width="14" y="116" x="167" fill="green"/>
  </g>
  <g id="TAG_2_45_2">
   <rect id="TAG_svg_132" transform="matrix(1, 0, 0, 1, 91.9132, 109.765)" height="5" width="14" y="116" x="167" fill="green"/>
   <rect id="TAG_svg_133" transform="matrix(1 0 0 1 106.937 109.765)" height="5" width="14" y="116" x="167" fill="green"/>
   <rect id="TAG_svg_134" transform="matrix(1 0 0 1 121.962 109.765)" height="5" width="14" y="116" x="167" fill="green"/>
  </g>
  <g id="TAG_2_45_4">
   <rect id="TAG_svg_135" transform="matrix(1 0 0 1 182.058 109.765)" height="5" width="14" y="116" x="167" fill="green"/>
   <rect id="TAG_svg_136" transform="matrix(1 0 0 1 167.034 109.765)" height="5" width="14" y="116" x="167" fill="green"/>
   <rect id="TAG_svg_137" transform="matrix(1 0 0 1 152.01 109.765)" height="5" width="14" y="116" x="167" fill="green"/>
   <rect id="TAG_svg_138" transform="matrix(1 0 0 1 136.986 109.765)" height="5" width="14" y="116" x="167" fill="green"/>
  </g>
  <g id="TAG_2_30_2">
   <rect id="TAG_svg_139" transform="matrix(1, 0, 0, 1, 197.876, 52.3286)" height="13" width="5" y="71" x="84" fill="green"/>
   <rect id="TAG_svg_140" transform="matrix(1, 0, 0, 1, 217.876, 52.3286)" height="13" width="5" y="71" x="84" fill="green"/>
  </g>
  <g id="TAG_2_48_4">
   <rect id="TAG_svg_141" transform="matrix(1, 0, 0, 1, 179.876, 39.5286)" height="13" width="5" y="71" x="84" fill="green"/>
   <rect id="TAG_svg_142" transform="matrix(1 0 0 1 223.476 76.0119) translate(-43.6 -16.4) translate(0 1) translate(0 1) translate(0 1) translate(0 1) translate(0 1) translate(0 1)" height="13" width="5" y="71" x="84" fill="green"/>
   <rect id="TAG_svg_143" transform="matrix(1 0 0 1 223.476 76.0119) translate(-25.6 -3.6) translate(0 -1) translate(0 -1) translate(0 -1) translate(0 -1) translate(0 -1)" height="13" width="5" y="71" x="84" fill="green"/>
   <rect id="TAG_svg_144" transform="matrix(1 0 0 1 223.476 76.0119) translate(-5.6 -3.6) translate(0 -1) translate(0 -1) translate(0 -1) translate(0 -1) translate(0 -1)" height="13" width="5" y="71" x="84" fill="green"/>
  </g>
  <g id="TAG_2_30_4">
   <rect id="TAG_svg_145" transform="matrix(1, 0, 0, 1, 238.676, 43.5286)" height="13" width="5" y="71" x="84" fill="green"/>
   <rect id="TAG_svg_146" transform="matrix(1 0 0 1 223.476 76.0119) translate(15.2 -12.4) translate(0 -1) translate(0 -1) translate(0 -1)" height="13" width="5" y="71" x="84" fill="green"/>
  </g>
  <g id="TAG_2_49_2">
   <rect id="TAG_svg_147" transform="matrix(1, 0, 0, 1, 247.876, 60.6119)" height="13" width="5" y="71" x="84" fill="green"/>
   <rect id="TAG_svg_148" transform="matrix(1, 0, 0, 1, 247.876, 43.5286)" height="13" width="5" y="71" x="84" fill="green"/>
  </g>
  <g id="TAG_2_30_3">
   <rect id="TAG_svg_149" transform="matrix(1 0 0 1 222.676 57.5286) translate(42 -20.8) translate(0 0)" height="13" width="5" y="71" x="84" fill="green"/>
   <rect id="TAG_svg_150" transform="matrix(1, 0, 0, 1, 278.276, 36.5286)" height="13" width="5" y="71" x="84" fill="green"/>
  </g>
  <g id="TAG_2_49_4">
   <rect id="TAG_svg_151" transform="matrix(1 0 0 1 222.676 74.6119) translate(42 -20.8) translate(0 1) translate(0 1) translate(0 1) translate(0 0)" height="13" width="5" y="71" x="84" fill="green"/>
   <rect id="TAG_svg_152" transform="matrix(1, 0, 0, 1, 278.276, 56.6119)" height="13" width="5" y="71" x="84" fill="green"/>
  </g>
  <g id="TAG_2_50_2">
   <rect id="TAG_svg_153" transform="matrix(1 0 0 1 234.276 -44.7381) translate(0 -1) translate(0 0.75)" height="13" width="5" y="71" x="84" fill="green"/>
   <rect id="TAG_svg_154" transform="matrix(1 0 0 1 245.694 -44.7381) translate(0 -1) translate(0 0.75)" height="13" width="5" y="71" x="84" fill="green"/>
   <rect id="TAG_svg_155" transform="matrix(1 0 0 1 257.112 -44.7381) translate(0 -1) translate(0 0.75) translate(0 0)" height="13" width="5" y="71" x="84" fill="green"/>
   <rect id="TAG_svg_156" transform="matrix(1 0 0 1 268.531 -44.7381) translate(0 -1) translate(0 0.75)" height="13" width="5" y="71" x="84" fill="green"/>
   <rect id="TAG_svg_157" transform="matrix(1 0 0 1 279.949 -44.7381) translate(0 -1) translate(0 0.75)" height="13" width="5" y="71" x="84" fill="green"/>
  </g>
  <g id="TAG_2_53_2">
   <rect id="TAG_svg_158" transform="matrix(1 0 0 1 309.876 29.0119) translate(-10.75 6) translate(0 0)" height="13" width="5" y="71" x="84" fill="green"/>
  </g>
  <g id="TAG_2_50_4">
   <rect id="TAG_svg_159" transform="matrix(1 0 0 1 359.876 -44.7381) translate(0 -1) translate(0 -1) translate(0 1) translate(0 0.75)" height="13" width="5" y="71" x="84" fill="green"/>
   <rect id="TAG_svg_160" transform="matrix(1 0 0 1 348.458 -44.7381) translate(0 -1) translate(0 0.75)" height="13" width="5" y="71" x="84" fill="green"/>
   <rect id="TAG_svg_161" transform="matrix(1 0 0 1 337.04 -44.7381) translate(0 -1) translate(0 0.75)" height="13" width="5" y="71" x="84" fill="green"/>
   <rect id="TAG_svg_162" transform="matrix(1 0 0 1 325.621 -44.7381) translate(0 -1) translate(0 0.75)" height="13" width="5" y="71" x="84" fill="green"/>
   <rect id="TAG_svg_163" transform="matrix(1 0 0 1 314.203 -44.7381) translate(0 -1) translate(0 0.75)" height="13" width="5" y="71" x="84" fill="green"/>
   <rect id="TAG_svg_164" transform="matrix(1 0 0 1 302.785 -44.7381) translate(0 -1) translate(0 0.75)" height="13" width="5" y="71" x="84" fill="green"/>
   <rect id="TAG_svg_165" transform="matrix(1 0 0 1 291.367 -44.7381) translate(0 -1) translate(0 0.75)" height="13" width="5" y="71" x="84" fill="green"/>
  </g>
  <g id="TAG_2_31_1">
   <rect id="TAG_svg_166" transform="matrix(1 0 0 1 249.176 -0.34774) translate(0 1) translate(0 1) translate(0 1) translate(0 -1) translate(0 1)" height="13" width="5" y="71" x="84" fill="green"/>
   <rect id="TAG_svg_167" transform="matrix(1 0 0 1 249.426 -16.5214)" height="13" width="5" y="71" x="84" fill="green"/>
  </g>
  <g id="TAG_2_51_2">
   <rect id="TAG_svg_168" transform="matrix(1, 0, 0, 1, 236.926, -16.2714)" height="13" width="5" y="71" x="84" fill="green"/>
   <rect id="TAG_svg_169" transform="matrix(1 0 0 1 329.676 38.8119) translate(-92.75 -35) translate(0 -1) translate(0 -1) translate(-0.25 0.5)" height="13" width="5" y="71" x="84" fill="green"/>
   <rect id="TAG_svg_170" transform="matrix(1, 0, 0, 1, 261.426, 2.0619)" height="13" width="5" y="71" x="84" fill="green"/>
   <rect id="TAG_svg_171" transform="matrix(1, 0, 0, 1, 261.676, -16.5214)" height="13" width="5" y="71" x="84" fill="green"/>
  </g>
  <g id="TAG_2_31_2">
   <rect id="TAG_svg_172" transform="matrix(1 0 0 1 329.676 38.3119) translate(-41 -34) translate(0 -1)" height="13" width="5" y="71" x="84" fill="green"/>
   <rect id="TAG_svg_173" transform="matrix(1, 0, 0, 1, 297.926, 3.3119)" height="13" width="5" y="71" x="84" fill="green"/>
  </g>
  <g id="TAG_2_31_3">
   <rect id="TAG_svg_174" transform="matrix(1, 0, 0, 1, 288.926, -14.2714)" height="13" width="5" y="71" x="84" fill="green"/>
   <rect id="TAG_svg_175" transform="matrix(1, 0, 0, 1, 298.176, -14.2714)" height="13" width="5" y="71" x="84" fill="green"/>
  </g>
  <g id="TAG_2_52_2">
   <rect id="TAG_svg_176" transform="matrix(1, 0, 0, 1, 314.676, 3.3119)" height="13" width="5" y="71" x="84" fill="green"/>
   <rect id="TAG_svg_177" transform="matrix(1, 0, 0, 1, 314.926, -14.2714)" height="13" width="5" y="71" x="84" fill="green"/>
  </g>
  <g id="TAG_2_31_4">
   <rect id="TAG_svg_178" transform="matrix(1, 0, 0, 1, 327.926, 3.5619)" height="13" width="5" y="71" x="84" fill="green"/>
   <rect id="TAG_svg_179" transform="matrix(1, 0, 0, 1, 328.176, -14.0214)" height="13" width="5" y="71" x="84" fill="green"/>
  </g>
  <g id="TAG_2_32_2">
   <rect id="TAG_svg_180" transform="matrix(1 0 0 1 355.676 37.3119) translate(1.25 -37) translate(0 1) translate(0 1) translate(0 0)" height="13" width="5" y="71" x="84" fill="green"/>
  </g>
  <g id="TAG_2_32_3">
   <rect id="TAG_svg_181" transform="matrix(1, 0, 0, 1, 357.176, -17.2714)" height="13" width="5" y="71" x="84" fill="green"/>
  </g>
  <g id="TAG_2_53_1">
   <rect id="TAG_svg_182" transform="matrix(1 0 0 1 302.926 19.7286) translate(-10.5 35) translate(0 0)" height="13" width="5" y="71" x="84" fill="green"/>
   <rect id="TAG_svg_183" transform="matrix(1, 0, 0, 1, 303.676, 69.3119)" height="13" width="5" y="71" x="84" fill="green"/>
  </g>
  <g id="TAG_2_53_3">
   <rect id="TAG_svg_184" transform="matrix(1 0 0 1 302.676 37.3119) translate(-10.5 35) translate(0 -1) translate(0 -1) translate(0 -1)" height="13" width="5" y="71" x="84" fill="green"/>
   <rect id="TAG_svg_185" transform="matrix(1 0 0 1 303.426 21.7286) translate(0.5 33) translate(0 0)" height="13" width="5" y="71" x="84" fill="green"/>
  </g>
  <g id="TAG_2_54_1">
   <rect id="TAG_svg_186" transform="matrix(1 0 0 1 302.666 44.5) translate(15.5 22.5) translate(0 1) translate(0 1) translate(0 1) translate(0 -1) translate(0 1)" height="13" width="5" y="71" x="84" fill="green"/>
   <rect id="TAG_svg_187" transform="matrix(1 0 0 1 184.166 -48.167)" height="13" width="5" y="156" x="218" fill="green"/>
   <rect id="TAG_svg_188" transform="matrix(1 0 0 1 303.166 29.4165) translate(24.75 23.75) translate(0 0.25)" height="13" width="5" y="71" x="84" fill="green"/>
  </g>
  <g id="TAG_2_54_3">
   <rect id="TAG_svg_189" transform="matrix(1 0 0 1 318.166 53.4165)" height="13" width="5" y="71" x="84" fill="green"/>
   <rect id="TAG_svg_190" transform="matrix(1 0 0 1 303.166 46) translate(24.75 23.75) translate(0 0.25)" height="13" width="5" y="71" x="84" fill="green"/>
   <rect id="TAG_svg_191" transform="matrix(1 0 0 1 169.166 -72.167) translate(24.75 23.75) translate(0 0.25) translate(0 0)" height="13" width="5" y="156" x="218" fill="green"/>
  </g>
  <g id="TAG_2_48_1">
   <rect id="TAG_svg_192" transform="matrix(1, 0, 0, 1, 290.277, 123.743)" height="13" width="5" y="71" x="84" fill="green"/>
   <rect id="TAG_svg_193" transform="matrix(1, 0, 0, 1, 302.721, 123.187)" height="13" width="5" y="71" x="84" fill="green"/>
  </g>
  <g id="TAG_2_36_3">
   <rect id="TAG_svg_194" transform="matrix(1 0 0 1 290.277 144.889)" height="13" width="5" y="71" x="84" fill="green"/>
   <rect id="TAG_svg_195" transform="matrix(1 0 0 1 156.277 17.5971)" height="13" width="5" y="156" x="218" fill="green"/>
   <rect id="TAG_svg_196" transform="matrix(1, 0, 0, 1, 302.721, 144.333)" height="13" width="5" y="71" x="84" fill="green"/>
   <rect id="TAG_svg_197" transform="matrix(1, 0, 0, 1, 168.721, 17.0415)" height="13" width="5" y="156" x="218" fill="green"/>
  </g>
  <g id="TAG_2_47_3">
   <rect id="TAG_svg_198" transform="matrix(1, 0, 0, 1, 318.944, 122.965)" height="13" width="5" y="71" x="84" fill="green"/>
   <rect id="TAG_svg_199" transform="matrix(1, 0, 0, 1, 332.055, 122.965)" height="13" width="5" y="71" x="84" fill="green"/>
  </g>
  <g id="TAG_2_35_3">
   <rect id="TAG_svg_200" transform="matrix(1, 0, 0, 1, 318.944, 144.111)" height="13" width="5" y="71" x="84" fill="green"/>
   <rect id="TAG_svg_201" transform="matrix(1 0 0 1 162.277 -7.4029) translate(22.6667 24.2222) translate(0 0)" height="13" width="5" y="156" x="218" fill="green"/>
   <rect id="TAG_svg_202" transform="matrix(1, 0, 0, 1, 332.055, 144.111)" height="13" width="5" y="71" x="84" fill="green"/>
   <rect id="TAG_svg_203" transform="matrix(1, 0, 0, 1, 198.055, 16.8193)" height="13" width="5" y="156" x="218" fill="green"/>
  </g>
  <g id="TAG_2_32_4">
   <rect id="TAG_svg_204" transform="matrix(1 0 0 1 296.277 98.743) translate(56.6667 33.7778) translate(0 -1) translate(0 -1)" height="13" width="5" y="71" x="84" fill="green"/>
  </g>
  <g id="TAG_2_36_1">
   <rect id="TAG_svg_205" transform="matrix(1 0 0 1 296.277 119.889) translate(56.6667 33.7778) translate(0 -1) translate(0 -1) translate(0 -1) translate(0 -1)" height="13" width="5" y="71" x="84" fill="green"/>
   <rect id="TAG_svg_206" transform="matrix(1, 0, 0, 1, 218.944, 26.3749)" height="13" width="5" y="156" x="218" fill="green"/>
  </g>
  <g id="TAG_2_35_1">
   <ellipse id="TAG_svg_207" transform="matrix(1 0 0 1 341.228 -48.3301)" ry="3" rx="3" cy="113" cx="20" fill="green"/>
   <ellipse id="TAG_svg_208" transform="matrix(1 0 0 1 356.978 -65.4551)" ry="3" rx="3" cy="113" cx="20" fill="green"/>
   <ellipse id="TAG_svg_209" transform="matrix(1 0 0 1 389.978 -65.4551)" ry="3" rx="3" cy="113" cx="20" fill="green"/>
   <ellipse id="TAG_svg_210" transform="matrix(1 0 0 1 406.353 -48.3301)" ry="3" rx="3" cy="113" cx="20" fill="green"/>
  </g>
  <g id="TAG_2_32_1">
   <ellipse id="TAG_svg_211" transform="matrix(1 0 0 1 341.228 -65.4551)" ry="3" rx="3" cy="113" cx="20" fill="green"/>
   <ellipse id="TAG_svg_212" transform="matrix(1 0 0 1 341.228 -31.0801)" ry="3" rx="3" cy="113" cx="20" fill="green"/>
   <ellipse id="TAG_svg_213" transform="matrix(1 0 0 1 373.478 -65.4551)" ry="3" rx="3" cy="113" cx="20" fill="green"/>
   <ellipse id="TAG_svg_214" transform="matrix(1 0 0 1 406.353 -65.4551)" ry="3" rx="3" cy="113" cx="20" fill="green"/>
   <ellipse id="TAG_svg_215" transform="matrix(1 0 0 1 406.353 -31.2051)" ry="3" rx="3" cy="113" cx="20" fill="green"/>
  </g>
  <g id="TAG_2_33_3">
   <ellipse id="TAG_svg_216" transform="matrix(1 0 0 1 467.624 -81.344)" ry="3" rx="3" cy="113" cx="20" fill="green"/>
   <ellipse id="TAG_svg_217" transform="matrix(1, 0, 0, 1, 467.735, -66.344)" ry="3" rx="3" cy="113" cx="20" fill="green"/>
   <ellipse id="TAG_svg_218" transform="matrix(1, 0, 0, 1, 467.957, -51.4551)" ry="3" rx="3" cy="113" cx="20" fill="green"/>
  </g>
  <g id="TAG_2_44_3">
   <ellipse id="TAG_svg_219" transform="matrix(1, 0, 0, 1, 441.561, -81.344)" ry="3" rx="3" cy="113" cx="20" fill="green"/>
   <ellipse id="TAG_svg_220" transform="matrix(1 0 0 1 454.593 -81.344)" ry="3" rx="3" cy="113" cx="20" fill="green"/>
   <ellipse id="TAG_svg_221" transform="matrix(1 0 0 1 480.655 -81.344)" ry="3" rx="3" cy="113" cx="20" fill="green"/>
   <ellipse id="TAG_svg_222" transform="matrix(1 0 0 1 511.353 -34.4551) translate(-4.66667 -46.8889) translate(-1 0) translate(-1 0) translate(-1 0) translate(-1 0) translate(-1 0) translate(-1 0) translate(-1 0) translate(-1 0) translate(-1 0) translate(-1 0) translate(-1 0) translate(-1 0) translate(-1 0)" ry="3" rx="3" cy="113" cx="20" fill="green"/>
   <ellipse id="TAG_svg_223" transform="matrix(1, 0, 0, 1, 441.672, -66.344)" ry="3" rx="3" cy="113" cx="20" fill="green"/>
   <ellipse id="TAG_svg_224" transform="matrix(1, 0, 0, 1, 454.704, -66.344)" ry="3" rx="3" cy="113" cx="20" fill="green"/>
   <ellipse id="TAG_svg_225" transform="matrix(1, 0, 0, 1, 480.766, -66.344)" ry="3" rx="3" cy="113" cx="20" fill="green"/>
   <ellipse id="TAG_svg_226" transform="matrix(1, 0, 0, 1, 493.797, -66.344)" ry="3" rx="3" cy="113" cx="20" fill="green"/>
   <ellipse id="TAG_svg_227" transform="matrix(1, 0, 0, 1, 441.894, -51.4551)" ry="3" rx="3" cy="113" cx="20" fill="green"/>
   <ellipse id="TAG_svg_228" transform="matrix(1, 0, 0, 1, 454.926, -51.4551)" ry="3" rx="3" cy="113" cx="20" fill="green"/>
   <ellipse id="TAG_svg_229" transform="matrix(1, 0, 0, 1, 480.988, -51.4551)" ry="3" rx="3" cy="113" cx="20" fill="green"/>
   <ellipse id="TAG_svg_230" transform="matrix(1, 0, 0, 1, 494.019, -51.4551)" ry="3" rx="3" cy="113" cx="20" fill="green"/>
   <ellipse id="TAG_svg_231" transform="matrix(1 0 0 1 465.593 -34.344) translate(25.7778 -27.7778) translate(5.11111 -19.1111) translate(-54.8889 45.7778)" ry="3" rx="3" cy="113" cx="20" fill="green"/>
  </g>
  <g id="TAG_2_45_3">
   <ellipse id="TAG_svg_232" transform="matrix(1 0 0 1 478.624 -34.344) translate(25.7778 -27.7778) translate(5.11111 -19.1111) translate(-1 0) translate(0 0) translate(1 0)" ry="3" rx="3" cy="113" cx="20" fill="green"/>
   <ellipse id="TAG_svg_233" transform="matrix(1, 0, 0, 1, 523.044, -81.2329)" ry="3" rx="3" cy="113" cx="20" fill="green"/>
   <ellipse id="TAG_svg_234" transform="matrix(1 0 0 1 535.575 -81.2329)" ry="3" rx="3" cy="113" cx="20" fill="green"/>
   <ellipse id="TAG_svg_235" transform="matrix(1, 0, 0, 1, 508.291, -51.1218)" ry="3" rx="3" cy="113" cx="20" fill="green"/>
   <ellipse id="TAG_svg_236" transform="matrix(1, 0, 0, 1, 522.822, -51.1218)" ry="3" rx="3" cy="113" cx="20" fill="green"/>
   <ellipse id="TAG_svg_237" transform="matrix(1, 0, 0, 1, 535.353, -51.1218)" ry="3" rx="3" cy="113" cx="20" fill="green"/>
  </g>
  <g id="TAG_2_34_1">
   <ellipse id="TAG_svg_238" transform="matrix(1 0 0 1 508.513 -66.2329)" ry="3" rx="3" cy="113" cx="20" fill="green"/>
   <ellipse id="TAG_svg_239" transform="matrix(1, 0, 0, 1, 523.044, -66.2329)" ry="3" rx="3" cy="113" cx="20" fill="green"/>
   <ellipse id="TAG_svg_240" transform="matrix(1, 0, 0, 1, 535.575, -66.2329)" ry="3" rx="3" cy="113" cx="20" fill="green"/>
   <ellipse id="TAG_svg_241" transform="matrix(1, 0, 0, 1, 508.513, -35.5662)" ry="3" rx="3" cy="113" cx="20" fill="green"/>
   <ellipse id="TAG_svg_242" transform="matrix(1, 0, 0, 1, 523.044, -35.5662)" ry="3" rx="3" cy="113" cx="20" fill="green"/>
   <ellipse id="TAG_svg_243" transform="matrix(1, 0, 0, 1, 535.575, -35.5662)" ry="3" rx="3" cy="113" cx="20" fill="green"/>
  </g>
  <g id="TAG_2_33_4">
   <rect id="TAG_svg_244" transform="matrix(1 0 0 1 407.482 3.3119)" height="13" width="5" y="71" x="84" fill="green"/>
  </g>
  <g id="TAG_2_45_1">
   <rect id="TAG_svg_245" transform="matrix(1 0 0 1 393.037 3.3119)" height="13" width="5" y="71" x="84" fill="green"/>
   <rect id="TAG_svg_246" transform="matrix(1 0 0 1 421.926 3.3119)" height="13" width="5" y="71" x="84" fill="green"/>
  </g>
  <g id="TAG_2_43_3">
   <rect id="TAG_svg_247" transform="matrix(1 0 0 1 411.916 18) translate(72.8889 -27.3333) translate(0 1) translate(0 1) translate(0 1) translate(0 1) translate(0 1) translate(0 1) translate(0 1) translate(0 1) translate(0 1) translate(0 1) translate(0 1) translate(0 1) translate(0 1) translate(0 1) translate(0 -1) translate(0 0)" height="13" width="5" y="71" x="84" fill="green"/>
   <rect id="TAG_svg_248" transform="matrix(1, 0, 0, 1, 495.805, 3.8889)" height="13" width="5" y="71" x="84" fill="green"/>
  </g>
  <g id="TAG_2_52_3">
   <rect id="TAG_svg_249" transform="matrix(1, 0, 0, 1, 484.805, -19.4168)" height="13" width="5" y="71" x="84" fill="green"/>
   <rect id="TAG_svg_250" transform="matrix(1, 0, 0, 1, 495.805, -19.1946)" height="13" width="5" y="71" x="84" fill="green"/>
  </g>
  <g id="TAG_2_43_1">
   <rect id="TAG_svg_251" transform="matrix(1 0 0 1 350.805 -127.5)" height="13" width="5" y="156" x="218" fill="green"/>
   <rect id="TAG_svg_252" transform="matrix(1, 0, 0, 1, 361.805, -127.278)" height="13" width="5" y="156" x="218" fill="green"/>
  </g>
  <g id="TAG_2_44_1">
   <rect id="TAG_svg_253" transform="matrix(1 0 0 1 407 85.916) translate(77 -9.66667) translate(0 1) translate(0 1)" height="13" width="5" y="71" x="84" fill="green"/>
   <rect id="TAG_svg_254" transform="matrix(1 0 0 1 484 43.4162)" height="13" width="5" y="71" x="84" fill="green"/>
  </g>
  <g id="TAG_2_33_1">
   <rect id="TAG_svg_255" transform="matrix(1 0 0 1 484 60.8328)" height="13" width="5" y="71" x="84" fill="green"/>
   <rect id="TAG_svg_256" transform="matrix(1 0 0 1 350 -59.0003)" height="13" width="5" y="156" x="218" fill="green"/>
  </g>
  <g id="TAG_2_34_2">
   <ellipse id="TAG_svg_257" transform="matrix(1 0 0 1 460.971 52.656)" ry="3" rx="3" cy="113" cx="20" fill="green"/>
   <ellipse id="TAG_svg_258" transform="matrix(1 0 0 1 491.123 52.656)" ry="3" rx="3" cy="113" cx="20" fill="green"/>
   <ellipse id="TAG_svg_259" transform="matrix(1 0 0 1 521.276 52.656)" ry="3" rx="3" cy="113" cx="20" fill="green"/>
   <ellipse id="TAG_svg_260" transform="matrix(1, 0, 0, 1, 476.38, 82.656)" ry="3" rx="3" cy="113" cx="20" fill="green"/>
   <ellipse id="TAG_svg_261" transform="matrix(1, 0, 0, 1, 506.533, 82.656)" ry="3" rx="3" cy="113" cx="20" fill="green"/>
   <ellipse id="TAG_svg_262" transform="matrix(1 0 0 1 477.047 13.9893)" ry="3" rx="3" cy="113" cx="20" fill="green"/>
  </g>
  <g id="TAG_2_46_3">
   <ellipse id="TAG_svg_263" transform="matrix(1, 0, 0, 1, 461.304, 67.656)" ry="3" rx="3" cy="113" cx="20" fill="green"/>
   <ellipse id="TAG_svg_264" transform="matrix(1 0 0 1 481.123 25.656) translate(10.3333 42) translate(0 0)" ry="3" rx="3" cy="113" cx="20" fill="green"/>
   <ellipse id="TAG_svg_265" transform="matrix(1 0 0 1 466.047 25.656) translate(10 72) translate(3 -7.33333) translate(-2.66667 7.66667)" ry="3" rx="3" cy="113" cx="20" fill="green"/>
   <ellipse id="TAG_svg_266" transform="matrix(1 0 0 1 496.2 25.656) translate(10 72) translate(3 -7.33333) translate(-2.66667 7.66667)" ry="3" rx="3" cy="113" cx="20" fill="green"/>
   <ellipse id="TAG_svg_267" transform="matrix(1, 0, 0, 1, 461.304, 112.989)" ry="3" rx="3" cy="113" cx="20" fill="green"/>
   <ellipse id="TAG_svg_268" transform="matrix(1, 0, 0, 1, 491.456, 112.989)" ry="3" rx="3" cy="113" cx="20" fill="green"/>
   <ellipse id="TAG_svg_269" transform="matrix(1 0 0 1 477.047 39.3227)" ry="3" rx="3" cy="113" cx="20" fill="green"/>
   <ellipse id="TAG_svg_270" transform="matrix(1 0 0 1 477.047 -1.01067)" ry="3" rx="3" cy="113" cx="20" fill="green"/>
   <ellipse id="TAG_svg_271" transform="matrix(1, 0, 0, 1, 491.38, 26.656)" ry="3" rx="3" cy="113" cx="20" fill="green"/>
  </g>
  <g id="TAG_2_34_3">
   <ellipse id="TAG_svg_272" transform="matrix(1 0 0 1 445.894 52.656)" ry="3" rx="3" cy="113" cx="20" fill="green"/>
   <ellipse id="TAG_svg_273" transform="matrix(1 0 0 1 476.047 52.656)" ry="3" rx="3" cy="113" cx="20" fill="green"/>
   <ellipse id="TAG_svg_274" transform="matrix(1 0 0 1 506.2 52.656)" ry="3" rx="3" cy="113" cx="20" fill="green"/>
   <ellipse id="TAG_svg_275" transform="matrix(1 0 0 1 536.353 52.656)" ry="3" rx="3" cy="113" cx="20" fill="green"/>
   <ellipse id="TAG_svg_276" transform="matrix(1, 0, 0, 1, 461.304, 82.656)" ry="3" rx="3" cy="113" cx="20" fill="green"/>
   <ellipse id="TAG_svg_277" transform="matrix(1, 0, 0, 1, 491.456, 82.656)" ry="3" rx="3" cy="113" cx="20" fill="green"/>
   <ellipse id="TAG_svg_278" transform="matrix(1, 0, 0, 1, 491.38, 13.9893)" ry="3" rx="3" cy="113" cx="20" fill="green"/>
  </g>
  <g id="TAG_2_46_1">
   <ellipse id="TAG_svg_279" transform="matrix(1 0 0 1 466.047 25.656) translate(10.3333 42) translate(0 0)" ry="3" rx="3" cy="113" cx="20" fill="green"/>
   <ellipse id="TAG_svg_280" transform="matrix(1, 0, 0, 1, 506.533, 67.656)" ry="3" rx="3" cy="113" cx="20" fill="green"/>
   <ellipse id="TAG_svg_281" transform="matrix(1 0 0 1 450.971 25.656) translate(10 72) translate(3 -7.33333) translate(-2.66667 7.66667)" ry="3" rx="3" cy="113" cx="20" fill="green"/>
   <ellipse id="TAG_svg_282" transform="matrix(1 0 0 1 481.123 25.656) translate(10 72) translate(3 -7.33333) translate(-2.66667 7.66667)" ry="3" rx="3" cy="113" cx="20" fill="green"/>
   <ellipse id="TAG_svg_283" transform="matrix(1, 0, 0, 1, 476.38, 112.989)" ry="3" rx="3" cy="113" cx="20" fill="green"/>
   <ellipse id="TAG_svg_284" transform="matrix(1, 0, 0, 1, 506.533, 112.989)" ry="3" rx="3" cy="113" cx="20" fill="green"/>
   <ellipse id="TAG_svg_285" transform="matrix(1 0 0 1 477.047 26.656)" ry="3" rx="3" cy="113" cx="20" fill="green"/>
   <ellipse id="TAG_svg_286" transform="matrix(1, 0, 0, 1, 491.38, 39.3227)" ry="3" rx="3" cy="113" cx="20" fill="green"/>
   <ellipse id="TAG_svg_287" transform="matrix(1, 0, 0, 1, 491.38, -1.01067)" ry="3" rx="3" cy="113" cx="20" fill="green"/>
  </g>
  <g id="TAG_2_37_1">
   <rect id="TAG_svg_288" transform="matrix(1 0 0 1 384.455 -112.273)" height="13" width="5" y="156" x="218" fill="green"/>
   <rect id="TAG_svg_289" transform="matrix(1 0 0 1 518.455 -11.5232)" height="13" width="5" y="71" x="84" fill="green"/>
   <rect id="TAG_svg_290" transform="matrix(1 0 0 1 518.455 4.22673)" height="13" width="5" y="71" x="84" fill="green"/>
   <rect id="TAG_svg_291" transform="matrix(1 0 0 1 513 104.249) translate(5.45455 -79.2727) translate(0 -1) translate(0 -1) translate(0 -1) translate(0 -1) translate(0 -1)" height="13" width="5" y="71" x="84" fill="green"/>
  </g>
  <g id="TAG_2_48_3">
   <rect id="TAG_svg_292" transform="matrix(1 0 0 1 513.455 101.976) translate(33.8182 -82.1818) translate(0 1)" height="13" width="5" y="71" x="84" fill="green"/>
   <rect id="TAG_svg_293" transform="matrix(1 0 0 1 513.455 86.2267) translate(33.8182 -82.1818) translate(0 1)" height="13" width="5" y="71" x="84" fill="green"/>
   <rect id="TAG_svg_294" transform="matrix(1 0 0 1 513.455 70.4768) translate(33.8182 -82.1818) translate(0 1)" height="13" width="5" y="71" x="84" fill="green"/>
   <rect id="TAG_svg_295" transform="matrix(1 0 0 1 379.455 -30.273) translate(33.8182 -82.1818) translate(0 1)" height="13" width="5" y="156" x="218" fill="green"/>
  </g>
  <g id="TAG_2_37_3">
   <rect id="TAG_svg_296" transform="matrix(1, 0, 0, 1, 574.546, 20.1578)" height="13" width="5" y="71" x="84" fill="green"/>
   <rect id="TAG_svg_297" transform="matrix(1, 0, 0, 1, 574.546, 4.4085)" height="13" width="5" y="71" x="84" fill="green"/>
   <rect id="TAG_svg_298" transform="matrix(1, 0, 0, 1, 574.546, -11.3414)" height="13" width="5" y="71" x="84" fill="green"/>
   <rect id="TAG_svg_299" transform="matrix(1, 0, 0, 1, 440.546, -112.091)" height="13" width="5" y="156" x="218" fill="green"/>
  </g>
  <g id="TAG_2_49_1">
   <rect id="TAG_svg_300" transform="matrix(1, 0, 0, 1, 603.273, 20.1578)" height="13" width="5" y="71" x="84" fill="green"/>
   <rect id="TAG_svg_301" transform="matrix(1, 0, 0, 1, 603.273, 4.4085)" height="13" width="5" y="71" x="84" fill="green"/>
   <rect id="TAG_svg_302" transform="matrix(1, 0, 0, 1, 603.273, -11.3414)" height="13" width="5" y="71" x="84" fill="green"/>
   <rect id="TAG_svg_303" transform="matrix(1, 0, 0, 1, 469.273, -112.091)" height="13" width="5" y="156" x="218" fill="green"/>
  </g>
  <g id="TAG_2_39_1">
   <rect id="TAG_svg_304" transform="matrix(1, 0, 0, 1, 518.91, 135.43)" height="13" width="5" y="71" x="84" fill="green"/>
   <rect id="TAG_svg_305" transform="matrix(1, 0, 0, 1, 518.91, 119.681)" height="13" width="5" y="71" x="84" fill="green"/>
   <rect id="TAG_svg_306" transform="matrix(1, 0, 0, 1, 518.91, 103.931)" height="13" width="5" y="71" x="84" fill="green"/>
   <rect id="TAG_svg_307" transform="matrix(1 0 0 1 379.455 -30.273) translate(5.45455 33.4545) translate(0 0)" height="13" width="5" y="156" x="218" fill="green"/>
  </g>
  <g id="TAG_2_49_3">
   <rect id="TAG_svg_308" transform="matrix(1, 0, 0, 1, 547.273, 134.703)" height="13" width="5" y="71" x="84" fill="green"/>
   <rect id="TAG_svg_309" transform="matrix(1, 0, 0, 1, 547.273, 118.954)" height="13" width="5" y="71" x="84" fill="green"/>
   <rect id="TAG_svg_310" transform="matrix(1, 0, 0, 1, 547.273, 103.204)" height="13" width="5" y="71" x="84" fill="green"/>
   <rect id="TAG_svg_311" transform="matrix(1 0 0 1 379.455 -30.273) translate(33.8182 32.7273) translate(0 0)" height="13" width="5" y="156" x="218" fill="green"/>
  </g>
  <g id="TAG_2_39_3">
   <rect id="TAG_svg_312" transform="matrix(1, 0, 0, 1, 574.546, 135.067)" height="13" width="5" y="71" x="84" fill="green"/>
   <rect id="TAG_svg_313" transform="matrix(1, 0, 0, 1, 574.546, 119.318)" height="13" width="5" y="71" x="84" fill="green"/>
   <rect id="TAG_svg_314" transform="matrix(1, 0, 0, 1, 574.546, 103.568)" height="13" width="5" y="71" x="84" fill="green"/>
   <rect id="TAG_svg_315" transform="matrix(1, 0, 0, 1, 440.546, 2.8179)" height="13" width="5" y="156" x="218" fill="green"/>
  </g>
  <g id="TAG_2_50_1">
   <rect id="TAG_svg_316" transform="matrix(1, 0, 0, 1, 603.273, 135.794)" height="13" width="5" y="71" x="84" fill="green"/>
   <rect id="TAG_svg_317" transform="matrix(1, 0, 0, 1, 603.273, 120.045)" height="13" width="5" y="71" x="84" fill="green"/>
   <rect id="TAG_svg_318" transform="matrix(1, 0, 0, 1, 603.273, 104.295)" height="13" width="5" y="71" x="84" fill="green"/>
   <rect id="TAG_svg_319" transform="matrix(1, 0, 0, 1, 469.273, 3.5452)" height="13" width="5" y="156" x="218" fill="green"/>
  </g>
  <g id="TAG_2_42_3">
   <rect id="TAG_svg_320" transform="matrix(1 0 0 1 547.091 53.0223)" height="13" width="5" y="71" x="84" fill="green"/>
   <rect id="TAG_svg_321" transform="matrix(1 0 0 1 533.091 53.0223)" height="13" width="5" y="71" x="84" fill="green"/>
   <rect id="TAG_svg_322" transform="matrix(1, 0, 0, 1, 518.91, 53.4667)" height="13" width="5" y="71" x="84" fill="green"/>
  </g>
  <g id="TAG_2_52_1">
   <rect id="TAG_svg_323" transform="matrix(1 0 0 1 384.91 -47.7275)" height="13" width="5" y="156" x="218" fill="green"/>
   <rect id="TAG_svg_324" transform="matrix(1 0 0 1 547.091 68.5678)" height="13" width="5" y="71" x="84" fill="green"/>
  </g>
  <g id="TAG_2_51_3">
   <rect id="TAG_svg_325" transform="matrix(1, 0, 0, 1, 440.728, -47.5458)" height="13" width="5" y="156" x="218" fill="green"/>
   <rect id="TAG_svg_326" transform="matrix(1, 0, 0, 1, 574.728, 53.204)" height="13" width="5" y="71" x="84" fill="green"/>
   <rect id="TAG_svg_327" transform="matrix(1, 0, 0, 1, 574.728, 68.9539)" height="13" width="5" y="71" x="84" fill="green"/>
  </g>
  <g id="TAG_2_42_1">
   <rect id="TAG_svg_328" transform="matrix(1, 0, 0, 1, 457.092, -47.5458)" height="13" width="5" y="156" x="218" fill="green"/>
   <rect id="TAG_svg_329" transform="matrix(1, 0, 0, 1, 591.092, 53.204)" height="13" width="5" y="71" x="84" fill="green"/>
   <rect id="TAG_svg_330" transform="matrix(1, 0, 0, 1, 591.092, 68.9539)" height="13" width="5" y="71" x="84" fill="green"/>
  </g>
  <g id="TAG_2_50_3">
   <rect id="TAG_svg_331" transform="matrix(1 0 0 1 378.91 -22.8185) translate(96 -18.9091) translate(0 0)" height="13" width="5" y="156" x="218" fill="green"/>
   <rect id="TAG_svg_332" transform="matrix(1 0 0 1 512.91 77.9313) translate(96 -18.9091) translate(0 1) translate(0 1) translate(0 1) translate(0 1) translate(0 1)" height="13" width="5" y="71" x="84" fill="green"/>
  </g>
  <g id="TAG_2_38_1">
   <rect id="TAG_svg_333" transform="matrix(1 0 0 1 495.647 69.765) translate(44.3636 -123.636) translate(1.80723 0)" height="5" width="14" y="82" x="54" fill="green"/>
   <rect id="TAG_svg_334" transform="matrix(1, 0, 0, 1, 441.035, -87.871)" height="5" width="14" y="116" x="168" fill="green"/>
   <rect id="TAG_svg_335" transform="matrix(1, 0, 0, 1, 457.059, -87.871)" height="5" width="14" y="116" x="167" fill="green"/>
   <rect id="TAG_svg_336" transform="matrix(1, 0, 0, 1, 472.083, -87.871)" height="5" width="14" y="116" x="167" fill="green"/>
  </g>
  <g id="TAG_2_38_3">
   <rect id="TAG_svg_337" transform="matrix(1, 0, 0, 1, 487.108, -87.871)" height="5" width="14" y="116" x="167" fill="green"/>
   <rect id="TAG_svg_338" transform="matrix(1, 0, 0, 1, 502.132, -87.871)" height="5" width="14" y="116" x="167" fill="green"/>
   <rect id="TAG_svg_339" transform="matrix(1, 0, 0, 1, 517.156, -87.871)" height="5" width="14" y="116" x="167" fill="green"/>
  </g>
  <g id="TAG_2_40_1">
   <rect id="TAG_svg_340" transform="matrix(1, 0, 0, 1, 540.011, 144.311)" height="5" width="14" y="82" x="54" fill="green"/>
   <rect id="TAG_svg_341" transform="matrix(1, 0, 0, 1, 441.035, 110.311)" height="5" width="14" y="116" x="168" fill="green"/>
   <rect id="TAG_svg_342" transform="matrix(1, 0, 0, 1, 457.059, 110.311)" height="5" width="14" y="116" x="167" fill="green"/>
   <rect id="TAG_svg_343" transform="matrix(1, 0, 0, 1, 472.083, 110.311)" height="5" width="14" y="116" x="167" fill="green"/>
  </g>
  <g id="TAG_2_40_3">
   <rect id="TAG_svg_344" transform="matrix(1, 0, 0, 1, 487.108, 110.311)" height="5" width="14" y="116" x="167" fill="green"/>
   <rect id="TAG_svg_345" transform="matrix(1, 0, 0, 1, 502.132, 110.311)" height="5" width="14" y="116" x="167" fill="green"/>
   <rect id="TAG_svg_346" transform="matrix(1, 0, 0, 1, 517.156, 110.311)" height="5" width="14" y="116" x="167" fill="green"/>
  </g>
  <g id="TAG_2_51_1">
   <ellipse id="TAG_svg_347" transform="matrix(1 0 0 1 558.971 41.656) translate(122.182 -44) translate(1 0) translate(1 0) translate(1 0) translate(1 0) translate(1 0) translate(1 0) translate(1 0) translate(1 0) translate(1 0) translate(1 0)" ry="3" rx="3" cy="113" cx="20" fill="green"/>
   <ellipse id="TAG_svg_348" transform="matrix(1 0 0 1 702.896 -2.344)" ry="3" rx="3" cy="113" cx="20" fill="green"/>
   <ellipse id="TAG_svg_349" transform="matrix(1 0 0 1 714.639 -2.344)" ry="3" rx="3" cy="113" cx="20" fill="green"/>
   <ellipse id="TAG_svg_350" transform="matrix(1 0 0 1 726.382 -2.344)" ry="3" rx="3" cy="113" cx="20" fill="green"/>
   <ellipse id="TAG_svg_351" transform="matrix(1, 0, 0, 1, 691.062, 14.3833)" ry="3" rx="3" cy="113" cx="20" fill="green"/>
   <ellipse id="TAG_svg_352" transform="matrix(1, 0, 0, 1, 702.805, 14.3833)" ry="3" rx="3" cy="113" cx="20" fill="green"/>
   <ellipse id="TAG_svg_353" transform="matrix(1, 0, 0, 1, 714.548, 14.3833)" ry="3" rx="3" cy="113" cx="20" fill="green"/>
   <ellipse id="TAG_svg_354" transform="matrix(1, 0, 0, 1, 726.291, 14.3833)" ry="3" rx="3" cy="113" cx="20" fill="green"/>
  </g>
  <g id="TAG_2_41_3">
   <ellipse id="TAG_svg_355" transform="matrix(1, 0, 0, 1, 690.698, 47.4742)" ry="3" rx="3" cy="113" cx="20" fill="green"/>
   <ellipse id="TAG_svg_356" transform="matrix(1, 0, 0, 1, 702.441, 47.4742)" ry="3" rx="3" cy="113" cx="20" fill="green"/>
   <ellipse id="TAG_svg_357" transform="matrix(1, 0, 0, 1, 714.184, 47.4742)" ry="3" rx="3" cy="113" cx="20" fill="green"/>
   <ellipse id="TAG_svg_358" transform="matrix(1, 0, 0, 1, 725.927, 47.4742)" ry="3" rx="3" cy="113" cx="20" fill="green"/>
   <ellipse id="TAG_svg_359" transform="matrix(1, 0, 0, 1, 691.062, 30.7469)" ry="3" rx="3" cy="113" cx="20" fill="green"/>
   <ellipse id="TAG_svg_360" transform="matrix(1, 0, 0, 1, 702.805, 30.7469)" ry="3" rx="3" cy="113" cx="20" fill="green"/>
   <ellipse id="TAG_svg_361" transform="matrix(1, 0, 0, 1, 714.548, 30.7469)" ry="3" rx="3" cy="113" cx="20" fill="green"/>
   <ellipse id="TAG_svg_362" transform="matrix(1, 0, 0, 1, 726.291, 30.7469)" ry="3" rx="3" cy="113" cx="20" fill="green"/>
  </g>
  <g id="TAG_2_41_1">
   <ellipse id="TAG_svg_363" transform="matrix(1, 0, 0, 1, 710.74, 71.4742)" ry="3" rx="3" cy="113" cx="20" fill="green"/>
   <ellipse id="TAG_svg_364" transform="matrix(1, 0, 0, 1, 711.073, 97.252)" ry="3" rx="3" cy="113" cx="20" fill="green"/>
  </g>
  <g id="TAG_1_36_3">
   <ellipse id="TAG_svg_365" transform="matrix(1, 0, 0, 1, 471.73, 397.838)" ry="3" rx="3" cy="113" cx="20" fill="green"/>
   <ellipse id="TAG_svg_366" transform="matrix(1, 0, 0, 1, 502.275, 397.838)" ry="3" rx="3" cy="113" cx="20" fill="green"/>
   <ellipse id="TAG_svg_367" transform="matrix(1, 0, 0, 1, 547.002, 397.838)" ry="3" rx="3" cy="113" cx="20" fill="green"/>
   <ellipse id="TAG_svg_368" transform="matrix(1, 0, 0, 1, 592.457, 397.838)" ry="3" rx="3" cy="113" cx="20" fill="green"/>
   <ellipse id="TAG_svg_369" transform="matrix(1, 0, 0, 1, 638.275, 397.838)" ry="3" rx="3" cy="113" cx="20" fill="green"/>
  </g>
  <g id="TAG_2_36_2">
   <rect id="TAG_svg_370" transform="matrix(1, 0, 0, 1, 101, 16.5833)" height="13" width="5" y="71" x="84" fill="green"/>
   <rect id="TAG_svg_371" transform="matrix(1, 0, 0, 1, 101, 1.5)" height="13" width="5" y="71" x="84" fill="green"/>
   <rect id="TAG_svg_372" transform="matrix(1, 0, 0, 1, 101, -13.5833)" height="13" width="5" y="71" x="84" fill="green"/>
   <rect id="TAG_svg_373" transform="matrix(1, 0, 0, 1, -33.0003, -113.667)" height="13" width="5" y="156" x="218" fill="green"/>
   <ellipse id="TAG_svg_374" transform="matrix(1, 0, 0, 1, 456.82, 397.838)" ry="3" rx="3" cy="113" cx="20" fill="green"/>
   <ellipse id="TAG_svg_375" transform="matrix(1, 0, 0, 1, 517.184, 397.838)" ry="3" rx="3" cy="113" cx="20" fill="green"/>
   <ellipse id="TAG_svg_376" transform="matrix(1, 0, 0, 1, 562.275, 397.838)" ry="3" rx="3" cy="113" cx="20" fill="green"/>
   <ellipse id="TAG_svg_377" transform="matrix(1, 0, 0, 1, 607.366, 397.838)" ry="3" rx="3" cy="113" cx="20" fill="green"/>
   <ellipse id="TAG_svg_378" transform="matrix(1, 0, 0, 1, 652.82, 397.838)" ry="3" rx="3" cy="113" cx="20" fill="green"/>
  </g>
  <g id="TAG_1_36_4">
   <ellipse id="TAG_svg_379" transform="matrix(1 0 0 1 622.548 329.111)" ry="3" rx="3" cy="113" cx="20" fill="green"/>
   <ellipse id="TAG_svg_380" transform="matrix(1 0 0 1 577.457 329.111)" ry="3" rx="3" cy="113" cx="20" fill="green"/>
   <ellipse id="TAG_svg_381" transform="matrix(1 0 0 1 532.002 329.111)" ry="3" rx="3" cy="113" cx="20" fill="green"/>
   <ellipse id="TAG_svg_382" transform="matrix(1 0 0 1 486.911 329.111)" ry="3" rx="3" cy="113" cx="20" fill="green"/>
   <ellipse id="TAG_svg_383" transform="matrix(1 0 0 1 592.82 378.566)" ry="3" rx="3" cy="113" cx="20" fill="green"/>
  </g>
  <g id="TAG_1_40_2">
   <ellipse id="TAG_svg_384" transform="matrix(1 0 0 1 592.366 329.111)" ry="3" rx="3" cy="113" cx="20" fill="green"/>
   <ellipse id="TAG_svg_385" transform="matrix(1 0 0 1 546.911 329.111)" ry="3" rx="3" cy="113" cx="20" fill="green"/>
   <ellipse id="TAG_svg_386" transform="matrix(1 0 0 1 502.184 329.111)" ry="3" rx="3" cy="113" cx="20" fill="green"/>
   <ellipse id="TAG_svg_387" transform="matrix(1 0 0 1 471.639 329.111)" ry="3" rx="3" cy="113" cx="20" fill="green"/>
   <ellipse id="TAG_svg_388" transform="matrix(1 0 0 1 638.184 329.111)" ry="3" rx="3" cy="113" cx="20" fill="green"/>
   <ellipse id="TAG_svg_389" transform="matrix(1 0 0 1 592.82 361.838)" ry="3" rx="3" cy="113" cx="20" fill="green"/>
  </g>
  <g id="TAG_1_37_1">
   <ellipse id="TAG_svg_390" transform="matrix(1 0 0 1 456.729 329.111)" ry="3" rx="3" cy="113" cx="20" fill="green"/>
   <ellipse id="TAG_svg_391" transform="matrix(1 0 0 1 607.275 329.111)" ry="3" rx="3" cy="113" cx="20" fill="green"/>
   <ellipse id="TAG_svg_392" transform="matrix(1 0 0 1 562.184 329.111)" ry="3" rx="3" cy="113" cx="20" fill="green"/>
   <ellipse id="TAG_svg_393" transform="matrix(1 0 0 1 517.093 329.111)" ry="3" rx="3" cy="113" cx="20" fill="green"/>
   <ellipse id="TAG_svg_394" transform="matrix(1 0 0 1 592.82 345.475)" ry="3" rx="3" cy="113" cx="20" fill="green"/>
  </g>
  <g id="TAG_1_37_2">
   <ellipse id="TAG_svg_395" transform="matrix(1 0 0 1 450.639 369.838)" ry="3" rx="3" cy="113" cx="20" fill="green"/>
   <ellipse id="TAG_svg_396" transform="matrix(1 0 0 1 450.639 356.02)" ry="3" rx="3" cy="113" cx="20" fill="green"/>
   <ellipse id="TAG_svg_397" transform="matrix(1 0 0 1 450.639 381.838)" ry="3" rx="3" cy="113" cx="20" fill="green"/>
   <ellipse id="TAG_svg_398" transform="matrix(1 0 0 1 450.639 344.02)" ry="3" rx="3" cy="113" cx="20" fill="green"/>
   <ellipse id="TAG_svg_399" transform="matrix(1, 0, 0, 1, 463.366, 344.02)" ry="3" rx="3" cy="113" cx="20" fill="green"/>
   <ellipse id="TAG_svg_400" transform="matrix(1, 0, 0, 1, 463.366, 356.02)" ry="3" rx="3" cy="113" cx="20" fill="green"/>
   <ellipse id="TAG_svg_401" transform="matrix(1, 0, 0, 1, 463.366, 369.838)" ry="3" rx="3" cy="113" cx="20" fill="green"/>
   <ellipse id="TAG_svg_402" transform="matrix(1, 0, 0, 1, 463.366, 381.838)" ry="3" rx="3" cy="113" cx="20" fill="green"/>
   <ellipse id="TAG_svg_403" transform="matrix(1, 0, 0, 1, 476.457, 344.02)" ry="3" rx="3" cy="113" cx="20" fill="green"/>
   <ellipse id="TAG_svg_404" transform="matrix(1, 0, 0, 1, 476.457, 356.02)" ry="3" rx="3" cy="113" cx="20" fill="green"/>
   <ellipse id="TAG_svg_405" transform="matrix(1, 0, 0, 1, 476.457, 369.838)" ry="3" rx="3" cy="113" cx="20" fill="green"/>
   <ellipse id="TAG_svg_406" transform="matrix(1, 0, 0, 1, 476.457, 381.838)" ry="3" rx="3" cy="113" cx="20" fill="green"/>
  </g>
  <g id="TAG_1_39_4">
   <ellipse id="TAG_svg_407" transform="matrix(1, 0, 0, 1, 497.548, 344.02)" ry="3" rx="3" cy="113" cx="20" fill="green"/>
   <ellipse id="TAG_svg_408" transform="matrix(1, 0, 0, 1, 497.548, 356.02)" ry="3" rx="3" cy="113" cx="20" fill="green"/>
   <ellipse id="TAG_svg_409" transform="matrix(1, 0, 0, 1, 497.548, 369.838)" ry="3" rx="3" cy="113" cx="20" fill="green"/>
   <ellipse id="TAG_svg_410" transform="matrix(1, 0, 0, 1, 497.548, 381.838)" ry="3" rx="3" cy="113" cx="20" fill="green"/>
  </g>
  <g id="TAG_1_36_1">
   <ellipse id="TAG_svg_411" transform="matrix(1, 0, 0, 1, 487.73, 344.02)" ry="3" rx="3" cy="113" cx="20" fill="green"/>
   <ellipse id="TAG_svg_412" transform="matrix(1, 0, 0, 1, 487.73, 356.02)" ry="3" rx="3" cy="113" cx="20" fill="green"/>
   <ellipse id="TAG_svg_413" transform="matrix(1, 0, 0, 1, 487.73, 369.838)" ry="3" rx="3" cy="113" cx="20" fill="green"/>
   <ellipse id="TAG_svg_414" transform="matrix(1, 0, 0, 1, 487.73, 381.838)" ry="3" rx="3" cy="113" cx="20" fill="green"/>
   <ellipse id="TAG_svg_415" transform="matrix(1, 0, 0, 1, 507.73, 344.02)" ry="3" rx="3" cy="113" cx="20" fill="green"/>
   <ellipse id="TAG_svg_416" transform="matrix(1, 0, 0, 1, 507.73, 356.02)" ry="3" rx="3" cy="113" cx="20" fill="green"/>
   <ellipse id="TAG_svg_417" transform="matrix(1, 0, 0, 1, 507.73, 369.838)" ry="3" rx="3" cy="113" cx="20" fill="green"/>
   <ellipse id="TAG_svg_418" transform="matrix(1, 0, 0, 1, 507.73, 381.838)" ry="3" rx="3" cy="113" cx="20" fill="green"/>
  </g>
  <g id="TAG_1_36_2">
   <ellipse id="TAG_svg_419" transform="matrix(1, 0, 0, 1, 622.73, 413.475)" ry="3" rx="3" cy="113" cx="20" fill="green"/>
   <ellipse id="TAG_svg_420" transform="matrix(1 0 0 1 581.639 325.838) translate(41.0909 113.455) translate(0 1) translate(0 1) translate(0 1) translate(0 1) translate(0 1) translate(0 -1)" ry="3" rx="3" cy="113" cx="20" fill="green"/>
   <ellipse id="TAG_svg_421" transform="matrix(1 0 0 1 581.639 337.838) translate(41.0909 113.455) translate(-20.3636 -7.63636)" ry="3" rx="3" cy="113" cx="20" fill="green"/>
  </g>
  <g id="TAG_1_40_1">
   <ellipse id="TAG_svg_422" transform="matrix(1, 0, 0, 1, 487.002, 397.838)" ry="3" rx="3" cy="113" cx="20" fill="green"/>
   <ellipse id="TAG_svg_423" transform="matrix(1, 0, 0, 1, 532.093, 397.838)" ry="3" rx="3" cy="113" cx="20" fill="green"/>
   <ellipse id="TAG_svg_424" transform="matrix(1, 0, 0, 1, 577.548, 397.838)" ry="3" rx="3" cy="113" cx="20" fill="green"/>
   <ellipse id="TAG_svg_425" transform="matrix(1, 0, 0, 1, 622.639, 397.838)" ry="3" rx="3" cy="113" cx="20" fill="green"/>
   <ellipse id="TAG_svg_426" transform="matrix(1 0 0 1 581.639 312.02) translate(41.0909 113.455) translate(0 1) translate(0 1) translate(0 1)" ry="3" rx="3" cy="113" cx="20" fill="green"/>
   <ellipse id="TAG_svg_427" transform="matrix(1, 0, 0, 1, 602.457, 428.839)" ry="3" rx="3" cy="113" cx="20" fill="green"/>
  </g>
  <g id="TAG_1_40_3">
   <rect id="TAG_svg_428" transform="matrix(1, 0, 0, 1, 386.243, 464.763)" height="13" width="5" y="71" x="84" fill="green"/>
   <rect id="TAG_svg_429" transform="matrix(1, 0, 0, 1, 404.91, 464.763)" height="13" width="5" y="71" x="84" fill="green"/>
  </g>
  <g id="TAG_1_37_3">
   <rect id="TAG_svg_430" transform="matrix(1, 0, 0, 1, 386.243, 449.014)" height="13" width="5" y="71" x="84" fill="green"/>
   <rect id="TAG_svg_431" transform="matrix(1, 0, 0, 1, 404.91, 449.014)" height="13" width="5" y="71" x="84" fill="green"/>
  </g>
  <g id="TAG_1_40_4">
   <rect id="TAG_svg_432" transform="matrix(1 0 0 1 423.243 464.015)" height="13" width="5" y="71" x="84" fill="green"/>
   <rect id="TAG_svg_433" transform="matrix(1, 0, 0, 1, 441.91, 464.015)" height="13" width="5" y="71" x="84" fill="green"/>
  </g>
  <g id="TAG_1_37_4">
   <rect id="TAG_svg_434" transform="matrix(1 0 0 1 423.243 448.681)" height="13" width="5" y="71" x="84" fill="green"/>
   <rect id="TAG_svg_435" transform="matrix(1 0 0 1 423.243 479.348)" height="13" width="5" y="71" x="84" fill="green"/>
   <rect id="TAG_svg_436" transform="matrix(1, 0, 0, 1, 441.91, 479.348)" height="13" width="5" y="71" x="84" fill="green"/>
   <rect id="TAG_svg_437" transform="matrix(1, 0, 0, 1, 441.91, 448.681)" height="13" width="5" y="71" x="84" fill="green"/>
  </g>
  <g id="TAG_1_38_2">
   <rect id="TAG_svg_438" transform="matrix(1, 0, 0, 1, 460.576, 479.348)" height="13" width="5" y="71" x="84" fill="green"/>
   <rect id="TAG_svg_439" transform="matrix(1, 0, 0, 1, 479.243, 479.348)" height="13" width="5" y="71" x="84" fill="green"/>
   <rect id="TAG_svg_440" transform="matrix(1, 0, 0, 1, 498.243, 479.348)" height="13" width="5" y="71" x="84" fill="green"/>
   <rect id="TAG_svg_441" transform="matrix(1, 0, 0, 1, 516.576, 479.348)" height="13" width="5" y="71" x="84" fill="green"/>
  </g>
  <g id="TAG_1_41_1">
   <rect id="TAG_svg_442" transform="matrix(1, 0, 0, 1, 460.576, 464.015)" height="13" width="5" y="71" x="84" fill="green"/>
   <rect id="TAG_svg_443" transform="matrix(1, 0, 0, 1, 479.243, 464.015)" height="13" width="5" y="71" x="84" fill="green"/>
   <rect id="TAG_svg_444" transform="matrix(1, 0, 0, 1, 498.243, 464.015)" height="13" width="5" y="71" x="84" fill="green"/>
   <rect id="TAG_svg_445" transform="matrix(1, 0, 0, 1, 516.576, 464.015)" height="13" width="5" y="71" x="84" fill="green"/>
  </g>
  <g id="TAG_1_38_1">
   <rect id="TAG_svg_446" transform="matrix(1, 0, 0, 1, 460.576, 448.681)" height="13" width="5" y="71" x="84" fill="green"/>
   <rect id="TAG_svg_447" transform="matrix(1, 0, 0, 1, 479.243, 448.681)" height="13" width="5" y="71" x="84" fill="green"/>
   <rect id="TAG_svg_448" transform="matrix(1, 0, 0, 1, 498.243, 448.681)" height="13" width="5" y="71" x="84" fill="green"/>
   <rect id="TAG_svg_449" transform="matrix(1, 0, 0, 1, 516.576, 448.681)" height="13" width="5" y="71" x="84" fill="green"/>
   <rect id="TAG_svg_450" transform="matrix(1, 0, 0, 1, 535.909, 449.096)" height="13" width="5" y="71" x="84" fill="green"/>
  </g>
  <g id="TAG_1_38_4">
   <rect id="TAG_svg_451" transform="matrix(1 0 0 1 571.91 479.125)" height="13" width="5" y="71" x="84" fill="green"/>
   <rect id="TAG_svg_452" transform="matrix(1, 0, 0, 1, 571.909, 494.181)" height="13" width="5" y="71" x="84" fill="green"/>
   <rect id="TAG_svg_453" transform="matrix(1, 0, 0, 1, 588.91, 479.125)" height="13" width="5" y="71" x="84" fill="green"/>
  </g>
  <g id="TAG_1_41_2">
   <rect id="TAG_svg_454" transform="matrix(1 0 0 1 571.91 464.07)" height="13" width="5" y="71" x="84" fill="green"/>
   <rect id="TAG_svg_455" transform="matrix(1, 0, 0, 1, 588.91, 464.07)" height="13" width="5" y="71" x="84" fill="green"/>
  </g>
  <g id="TAG_1_38_3">
   <rect id="TAG_svg_456" transform="matrix(1 0 0 1 571.91 449.014)" height="13" width="5" y="71" x="84" fill="green"/>
   <rect id="TAG_svg_457" transform="matrix(1, 0, 0, 1, 588.91, 449.014)" height="13" width="5" y="71" x="84" fill="green"/>
  </g>
  <g id="TAG_1_41_3">
   <rect id="TAG_svg_458" transform="matrix(1 0 0 1 608.41 448.57)" height="13" width="5" y="71" x="84" fill="green"/>
   <rect id="TAG_svg_459" transform="matrix(1, 0, 0, 1, 623.41, 448.57)" height="13" width="5" y="71" x="84" fill="green"/>
  </g>
  <g id="TAG_1_39_1">
   <rect id="TAG_svg_460" transform="matrix(1 0 0 1 481.91 367.43) translate(-20.6667 119.333) translate(162.333 -37.6667) translate(14.6667 -16)" height="13" width="5" y="71" x="84" fill="green"/>
   <rect id="TAG_svg_461" transform="matrix(1 0 0 1 573.91 413.125) translate(34.5 50) translate(0 1)" height="13" width="5" y="71" x="84" fill="green"/>
   <rect id="TAG_svg_462" transform="matrix(1 0 0 1 608.41 433.014)" height="13" width="5" y="71" x="84" fill="green"/>
   <rect id="TAG_svg_463" transform="matrix(1, 0, 0, 1, 623.41, 433.014)" height="13" width="5" y="71" x="84" fill="green"/>
  </g>
  <g id="TAG_1_35_4">
   <rect id="TAG_svg_464" transform="matrix(1 0 0 1 573.91 413.125) translate(11.5 -2.75) translate(0 1) translate(0 1) translate(0 1) translate(0 1) translate(0 1) translate(0 1) translate(0 -1)" height="13" width="5" y="71" x="84" fill="green"/>
   <rect id="TAG_svg_465" transform="matrix(1, 0, 0, 1, 585.41, 397.32)" height="13" width="5" y="71" x="84" fill="green"/>
   <rect id="TAG_svg_466" transform="matrix(1 0 0 1 585.41 380.264)" height="13" width="5" y="71" x="84" fill="green"/>
   <rect id="TAG_svg_467" transform="matrix(1, 0, 0, 1, 608.41, 415.375)" height="13" width="5" y="71" x="84" fill="green"/>
   <rect id="TAG_svg_468" transform="matrix(1, 0, 0, 1, 608.41, 397.32)" height="13" width="5" y="71" x="84" fill="green"/>
   <rect id="TAG_svg_469" transform="matrix(1, 0, 0, 1, 608.41, 380.264)" height="13" width="5" y="71" x="84" fill="green"/>
  </g>
  <g id="TAG_1_39_3">
   <rect id="TAG_svg_470" transform="rotate(1, 714.91, 492.875) matrix(1, 0, 0, 1, 574.41, 415.375) rotate(1, 86.5, 59.9445) rotate(-1, 86.5, 59.9445) rotate(-1, 86.5, 59.9445) translate(10) translate(10) translate(10) translate(10) translate(10) translate(10) translate(10) translate(10) translate(10) translate(-10) translate(-10) translate(-10) translate(-1) translate(-1) translate(-1) translate(-1) translate(-1) translate(-1)" height="13" width="5" y="71" x="84" fill="green"/>
   <rect id="TAG_svg_471" transform="rotate(1, 714.91, 474.82) matrix(1, 0, 0, 1, 574.41, 397.32) rotate(1, 86.5, 77.9995) rotate(-1, 86.5, 77.9995) rotate(-1, 86.5, 77.9995) translate(10) translate(10) translate(10) translate(10) translate(10) translate(10) translate(10) translate(10) translate(10) translate(-10) translate(-10) translate(-10) translate(-1) translate(-1) translate(-1) translate(-1) translate(-1) translate(-1)" height="13" width="5" y="71" x="84" fill="green"/>
   <rect id="TAG_svg_472" transform="rotate(1, 714.91, 457.764) matrix(1, 0, 0, 1, 574.41, 380.264) rotate(1, 86.5, 95.0555) rotate(-1, 86.5, 95.0555) rotate(-1, 86.5, 95.0555) translate(10) translate(10) translate(10) translate(10) translate(10) translate(10) translate(10) translate(10) translate(10) translate(-10) translate(-10) translate(-10) translate(-1) translate(-1) translate(-1) translate(-1) translate(-1) translate(-1)" height="13" width="5" y="71" x="84" fill="green"/>
  </g>
  <g id="TAG_1_35_3">
   <rect id="TAG_svg_473" transform="matrix(1 0 0 1 574.41 397.32) translate(10 0) translate(10 0) translate(10 0) translate(10 0) translate(10 0) translate(10 0) translate(10 0) translate(10 0) translate(10 0) translate(10 0) translate(10 0) translate(10 0) translate(10 0) translate(10 0) translate(-1 0) translate(-10 0) translate(-10 0) translate(-10 0) translate(-10 0) translate(-10 0) translate(-1 0) translate(-1 0) translate(-1 0) translate(-1 0) translate(-1 0) translate(-1 0) translate(-1 0) translate(-1 0) translate(-1 0) translate(-1 0) translate(-1 0) translate(-1 0) translate(-1 0) translate(-1 0) translate(-1 0)" height="13" width="5" y="71" x="84" fill="green"/>
   <rect id="TAG_svg_474" transform="matrix(1 0 0 1 574.41 380.264) translate(10 0) translate(10 0) translate(10 0) translate(10 0) translate(10 0) translate(10 0) translate(10 0) translate(10 0) translate(10 0) translate(10 0) translate(10 0) translate(10 0) translate(10 0) translate(10 0) translate(-1 0) translate(-10 0) translate(-10 0) translate(-10 0) translate(-10 0) translate(-10 0) translate(-1 0) translate(-1 0) translate(-1 0) translate(-1 0) translate(-1 0) translate(-1 0) translate(-1 0) translate(-1 0) translate(-1 0) translate(-1 0) translate(-1 0) translate(-1 0) translate(-1 0) translate(-1 0) translate(-1 0)" height="13" width="5" y="71" x="84" fill="green"/>
  </g>
  <g id="TAG_1_35_2">
   <rect id="TAG_svg_475" transform="matrix(1 0 0 1 608.273 361.181)" height="13" width="5" y="71" x="84" fill="green"/>
   <rect id="TAG_svg_476" transform="matrix(1 0 0 1 608.274 344.792)" height="13" width="5" y="71" x="84" fill="green"/>
   <rect id="TAG_svg_477" transform="matrix(1 0 0 1 608.274 328.403)" height="13" width="5" y="71" x="84" fill="green"/>
   <rect id="TAG_svg_478" transform="matrix(1, 0, 0, 1, 648.091, 361.181)" height="13" width="5" y="71" x="84" fill="green"/>
   <rect id="TAG_svg_479" transform="matrix(1, 0, 0, 1, 648.092, 344.792)" height="13" width="5" y="71" x="84" fill="green"/>
   <rect id="TAG_svg_480" transform="matrix(1, 0, 0, 1, 648.092, 328.403)" height="13" width="5" y="71" x="84" fill="green"/>
  </g>
  <g id="TAG_1_39_2">
   <rect id="TAG_svg_481" transform="matrix(1, 0, 0, 1, 627.909, 361.181)" height="13" width="5" y="71" x="84" fill="green"/>
   <rect id="TAG_svg_482" transform="matrix(1, 0, 0, 1, 627.91, 344.792)" height="13" width="5" y="71" x="84" fill="green"/>
   <rect id="TAG_svg_483" transform="matrix(1, 0, 0, 1, 627.91, 328.403)" height="13" width="5" y="71" x="84" fill="green"/>
  </g>
  <g id="TAG_1_35_1">
   <rect id="TAG_svg_484" transform="matrix(1, 0, 0, 1, 608.274, 312.014)" height="13" width="5" y="71" x="84" fill="green"/>
   <rect id="TAG_svg_485" transform="matrix(1, 0, 0, 1, 648.092, 312.014)" height="13" width="5" y="71" x="84" fill="green"/>
   <rect id="TAG_svg_486" transform="matrix(1, 0, 0, 1, 627.91, 312.014)" height="13" width="5" y="71" x="84" fill="green"/>
  </g>
  <g id="TAG_1_30_1">
   <ellipse id="TAG_svg_487" ry="3" rx="3" cy="175" cx="75" fill="green"/>
   <ellipse id="TAG_svg_488" ry="3" rx="3" cy="215" cx="75" fill="green"/>
  </g>
  <g id="TAG_1_30_3">
   <ellipse id="TAG_svg_489" ry="3" rx="3" cy="185" cx="551" fill="green"/>
   <ellipse id="TAG_svg_490" ry="3" rx="3" cy="225" cx="551" fill="green"/>
  </g>
  <text id="TAG_svg_491" font-size="15px" font-weight="bold" y="15" x="10">3</text>
 </g>
</svg>