<svg width="780" height="600" xmlns="http://www.w3.org/2000/svg" xmlns:svg="http://www.w3.org/2000/svg" xmlns:xlink="http://www.w3.org/1999/xlink">
 <g>
  <title>Layer 1</title>
  <image xlink:href="appPasteur/modules/others/lighting/point-monitor/svg/F04.png" id="TAG_svg_back" height="600" width="780" y="0" x="0"/>
 </g>
 <g>
  <title>Layer 1</title>
  <g id="TAG_2_12_2">
   <rect id="TAG_svg_1" transform="matrix(1 0 0 1 128.333 134.583) translate(-109.333 -2.66667) translate(0 1) translate(0 1) translate(0 1) translate(0 1) translate(0 1) translate(-3.2 3.2) translate(-1 0) translate(-1 0) translate(-1 0) translate(-1 0) translate(-1 0) translate(0 -1) translate(0 -1) translate(0 -1)" height="13" width="5" y="71" x="84" fill="green"/>
   <rect id="TAG_svg_2" transform="matrix(1 0 0 1 19 120.167) translate(-3.2 3.2) translate(-1 0) translate(-1 0) translate(-1 0) translate(-1 0) translate(-1 0) translate(0 -1) translate(0 -1) translate(0 -1)" height="13" width="5" y="71" x="84" fill="green"/>
   <rect id="TAG_svg_3" transform="matrix(1 0 0 1 19 103.416) translate(-3.2 3.2) translate(-1 0) translate(-1 0) translate(-1 0) translate(-1 0) translate(-1 0) translate(0 -1) translate(0 -1) translate(0 -1)" height="13" width="5" y="71" x="84" fill="green"/>
   <rect id="TAG_svg_4" transform="matrix(1 0 0 1 -115 1.66633) translate(-3.2 3.2) translate(-1 0) translate(-1 0) translate(-1 0) translate(-1 0) translate(-1 0) translate(0 -1) translate(0 -1)" height="13" width="5" y="156" x="218" fill="green"/>
  </g>
  <g id="TAG_2_9_2">
   <rect id="TAG_svg_5" transform="matrix(1 0 0 1 92.3949 -86.4818)" height="5" width="14" y="116" x="167" fill="green"/>
   <rect id="TAG_svg_6" transform="matrix(1 0 0 1 107.422 -86.4818)" height="5" width="14" y="116" x="167" fill="green"/>
   <rect id="TAG_svg_7" transform="matrix(1 0 0 1 122.45 -86.4818)" height="5" width="14" y="116" x="167" fill="green"/>
   <rect id="TAG_svg_8" transform="matrix(1 0 0 1 137.477 -86.4818)" height="5" width="14" y="116" x="167" fill="green"/>
  </g>
  <g id="TAG_2_10_4">
   <rect id="TAG_svg_9" transform="matrix(1 0 0 1 152.505 -86.4818)" height="5" width="14" y="116" x="167" fill="green"/>
   <rect id="TAG_svg_10" transform="matrix(1 0 0 1 167.532 -86.4818)" height="5" width="14" y="116" x="167" fill="green"/>
   <rect id="TAG_svg_11" transform="matrix(1 0 0 1 182.56 -86.4818)" height="5" width="14" y="116" x="167" fill="green"/>
   <rect id="TAG_svg_12" transform="matrix(1 0 0 1 197.587 -86.4818)" height="5" width="14" y="116" x="167" fill="green"/>
  </g>
  <g id="TAG_2_11_2">
   <rect id="TAG_svg_13" transform="matrix(1 0 0 1 212.615 -86.4818)" height="5" width="14" y="116" x="167" fill="green"/>
   <rect id="TAG_svg_14" transform="matrix(1 0 0 1 227.642 -86.4818)" height="5" width="14" y="116" x="167" fill="green"/>
   <rect id="TAG_svg_15" transform="matrix(1 0 0 1 242.67 -86.4818)" height="5" width="14" y="116" x="167" fill="green"/>
  </g>
  <g id="TAG_2_1_4">
   <ellipse id="TAG_svg_16" transform="matrix(1, 0, 0, 1, 16.4566, 17.3818)" ry="3" rx="3" cy="113" cx="20" fill="green"/>
   <ellipse id="TAG_svg_17" transform="matrix(1 0 0 1 43.6566 8.1818) translate(-9.09091 6) translate(-3.2 3.2)" ry="3" rx="3" cy="113" cx="20" fill="green"/>
   <ellipse id="TAG_svg_18" transform="matrix(1 0 0 1 43.6566 8.1818) translate(6.18182 6.18182) translate(-3.2 3.2)" ry="3" rx="3" cy="113" cx="20" fill="green"/>
   <ellipse id="TAG_svg_19" transform="matrix(1 0 0 1 43.6566 8.1818) translate(22 6) translate(-3.2 3.2)" ry="3" rx="3" cy="113" cx="20" fill="green"/>
   <ellipse id="TAG_svg_20" transform="matrix(1, 0, 0, 1, 16.4566, 0.71515)" ry="3" rx="3" cy="113" cx="20" fill="green"/>
   <ellipse id="TAG_svg_21" transform="matrix(1 0 0 1 43.6566 -8.48485) translate(-9.09091 6) translate(-3.2 3.2)" ry="3" rx="3" cy="113" cx="20" fill="green"/>
   <ellipse id="TAG_svg_22" transform="matrix(1 0 0 1 43.6566 -8.48485) translate(6.18182 6.18182) translate(-3.2 3.2)" ry="3" rx="3" cy="113" cx="20" fill="green"/>
   <ellipse id="TAG_svg_23" transform="matrix(1 0 0 1 43.6566 -8.48485) translate(22 6) translate(-3.2 3.2)" ry="3" rx="3" cy="113" cx="20" fill="green"/>
  </g>
  <g id="TAG_2_16_1">
   <ellipse id="TAG_svg_24" transform="matrix(1 0 0 1 176.444 9) translate(-157.333 33.3333) translate(18 4.72727) translate(-17.4545 -4.54545) translate(0 1) translate(0 1) translate(0 1) translate(0 1) translate(0 1) translate(-3.2 3.2)" ry="3" rx="3" cy="113" cx="20" fill="green"/>
   <ellipse id="TAG_svg_25" transform="matrix(1 0 0 1 43.6565 41.5151) translate(-9.09091 6) translate(-3.2 3.2)" ry="3" rx="3" cy="113" cx="20" fill="green"/>
   <ellipse id="TAG_svg_26" transform="matrix(1 0 0 1 43.6565 41.5151) translate(6.18182 6.18182) translate(-3.2 3.2)" ry="3" rx="3" cy="113" cx="20" fill="green"/>
   <ellipse id="TAG_svg_27" transform="matrix(1 0 0 1 43.6565 41.5151) translate(22 6) translate(-3.2 3.2)" ry="3" rx="3" cy="113" cx="20" fill="green"/>
   <ellipse id="TAG_svg_28" transform="matrix(1, 0, 0, 1, 16.4566, 34.0485)" ry="3" rx="3" cy="113" cx="20" fill="green"/>
   <ellipse id="TAG_svg_29" transform="matrix(1 0 0 1 43.6566 24.8485) translate(-9.09091 6) translate(-3.2 3.2)" ry="3" rx="3" cy="113" cx="20" fill="green"/>
   <ellipse id="TAG_svg_30" transform="matrix(1 0 0 1 43.6566 24.8485) translate(6.18182 6.18182) translate(-3.2 3.2)" ry="3" rx="3" cy="113" cx="20" fill="green"/>
   <ellipse id="TAG_svg_31" transform="matrix(1 0 0 1 43.6566 24.8485) translate(22 6) translate(-3.2 3.2)" ry="3" rx="3" cy="113" cx="20" fill="green"/>
  </g>
  <g id="TAG_2_15_3">
   <ellipse id="TAG_svg_32" transform="matrix(1 0 0 1 67.6565 35.5151) translate(-39.4286 52.5714) translate(0 1) translate(0 1) translate(0 1) translate(0 1) translate(0 1) translate(0 1) translate(0 1) translate(0 1) translate(0 1) translate(0 1) translate(0 -1) translate(-3.2 3.2)" ry="3" rx="3" cy="113" cx="20" fill="green"/>
   <ellipse id="TAG_svg_33" transform="matrix(1 0 0 1 67.6566 18.8485) translate(-39.4286 52.5714) translate(-3.2 3.2)" ry="3" rx="3" cy="113" cx="20" fill="green"/>
  </g>
  <g id="TAG_2_2_1">
   <rect id="TAG_svg_34" transform="matrix(1 0 0 1 84.333 48.5833) translate(-31.4286 3.42857) translate(0 1) translate(0 -0.857143) translate(-3.2 3.2) translate(0 -1) translate(0 -1) translate(1 0) translate(0 1) translate(-1 0) translate(-1 0) translate(0 -1)" height="13" width="5" y="71" x="84" fill="green"/>
   <rect id="TAG_svg_35" transform="matrix(1 0 0 1 84.3333 33.5) translate(-31.4286 3.42857) translate(-3.2 3.2) translate(0 -1) translate(0 -1) translate(1 0) translate(0 1) translate(-1 0) translate(-1 0) translate(0 -1) translate(0 1) translate(0 -1)" height="13" width="5" y="71" x="84" fill="green"/>
  </g>
  <g id="TAG_2_11_4">
   <rect id="TAG_svg_36" transform="matrix(1 0 0 1 84.333 48.5833) translate(-73.1429 6.28571) translate(0 1) translate(0 1) translate(0 1) translate(0 1) translate(0 1) translate(0 1) translate(0 1) translate(0 1) translate(0 1) translate(0 1) translate(0 1) translate(-3.2 3.2) translate(0 -1) translate(0 -1) translate(1 0)" height="13" width="5" y="71" x="84" fill="green"/>
   <rect id="TAG_svg_37" transform="matrix(1 0 0 1 84.3333 33.5) translate(-73.1429 6.28571) translate(-3.2 3.2) translate(0 -1) translate(0 -1) translate(1 0) translate(0 0)" height="13" width="5" y="71" x="84" fill="green"/>
  </g>
  <g id="TAG_2_16_3">
   <rect id="TAG_svg_38" transform="matrix(1 0 0 1 69.333 55.5833) translate(-39.4286 11.1429) translate(0 1) translate(-3.2 3.2) translate(0 -1) translate(0 -1) translate(1 0) translate(0 1) translate(1 0) translate(0 -1)" height="13" width="5" y="71" x="84" fill="green"/>
   <rect id="TAG_svg_39" transform="matrix(1 0 0 1 29.9047 52.1429) translate(-3.2 3.2) translate(0 -1) translate(0 -1) translate(1 0) translate(0 1) translate(1 0) translate(0 -1)" height="13" width="5" y="71" x="84" fill="green"/>
   <rect id="TAG_svg_40" transform="matrix(1 0 0 1 29.9047 36.5596) translate(-3.2 3.2) translate(0 -1) translate(0 -1) translate(1 0) translate(0 1) translate(1 0) translate(0 -1) translate(0 1)" height="13" width="5" y="71" x="84" fill="green"/>
  </g>
  <g id="TAG_2_13_4">
   <rect id="TAG_svg_41" transform="matrix(1, 0, 0, 1, 35.7808, 146.965)" height="5" width="14" y="82" x="54" fill="green"/>
   <rect id="TAG_svg_42" transform="matrix(1 0 0 1 -63.1737 112.965)" height="5" width="14" y="116" x="168" fill="green"/>
   <rect id="TAG_svg_43" transform="matrix(1 0 0 1 -47.1282 112.965)" height="5" width="14" y="116" x="167" fill="green"/>
  </g>
  <g id="TAG_2_14_2">
   <rect id="TAG_svg_44" transform="matrix(1 0 0 1 -32.0827 112.965)" height="5" width="14" y="116" x="167" fill="green"/>
   <rect id="TAG_svg_45" transform="matrix(1 0 0 1 -17.0372 112.965)" height="5" width="14" y="116" x="167" fill="green"/>
   <rect id="TAG_svg_46" transform="matrix(1 0 0 1 -1.99174 112.965)" height="5" width="14" y="116" x="167" fill="green"/>
   <rect id="TAG_svg_47" transform="matrix(1 0 0 1 13.0538 112.965)" height="5" width="14" y="116" x="167" fill="green"/>
  </g>
  <g id="TAG_2_15_4">
   <rect id="TAG_svg_48" transform="matrix(1 0 0 1 28.0992 112.965)" height="5" width="14" y="116" x="167" fill="green"/>
   <rect id="TAG_svg_49" transform="matrix(1 0 0 1 43.1447 112.965)" height="5" width="14" y="116" x="167" fill="green"/>
   <rect id="TAG_svg_50" transform="matrix(1 0 0 1 58.1902 112.965)" height="5" width="14" y="116" x="167" fill="green"/>
   <rect id="TAG_svg_51" transform="matrix(1 0 0 1 73.2357 112.965)" height="5" width="14" y="116" x="167" fill="green"/>
  </g>
  <g id="TAG_2_16_2">
   <rect id="TAG_svg_52" transform="matrix(1 0 0 1 88.2812 112.965)" height="5" width="14" y="116" x="167" fill="green"/>
   <rect id="TAG_svg_53" transform="matrix(1 0 0 1 103.327 112.965)" height="5" width="14" y="116" x="167" fill="green"/>
   <rect id="TAG_svg_54" transform="matrix(1 0 0 1 118.372 112.965)" height="5" width="14" y="116" x="167" fill="green"/>
  </g>
  <g id="TAG_2_18_4">
   <rect id="TAG_svg_55" transform="matrix(1 0 0 1 133.418 112.965)" height="5" width="14" y="116" x="167" fill="green"/>
   <rect id="TAG_svg_56" transform="matrix(1 0 0 1 148.463 112.965)" height="5" width="14" y="116" x="167" fill="green"/>
   <rect id="TAG_svg_57" transform="matrix(1 0 0 1 163.509 112.965)" height="5" width="14" y="116" x="167" fill="green"/>
   <rect id="TAG_svg_58" transform="matrix(1 0 0 1 178.554 112.965)" height="5" width="14" y="116" x="167" fill="green"/>
  </g>
  <g id="TAG_2_19_2">
   <rect id="TAG_svg_59" transform="matrix(1 0 0 1 296.277 119.889) translate(56.6667 33.7778) translate(0 -1) translate(0 -1) translate(0 -1) translate(0 -1) translate(-3.2 3.2) translate(1 0) translate(1 0) translate(1 0) translate(0 -1) translate(0 -1) translate(0 1)" height="13" width="5" y="71" x="84" fill="green"/>
   <rect id="TAG_svg_60" transform="matrix(1 0 0 1 296.277 98.743) translate(56.6667 33.7778) translate(0 -1) translate(0 -1) translate(-3.2 3.2) translate(1 0) translate(1 0) translate(1 0) translate(0 -1) translate(0 -1) translate(0 1)" height="13" width="5" y="71" x="84" fill="green"/>
   <rect id="TAG_svg_61" transform="matrix(1 0 0 1 162.277 -7.4029) translate(56.6667 33.7778) translate(-3.2 3.2) translate(1 0) translate(1 0) translate(1 0) translate(0 -1) translate(0 -1) translate(0 1)" height="13" width="5" y="156" x="218" fill="green"/>
  </g>
  <g id="TAG_2_6_4">
   <ellipse id="TAG_svg_62" transform="matrix(1 0 0 1 522.044 -81.2329) translate(1 0) translate(-3.2 3.2) translate(1 0) translate(1 0) translate(0 -1) translate(0 -1) translate(-1 0)" ry="3" rx="3" cy="113" cx="20" fill="green"/>
   <ellipse id="TAG_svg_63" transform="matrix(1 0 0 1 522.044 -66.2329) translate(1 0) translate(-3.2 3.2) translate(1 0) translate(1 0) translate(0 -1) translate(0 -1) translate(-1 0) translate(-1 0) translate(0 1) translate(0 -1) translate(1 0)" ry="3" rx="3" cy="113" cx="20" fill="green"/>
   <ellipse id="TAG_svg_64" transform="matrix(1 0 0 1 479.044 -34.2329) translate(43.7778 -16.8889) translate(-3.2 3.2) translate(1 0) translate(1 0) translate(0 -1) translate(0 -1) translate(-1 0) translate(0 1)" ry="3" rx="3" cy="113" cx="20" fill="green"/>
   <ellipse id="TAG_svg_65" transform="matrix(1 0 0 1 479.044 -34.2329) translate(44 -1.33333) translate(-3.2 3.2) translate(1 0) translate(1 0) translate(0 -1) translate(0 -1) translate(-1 0) translate(0 1) translate(0 1)" ry="3" rx="3" cy="113" cx="20" fill="green"/>
  </g>
  <g id="TAG_2_13_1">
   <ellipse id="TAG_svg_66" transform="matrix(1 0 0 1 478.624 -34.344) translate(25.7778 -27.7778) translate(5.11111 -19.1111) translate(-1 0) translate(0 0) translate(1 0) translate(-3.2 3.2) translate(1 0) translate(1 0) translate(0 -1) translate(0 -1) translate(-1 0) translate(1 0)" ry="3" rx="3" cy="113" cx="20" fill="green"/>
   <ellipse id="TAG_svg_67" transform="matrix(1 0 0 1 535.575 -81.2329) translate(-3.2 3.2) translate(1 0) translate(1 0) translate(0 -1) translate(0 -1) translate(-1 0)" ry="3" rx="3" cy="113" cx="20" fill="green"/>
   <ellipse id="TAG_svg_68" transform="matrix(1 0 0 1 508.513 -66.2329) translate(-3.2 3.2) translate(1 0) translate(1 0) translate(0 -1) translate(0 -1) translate(-1 0) translate(1 0) translate(1 0)" ry="3" rx="3" cy="113" cx="20" fill="green"/>
   <ellipse id="TAG_svg_69" transform="matrix(1 0 0 1 491.575 -34.2329) translate(44 -32) translate(-3.2 3.2) translate(1 0) translate(1 0) translate(0 -1) translate(0 -1) translate(-1 0)" ry="3" rx="3" cy="113" cx="20" fill="green"/>
   <ellipse id="TAG_svg_70" transform="matrix(1 0 0 1 464.513 -34.2329) translate(43.7778 -16.8889) translate(-3.2 3.2) translate(1 0) translate(1 0) translate(0 -1) translate(0 -1) translate(-1 0) translate(1 0) translate(1 0) translate(0 1)" ry="3" rx="3" cy="113" cx="20" fill="green"/>
   <ellipse id="TAG_svg_71" transform="matrix(1 0 0 1 491.575 -34.2329) translate(43.7778 -16.8889) translate(-3.2 3.2) translate(1 0) translate(1 0) translate(0 -1) translate(0 -1) translate(-1 0) translate(0 1)" ry="3" rx="3" cy="113" cx="20" fill="green"/>
   <ellipse id="TAG_svg_72" transform="matrix(1 0 0 1 464.513 -34.2329) translate(44 -1.33333) translate(-3.2 3.2) translate(1 0) translate(1 0) translate(0 -1) translate(0 -1) translate(-1 0) translate(0 1) translate(0 1) translate(1 0) translate(1 0)" ry="3" rx="3" cy="113" cx="20" fill="green"/>
   <ellipse id="TAG_svg_73" transform="matrix(1 0 0 1 491.575 -34.2329) translate(44 -1.33333) translate(-3.2 3.2) translate(1 0) translate(1 0) translate(0 -1) translate(0 -1) translate(-1 0) translate(0 1) translate(0 1)" ry="3" rx="3" cy="113" cx="20" fill="green"/>
  </g>
  <g id="TAG_2_6_3">
   <rect id="TAG_svg_74" transform="matrix(1 0 0 1 407.482 3.3119) translate(-3.2 3.2) translate(0 -1) translate(0 -1) translate(1 0) translate(1 0) translate(1 0) translate(1 0) translate(0 1) translate(1 0) translate(1 0) translate(-1 0) translate(-1 0) translate(1 0) translate(1 0) translate(-1 0) translate(1 0)" height="13" width="5" y="71" x="84" fill="green"/>
  </g>
  <g id="TAG_2_7_1">
   <rect id="TAG_svg_75" transform="matrix(1 0 0 1 411.916 18) translate(72.8889 -27.3333) translate(0 1) translate(0 1) translate(0 1) translate(0 1) translate(0 1) translate(0 1) translate(0 1) translate(0 1) translate(0 1) translate(0 1) translate(0 1) translate(0 1) translate(0 1) translate(0 1) translate(0 -1) translate(-3.2 3.2) translate(1 0) translate(1 0) translate(1 0) translate(-1 0) translate(-1 0) translate(-1 0) translate(-1 0) translate(1 0) translate(1 0) translate(1 0) translate(0 -1) translate(0 -1) translate(0 -1) translate(0 1) translate(-1 0)" height="13" width="5" y="71" x="84" fill="green"/>
   <rect id="TAG_svg_76" transform="matrix(1 0 0 1 411.805 23.6667) translate(84 -19.7778) translate(-3.2 3.2) translate(1 0) translate(1 0) translate(1 0) translate(-1 0) translate(-1 0) translate(-1 0) translate(-1 0) translate(1 0) translate(1 0) translate(1 0) translate(0 -1) translate(0 -1) translate(0 -1) translate(0 1) translate(-1 0) translate(1 0)" height="13" width="5" y="71" x="84" fill="green"/>
  </g>
  <g id="TAG_2_19_1">
   <rect id="TAG_svg_77" transform="matrix(1 0 0 1 484.805 -19.4168) translate(-3.2 3.2) translate(1 0) translate(1 0) translate(1 0) translate(-1 0) translate(-1 0) translate(-1 0) translate(-1 0) translate(1 0) translate(1 0) translate(1 0) translate(0 -1) translate(0 -1) translate(0 -1) translate(0 1) translate(-1 0)" height="13" width="5" y="71" x="84" fill="green"/>
   <rect id="TAG_svg_78" transform="matrix(1 0 0 1 411.805 0.5832) translate(84 -19.7778) translate(-3.2 3.2) translate(1 0) translate(1 0) translate(0 -1) translate(0 -1) translate(0 -1) translate(0 1) translate(-1 0) translate(1 0)" height="13" width="5" y="71" x="84" fill="green"/>
  </g>
  <g id="TAG_2_23_4">
   <rect id="TAG_svg_79" transform="matrix(1 0 0 1 350.805 -127.5) translate(-3.2 3.2) translate(1 0) translate(1 0) translate(1 0) translate(-1 0) translate(-1 0) translate(-1 0) translate(-1 0) translate(1 0) translate(1 0) translate(1 0) translate(0 -1) translate(0 -1) translate(0 -1) translate(0 1) translate(-1 0) translate(0 0)" height="13" width="5" y="156" x="218" fill="green"/>
   <rect id="TAG_svg_80" transform="matrix(1 0 0 1 277.805 -107.5) translate(84 -19.7778) translate(-3.2 3.2) translate(1 0) translate(1 0) translate(1 0) translate(-1 0) translate(-1 0) translate(-1 0) translate(-1 0) translate(1 0) translate(1 0) translate(1 0) translate(0 -1) translate(0 -1) translate(0 -1) translate(0 1) translate(-1 0) translate(1 0)" height="13" width="5" y="156" x="218" fill="green"/>
  </g>
  <g id="TAG_2_5_2">
   <ellipse id="TAG_svg_81" transform="matrix(1 0 0 1 460.971 52.656) translate(-3.2 3.2) translate(1 0) translate(-1 0) translate(1 0) translate(1 0) translate(1 0) translate(1 0)" ry="3" rx="3" cy="113" cx="20" fill="green"/>
   <ellipse id="TAG_svg_82" transform="matrix(1 0 0 1 491.123 52.656) translate(-3.2 3.2) translate(1 0) translate(-1 0) translate(1 0) translate(1 0) translate(1 0) translate(1 0)" ry="3" rx="3" cy="113" cx="20" fill="green"/>
   <ellipse id="TAG_svg_83" transform="matrix(1 0 0 1 521.276 52.656) translate(-3.2 3.2) translate(1 0) translate(-1 0) translate(1 0) translate(1 0) translate(1 0) translate(1 0)" ry="3" rx="3" cy="113" cx="20" fill="green"/>
   <ellipse id="TAG_svg_84" transform="matrix(1 0 0 1 466.047 25.656) translate(10.3333 57) translate(-3.2 3.2) translate(1 0) translate(-1 0) translate(1 0) translate(1 0) translate(1 0) translate(1 0) translate(0 -1)" ry="3" rx="3" cy="113" cx="20" fill="green"/>
   <ellipse id="TAG_svg_85" transform="matrix(1 0 0 1 496.2 25.656) translate(10.3333 57) translate(-3.2 3.2) translate(1 0) translate(-1 0) translate(1 0) translate(1 0) translate(1 0) translate(1 0) translate(0 -1)" ry="3" rx="3" cy="113" cx="20" fill="green"/>
   <ellipse id="TAG_svg_86" transform="matrix(1 0 0 1 477.047 26.656) translate(-3.2 3.2) translate(1 0) translate(-1 0) translate(1 0) translate(1 0) translate(1 0) translate(1 0) translate(0 -1) translate(0 -1) translate(-1 0) translate(0 -1) translate(0 1) translate(0 -1) translate(0 -1) translate(0 0)" ry="3" rx="3" cy="113" cx="20" fill="green"/>
  </g>
  <g id="TAG_2_5_3">
   <ellipse id="TAG_svg_87" transform="matrix(1 0 0 1 445.894 52.656) translate(-3.2 3.2) translate(1 0) translate(-1 0) translate(1 0) translate(1 0) translate(1 0) translate(1 0)" ry="3" rx="3" cy="113" cx="20" fill="green"/>
   <ellipse id="TAG_svg_88" transform="matrix(1 0 0 1 476.047 52.656) translate(-3.2 3.2) translate(1 0) translate(-1 0) translate(1 0) translate(1 0) translate(1 0) translate(1 0)" ry="3" rx="3" cy="113" cx="20" fill="green"/>
   <ellipse id="TAG_svg_89" transform="matrix(1 0 0 1 506.2 52.656) translate(-3.2 3.2) translate(1 0) translate(-1 0) translate(1 0) translate(1 0) translate(1 0) translate(1 0)" ry="3" rx="3" cy="113" cx="20" fill="green"/>
   <ellipse id="TAG_svg_90" transform="matrix(1 0 0 1 536.353 52.656) translate(-3.2 3.2) translate(1 0) translate(-1 0) translate(1 0) translate(1 0) translate(1 0) translate(1 0)" ry="3" rx="3" cy="113" cx="20" fill="green"/>
   <ellipse id="TAG_svg_91" transform="matrix(1 0 0 1 450.971 25.656) translate(10.3333 57) translate(-3.2 3.2) translate(1 0) translate(-1 0) translate(1 0) translate(1 0) translate(1 0) translate(1 0) translate(0 -1)" ry="3" rx="3" cy="113" cx="20" fill="green"/>
   <ellipse id="TAG_svg_92" transform="matrix(1 0 0 1 481.123 25.656) translate(10.3333 57) translate(-3.2 3.2) translate(1 0) translate(-1 0) translate(1 0) translate(1 0) translate(1 0) translate(1 0) translate(0 -1)" ry="3" rx="3" cy="113" cx="20" fill="green"/>
   <ellipse id="TAG_svg_93" transform="matrix(1 0 0 1 473.047 32.656) translate(18.3333 -6) translate(-3.2 3.2) translate(1 0) translate(-1 0) translate(1 0) translate(1 0) translate(1 0) translate(1 0) translate(0 -1) translate(0 -1) translate(-1 0) translate(0 -1) translate(0 1) translate(0 -1) translate(0 -1)" ry="3" rx="3" cy="113" cx="20" fill="green"/>
  </g>
  <g id="TAG_2_8_1">
   <ellipse id="TAG_svg_94" transform="matrix(1 0 0 1 450.971 25.656) translate(10.3333 42) translate(-3.2 3.2) translate(1 0) translate(-1 0) translate(1 0) translate(1 0) translate(1 0) translate(1 0) translate(0 -1) translate(0 1) translate(-1 0) translate(1 0)" ry="3" rx="3" cy="113" cx="20" fill="green"/>
   <ellipse id="TAG_svg_95" transform="matrix(1 0 0 1 481.123 25.656) translate(10.3333 42) translate(0 0) translate(-3.2 3.2) translate(1 0) translate(-1 0) translate(1 0) translate(1 0) translate(1 0) translate(1 0) translate(0 -1) translate(0 1) translate(-1 0) translate(1 0)" ry="3" rx="3" cy="113" cx="20" fill="green"/>
   <ellipse id="TAG_svg_96" transform="matrix(1 0 0 1 466.047 25.656) translate(10 72) translate(3 -7.33333) translate(-2.66667 7.66667) translate(-3.2 3.2) translate(1 0) translate(-1 0) translate(1 0) translate(1 0) translate(1 0) translate(1 0) translate(0 -1) translate(0 -1) translate(-1 0) translate(1 0)" ry="3" rx="3" cy="113" cx="20" fill="green"/>
   <ellipse id="TAG_svg_97" transform="matrix(1 0 0 1 496.2 25.656) translate(10 72) translate(3 -7.33333) translate(-2.66667 7.66667) translate(-3.2 3.2) translate(1 0) translate(-1 0) translate(1 0) translate(1 0) translate(1 0) translate(1 0) translate(0 -1) translate(0 -1) translate(-1 0)" ry="3" rx="3" cy="113" cx="20" fill="green"/>
   <ellipse id="TAG_svg_98" transform="matrix(1 0 0 1 450.971 25.656) translate(10.3333 87.3333) translate(-3.2 3.2) translate(1 0) translate(-1 0) translate(1 0) translate(1 0) translate(1 0) translate(1 0) translate(0 -1) translate(0 -1) translate(0 1) translate(0 -1) translate(-1 0)" ry="3" rx="3" cy="113" cx="20" fill="green"/>
   <ellipse id="TAG_svg_99" transform="matrix(1 0 0 1 481.123 25.656) translate(10.3333 87.3333) translate(-3.2 3.2) translate(1 0) translate(-1 0) translate(1 0) translate(1 0) translate(1 0) translate(1 0) translate(0 -1) translate(0 -1) translate(0 1) translate(0 -1) translate(-1 0)" ry="3" rx="3" cy="113" cx="20" fill="green"/>
   <ellipse id="TAG_svg_100" transform="matrix(1 0 0 1 477.047 39.3227) translate(-3.2 3.2) translate(1 0) translate(-1 0) translate(1 0) translate(1 0) translate(1 0) translate(1 0) translate(0 -1) translate(0 -1) translate(-1 0) translate(0 -1) translate(0 1)" ry="3" rx="3" cy="113" cx="20" fill="green"/>
   <ellipse id="TAG_svg_101" transform="matrix(1 0 0 1 477.047 -1.01067) translate(-3.2 3.2) translate(1 0) translate(-1 0) translate(1 0) translate(1 0) translate(1 0) translate(1 0) translate(0 -1) translate(0 -1) translate(-1 0) translate(0 -1) translate(0 1)" ry="3" rx="3" cy="113" cx="20" fill="green"/>
   <ellipse id="TAG_svg_102" transform="matrix(1 0 0 1 473.047 19.9893) translate(18.3333 -6) translate(-3.2 3.2) translate(1 0) translate(-1 0) translate(1 0) translate(1 0) translate(1 0) translate(1 0) translate(0 -1) translate(0 -1) translate(-1 0) translate(0 -1) translate(0 1) translate(0 -1) translate(0 -1) translate(1 0) translate(0 -1) translate(0 1) translate(-1 0) translate(1 0) translate(-1 0)" ry="3" rx="3" cy="113" cx="20" fill="green"/>
  </g>
  <g id="TAG_2_7_3">
   <ellipse id="TAG_svg_103" transform="matrix(1 0 0 1 466.047 25.656) translate(10.3333 42) translate(0 0) translate(-3.2 3.2) translate(1 0) translate(-1 0) translate(1 0) translate(1 0) translate(1 0) translate(1 0) translate(0 -1) translate(0 1) translate(-1 0) translate(1 0)" ry="3" rx="3" cy="113" cx="20" fill="green"/>
   <ellipse id="TAG_svg_104" transform="matrix(1 0 0 1 496.2 25.656) translate(10.3333 42) translate(-3.2 3.2) translate(1 0) translate(-1 0) translate(1 0) translate(1 0) translate(1 0) translate(1 0) translate(0 -1) translate(0 1) translate(-1 0) translate(1 0) translate(0 -1) translate(-1 0) translate(0 1) translate(0 -1) translate(1 0) translate(0 1)" ry="3" rx="3" cy="113" cx="20" fill="green"/>
   <ellipse id="TAG_svg_105" transform="matrix(1 0 0 1 450.971 25.656) translate(10 72) translate(3 -7.33333) translate(-2.66667 7.66667) translate(-3.2 3.2) translate(1 0) translate(-1 0) translate(1 0) translate(1 0) translate(1 0) translate(1 0) translate(0 -1) translate(0 -1) translate(-1 0)" ry="3" rx="3" cy="113" cx="20" fill="green"/>
   <ellipse id="TAG_svg_106" transform="matrix(1 0 0 1 481.123 25.656) translate(10 72) translate(3 -7.33333) translate(-2.66667 7.66667) translate(-3.2 3.2) translate(1 0) translate(-1 0) translate(1 0) translate(1 0) translate(1 0) translate(1 0) translate(0 -1) translate(0 -1) translate(-1 0)" ry="3" rx="3" cy="113" cx="20" fill="green"/>
   <ellipse id="TAG_svg_107" transform="matrix(1 0 0 1 466.047 25.656) translate(10.3333 87.3333) translate(-3.2 3.2) translate(1 0) translate(-1 0) translate(1 0) translate(1 0) translate(1 0) translate(1 0) translate(0 -1) translate(0 -1) translate(0 1) translate(0 -1) translate(-1 0) translate(1 0)" ry="3" rx="3" cy="113" cx="20" fill="green"/>
   <ellipse id="TAG_svg_108" transform="matrix(1 0 0 1 496.2 25.656) translate(10.3333 87.3333) translate(-3.2 3.2) translate(1 0) translate(-1 0) translate(1 0) translate(1 0) translate(1 0) translate(1 0) translate(0 -1) translate(0 -1) translate(0 1) translate(0 -1) translate(-1 0)" ry="3" rx="3" cy="113" cx="20" fill="green"/>
   <ellipse id="TAG_svg_109" transform="matrix(1 0 0 1 477.047 13.9893) translate(-3.2 3.2) translate(1 0) translate(-1 0) translate(1 0) translate(1 0) translate(1 0) translate(1 0) translate(0 -1) translate(0 -1) translate(-1 0) translate(0 -1) translate(0 1) translate(0 -1) translate(0 -1) translate(1 0) translate(0 -1) translate(0 1) translate(-1 0) translate(1 0) translate(-1 0)" ry="3" rx="3" cy="113" cx="20" fill="green"/>
   <ellipse id="TAG_svg_110" transform="matrix(1 0 0 1 473.047 45.3227) translate(18.3333 -6) translate(-3.2 3.2) translate(1 0) translate(-1 0) translate(1 0) translate(1 0) translate(1 0) translate(1 0) translate(0 -1) translate(0 -1) translate(-1 0) translate(0 -1) translate(0 1)" ry="3" rx="3" cy="113" cx="20" fill="green"/>
   <ellipse id="TAG_svg_111" transform="matrix(1 0 0 1 473.047 4.98933) translate(18.3333 -6) translate(-3.2 3.2) translate(1 0) translate(-1 0) translate(1 0) translate(1 0) translate(1 0) translate(1 0) translate(0 -1) translate(0 -1) translate(-1 0) translate(0 -1) translate(0 1)" ry="3" rx="3" cy="113" cx="20" fill="green"/>
  </g>
  <g id="TAG_2_22_2">
   <rect id="TAG_svg_112" transform="matrix(1 0 0 1 384.455 -112.273) translate(-3.2 3.2) translate(0 -1) translate(0 -1) translate(0 -1) translate(0 -1) translate(0 -1) translate(0 1) translate(0 -1) translate(1 0) translate(1 0) translate(1 0)" height="13" width="5" y="156" x="218" fill="green"/>
   <rect id="TAG_svg_113" transform="matrix(1 0 0 1 518.455 -11.5232) translate(-3.2 3.2) translate(0 -1) translate(0 -1) translate(0 -1) translate(0 -1) translate(0 -1) translate(0 1) translate(0 -1) translate(1 0) translate(1 0) translate(1 0)" height="13" width="5" y="71" x="84" fill="green"/>
   <rect id="TAG_svg_114" transform="matrix(1 0 0 1 518.455 4.22673) translate(-3.2 3.2) translate(0 -1) translate(0 -1) translate(0 -1) translate(0 -1) translate(0 -1) translate(0 1) translate(0 -1) translate(1 0) translate(1 0) translate(1 0)" height="13" width="5" y="71" x="84" fill="green"/>
   <rect id="TAG_svg_115" transform="matrix(1 0 0 1 513 104.249) translate(5.45455 -79.2727) translate(0 -1) translate(0 -1) translate(0 -1) translate(0 -1) translate(0 -1) translate(-3.2 3.2) translate(0 -1) translate(0 -1) translate(0 -1) translate(0 -1) translate(0 -1) translate(0 1) translate(0 -1) translate(1 0) translate(1 0) translate(1 0)" height="13" width="5" y="71" x="84" fill="green"/>
  </g>
  <g id="TAG_2_5_1">
   <rect id="TAG_svg_116" transform="matrix(1 0 0 1 513.455 101.976) translate(33.8182 -82.1818) translate(0 1) translate(-3.2 3.2) translate(0 -1) translate(0 -1) translate(0 -1) translate(0 -1) translate(0 -1) translate(0 1) translate(0 -1) translate(1 0) translate(1 0) translate(1 0)" height="13" width="5" y="71" x="84" fill="green"/>
   <rect id="TAG_svg_117" transform="matrix(1 0 0 1 513.455 86.2267) translate(33.8182 -82.1818) translate(0 1) translate(-3.2 3.2) translate(0 -1) translate(0 -1) translate(0 -1) translate(0 -1) translate(0 -1) translate(0 1) translate(0 -1) translate(1 0) translate(1 0) translate(1 0)" height="13" width="5" y="71" x="84" fill="green"/>
   <rect id="TAG_svg_118" transform="matrix(1 0 0 1 513.455 70.4768) translate(33.8182 -82.1818) translate(0 1) translate(-3.2 3.2) translate(0 -1) translate(0 -1) translate(0 -1) translate(0 -1) translate(0 -1) translate(0 1) translate(0 -1) translate(1 0) translate(1 0) translate(1 0)" height="13" width="5" y="71" x="84" fill="green"/>
   <rect id="TAG_svg_119" transform="matrix(1 0 0 1 379.455 -30.273) translate(33.8182 -82.1818) translate(0 1) translate(-3.2 3.2) translate(0 -1) translate(0 -1) translate(0 -1) translate(0 -1) translate(0 -1) translate(0 1) translate(0 -1) translate(1 0) translate(1 0) translate(1 0)" height="13" width="5" y="156" x="218" fill="green"/>
  </g>
  <g id="TAG_2_21_4">
   <rect id="TAG_svg_120" transform="matrix(1 0 0 1 513.455 101.976) translate(61.0909 -81.8182) translate(-3.2 3.2) translate(0 -1) translate(0 -1) translate(0 -1) translate(0 -1) translate(0 -1) translate(0 1) translate(0 -1) translate(1 0) translate(1 0) translate(1 0)" height="13" width="5" y="71" x="84" fill="green"/>
   <rect id="TAG_svg_121" transform="matrix(1 0 0 1 513.455 86.2267) translate(61.0909 -81.8182) translate(-3.2 3.2) translate(0 -1) translate(0 -1) translate(0 -1) translate(0 -1) translate(0 -1) translate(0 1) translate(0 -1) translate(1 0) translate(1 0) translate(1 0)" height="13" width="5" y="71" x="84" fill="green"/>
   <rect id="TAG_svg_122" transform="matrix(1 0 0 1 513.455 70.4768) translate(61.0909 -81.8182) translate(-3.2 3.2) translate(0 -1) translate(0 -1) translate(0 -1) translate(0 -1) translate(0 -1) translate(0 1) translate(0 -1) translate(1 0) translate(1 0) translate(1 0)" height="13" width="5" y="71" x="84" fill="green"/>
   <rect id="TAG_svg_123" transform="matrix(1 0 0 1 379.455 -30.273) translate(61.0909 -81.8182) translate(-3.2 3.2) translate(0 -1) translate(0 -1) translate(0 -1) translate(0 -1) translate(0 -1) translate(0 1) translate(0 -1) translate(1 0) translate(1 0) translate(1 0) translate(0 0)" height="13" width="5" y="156" x="218" fill="green"/>
  </g>
  <g id="TAG_2_4_4">
   <rect id="TAG_svg_124" transform="matrix(1 0 0 1 513.455 101.976) translate(89.8182 -81.8182) translate(-3.2 3.2) translate(0 -1) translate(0 -1) translate(0 -1) translate(0 -1) translate(0 -1) translate(0 1) translate(0 -1) translate(1 0) translate(1 0) translate(1 0)" height="13" width="5" y="71" x="84" fill="green"/>
   <rect id="TAG_svg_125" transform="matrix(1 0 0 1 513.455 86.2267) translate(89.8182 -81.8182) translate(-3.2 3.2) translate(0 -1) translate(0 -1) translate(0 -1) translate(0 -1) translate(0 -1) translate(0 1) translate(0 -1) translate(1 0) translate(1 0) translate(1 0)" height="13" width="5" y="71" x="84" fill="green"/>
   <rect id="TAG_svg_126" transform="matrix(1 0 0 1 513.455 70.4768) translate(89.8182 -81.8182) translate(-3.2 3.2) translate(0 -1) translate(0 -1) translate(0 -1) translate(0 -1) translate(0 -1) translate(0 1) translate(0 -1) translate(1 0) translate(1 0) translate(1 0)" height="13" width="5" y="71" x="84" fill="green"/>
   <rect id="TAG_svg_127" transform="matrix(1 0 0 1 379.455 -30.273) translate(89.8182 -81.8182) translate(-3.2 3.2) translate(0 -1) translate(0 -1) translate(0 -1) translate(0 -1) translate(0 -1) translate(0 1) translate(0 -1) translate(1 0) translate(1 0) translate(1 0) translate(0 0)" height="13" width="5" y="156" x="218" fill="green"/>
  </g>
  <g id="TAG_2_21_2">
   <rect id="TAG_svg_128" transform="matrix(1 0 0 1 513.455 101.976) translate(5.45455 33.4545) translate(-3.2 3.2) translate(1 0) translate(1 0) translate(1 0) translate(0 -1)" height="13" width="5" y="71" x="84" fill="green"/>
   <rect id="TAG_svg_129" transform="matrix(1 0 0 1 513.455 86.2267) translate(5.45455 33.4545) translate(-3.2 3.2) translate(1 0) translate(1 0) translate(1 0) translate(0 -1)" height="13" width="5" y="71" x="84" fill="green"/>
   <rect id="TAG_svg_130" transform="matrix(1 0 0 1 513.455 70.4768) translate(5.45455 33.4545) translate(-3.2 3.2) translate(1 0) translate(1 0) translate(1 0) translate(0 -1)" height="13" width="5" y="71" x="84" fill="green"/>
   <rect id="TAG_svg_131" transform="matrix(1 0 0 1 379.455 -30.273) translate(5.45455 33.4545) translate(-3.2 3.2) translate(1 0) translate(1 0) translate(1 0) translate(0 -1)" height="13" width="5" y="156" x="218" fill="green"/>
  </g>
  <g id="TAG_2_4_2">
   <rect id="TAG_svg_132" transform="matrix(1 0 0 1 513.455 101.976) translate(33.8182 32.7273) translate(-3.2 3.2) translate(1 0) translate(1 0) translate(1 0) translate(0 -1)" height="13" width="5" y="71" x="84" fill="green"/>
   <rect id="TAG_svg_133" transform="matrix(1 0 0 1 513.455 86.2267) translate(33.8182 32.7273) translate(-3.2 3.2) translate(1 0) translate(1 0) translate(1 0) translate(0 -1)" height="13" width="5" y="71" x="84" fill="green"/>
   <rect id="TAG_svg_134" transform="matrix(1 0 0 1 513.455 70.4768) translate(33.8182 32.7273) translate(-3.2 3.2) translate(1 0) translate(1 0) translate(1 0) translate(0 -1)" height="13" width="5" y="71" x="84" fill="green"/>
   <rect id="TAG_svg_135" transform="matrix(1 0 0 1 379.455 -30.273) translate(33.8182 32.7273) translate(-3.2 3.2) translate(1 0) translate(1 0) translate(1 0) translate(0 -1)" height="13" width="5" y="156" x="218" fill="green"/>
  </g>
  <g id="TAG_2_20_4">
   <rect id="TAG_svg_136" transform="matrix(1 0 0 1 513.455 101.976) translate(61.0909 33.0909) translate(-3.2 3.2) translate(1 0) translate(1 0) translate(1 0) translate(0 -1) translate(1 0)" height="13" width="5" y="71" x="84" fill="green"/>
   <rect id="TAG_svg_137" transform="matrix(1 0 0 1 513.455 86.2267) translate(61.0909 33.0909) translate(-3.2 3.2) translate(1 0) translate(1 0) translate(1 0) translate(0 -1) translate(1 0)" height="13" width="5" y="71" x="84" fill="green"/>
   <rect id="TAG_svg_138" transform="matrix(1 0 0 1 513.455 70.4768) translate(61.0909 33.0909) translate(-3.2 3.2) translate(1 0) translate(1 0) translate(1 0) translate(0 -1) translate(1 0)" height="13" width="5" y="71" x="84" fill="green"/>
   <rect id="TAG_svg_139" transform="matrix(1 0 0 1 379.455 -30.273) translate(61.0909 33.0909) translate(-3.2 3.2) translate(1 0) translate(1 0) translate(1 0) translate(0 -1) translate(1 0)" height="13" width="5" y="156" x="218" fill="green"/>
  </g>
  <g id="TAG_2_4_1">
   <rect id="TAG_svg_140" transform="matrix(1 0 0 1 513.455 101.976) translate(89.8182 33.8182) translate(-3.2 3.2) translate(1 0) translate(1 0) translate(1 0) translate(0 -1) translate(0 -1) translate(-1 0)" height="13" width="5" y="71" x="84" fill="green"/>
   <rect id="TAG_svg_141" transform="matrix(1 0 0 1 513.455 86.2267) translate(89.8182 33.8182) translate(-3.2 3.2) translate(1 0) translate(1 0) translate(1 0) translate(0 -1) translate(0 -1) translate(-1 0)" height="13" width="5" y="71" x="84" fill="green"/>
   <rect id="TAG_svg_142" transform="matrix(1 0 0 1 513.455 70.4768) translate(89.8182 33.8182) translate(-3.2 3.2) translate(1 0) translate(1 0) translate(1 0) translate(0 -1) translate(0 -1) translate(-1 0)" height="13" width="5" y="71" x="84" fill="green"/>
   <rect id="TAG_svg_143" transform="matrix(1 0 0 1 379.455 -30.273) translate(89.8182 33.8182) translate(-3.2 3.2) translate(1 0) translate(1 0) translate(1 0) translate(0 -1) translate(0 -1) translate(-1 0)" height="13" width="5" y="156" x="218" fill="green"/>
  </g>
  <g id="TAG_2_10_1">
   <rect id="TAG_svg_144" transform="matrix(1 0 0 1 547.091 53.0223) translate(-3.2 3.2) translate(1 0) translate(1 0) translate(1 0) translate(0 -1) translate(0 -1) translate(0 -1)" height="13" width="5" y="71" x="84" fill="green"/>
   <rect id="TAG_svg_145" transform="matrix(1 0 0 1 533.091 53.0223) translate(-3.2 3.2) translate(1 0) translate(0 -1) translate(0 -1) translate(0 -1) translate(1 0)" height="13" width="5" y="71" x="84" fill="green"/>
   <rect id="TAG_svg_146" transform="matrix(1 0 0 1 518.91 53.0223) translate(-3.2 3.2) translate(1 0) translate(1 0) translate(0 -1) translate(0 -1) translate(0 -1) translate(0 -1) translate(0 1)" height="13" width="5" y="71" x="84" fill="green"/>
   <rect id="TAG_svg_147" transform="matrix(1 0 0 1 378.91 -22.8185) translate(61.8182 -24.7273) translate(-3.2 3.2) translate(-1 0) translate(0 -1)" height="13" width="5" y="156" x="218" fill="green"/>
   <rect id="TAG_svg_148" transform="matrix(1 0 0 1 378.91 -22.8185) translate(78.1818 -24.7273) translate(-3.2 3.2) translate(1 0) translate(1 0) translate(1 0) translate(0 -1)" height="13" width="5" y="156" x="218" fill="green"/>
  </g>
  <g id="TAG_2_3_4">
   <rect id="TAG_svg_149" transform="matrix(1 0 0 1 384.91 -47.7275) translate(-3.2 3.2) translate(1 0) translate(1 0) translate(0 -1) translate(0 -1) translate(0 -1) translate(0 -1) translate(0 1)" height="13" width="5" y="156" x="218" fill="green"/>
   <rect id="TAG_svg_150" transform="matrix(1 0 0 1 547.091 68.5678) translate(-3.2 3.2) translate(1 0) translate(1 0) translate(1 0) translate(0 -1) translate(0 -1)" height="13" width="5" y="71" x="84" fill="green"/>
   <rect id="TAG_svg_151" transform="matrix(1 0 0 1 512.91 77.9313) translate(61.8182 -24.7273) translate(-3.2 3.2) translate(0 1) translate(0 1) translate(-1 0) translate(0 1)" height="13" width="5" y="71" x="84" fill="green"/>
   <rect id="TAG_svg_152" transform="matrix(1 0 0 1 512.91 77.9313) translate(78.1818 -24.7273) translate(-3.2 3.2) translate(1 0) translate(1 0) translate(1 0) translate(0 1) translate(0 1) translate(0 1)" height="13" width="5" y="71" x="84" fill="green"/>
  </g>
  <g id="TAG_2_9_1">
   <ellipse id="TAG_svg_153" transform="matrix(1 0 0 1 558.971 41.656) translate(122.182 -44) translate(1 0) translate(1 0) translate(1 0) translate(1 0) translate(1 0) translate(1 0) translate(1 0) translate(1 0) translate(1 0) translate(1 0) translate(-3.2 3.2) translate(0 -1) translate(1 0)" ry="3" rx="3" cy="113" cx="20" fill="green"/>
   <ellipse id="TAG_svg_154" transform="matrix(1 0 0 1 702.896 -2.344) translate(-3.2 3.2) translate(0 -1) translate(1 0) translate(1 0) translate(1 0)" ry="3" rx="3" cy="113" cx="20" fill="green"/>
   <ellipse id="TAG_svg_155" transform="matrix(1 0 0 1 714.639 -2.344) translate(-3.2 3.2) translate(0 -1) translate(1 0) translate(1 0) translate(1 0) translate(1 0)" ry="3" rx="3" cy="113" cx="20" fill="green"/>
   <ellipse id="TAG_svg_156" transform="matrix(1 0 0 1 726.382 -2.344) translate(-3.2 3.2) translate(0 -1) translate(1 0) translate(1 0) translate(1 0) translate(1 0) translate(1 0) translate(1 0)" ry="3" rx="3" cy="113" cx="20" fill="green"/>
   <ellipse id="TAG_svg_157" transform="matrix(1 0 0 1 564.153 41.656) translate(126.909 -27.2727) translate(-3.2 3.2) translate(0 -1) translate(1 0) translate(0 0)" ry="3" rx="3" cy="113" cx="20" fill="green"/>
   <ellipse id="TAG_svg_158" transform="matrix(1 0 0 1 575.896 41.656) translate(126.909 -27.2727) translate(-3.2 3.2) translate(0 -1) translate(1 0) translate(1 0) translate(1 0)" ry="3" rx="3" cy="113" cx="20" fill="green"/>
   <ellipse id="TAG_svg_159" transform="matrix(1 0 0 1 587.639 41.656) translate(126.909 -27.2727) translate(-3.2 3.2) translate(0 -1) translate(1 0) translate(1 0) translate(1 0) translate(1 0)" ry="3" rx="3" cy="113" cx="20" fill="green"/>
   <ellipse id="TAG_svg_160" transform="matrix(1 0 0 1 599.382 41.656) translate(126.909 -27.2727) translate(-3.2 3.2) translate(0 -1) translate(1 0) translate(1 0) translate(1 0) translate(1 0) translate(1 0) translate(1 0)" ry="3" rx="3" cy="113" cx="20" fill="green"/>
  </g>
  <g id="TAG_2_4_3">
   <ellipse id="TAG_svg_161" transform="matrix(1 0 0 1 564.153 41.656) translate(126.545 5.81818) translate(-3.2 3.2) translate(0 -1) translate(1 0)" ry="3" rx="3" cy="113" cx="20" fill="green"/>
   <ellipse id="TAG_svg_162" transform="matrix(1 0 0 1 575.896 41.656) translate(126.545 5.81818) translate(-3.2 3.2) translate(0 -1) translate(1 0) translate(1 0) translate(1 0)" ry="3" rx="3" cy="113" cx="20" fill="green"/>
   <ellipse id="TAG_svg_163" transform="matrix(1 0 0 1 587.639 41.656) translate(126.545 5.81818) translate(-3.2 3.2) translate(0 -1) translate(1 0) translate(1 0) translate(1 0) translate(1 0)" ry="3" rx="3" cy="113" cx="20" fill="green"/>
   <ellipse id="TAG_svg_164" transform="matrix(1 0 0 1 599.382 41.656) translate(126.545 5.81818) translate(-3.2 3.2) translate(0 -1) translate(1 0) translate(1 0) translate(1 0) translate(1 0) translate(1 0) translate(1 0)" ry="3" rx="3" cy="113" cx="20" fill="green"/>
   <ellipse id="TAG_svg_165" transform="matrix(1 0 0 1 564.153 41.656) translate(126.909 -10.9091) translate(-3.2 3.2) translate(0 -1) translate(1 0)" ry="3" rx="3" cy="113" cx="20" fill="green"/>
   <ellipse id="TAG_svg_166" transform="matrix(1 0 0 1 575.896 41.656) translate(126.909 -10.9091) translate(-3.2 3.2) translate(0 -1) translate(1 0) translate(1 0) translate(1 0)" ry="3" rx="3" cy="113" cx="20" fill="green"/>
   <ellipse id="TAG_svg_167" transform="matrix(1 0 0 1 587.639 41.656) translate(126.909 -10.9091) translate(-3.2 3.2) translate(0 -1) translate(1 0) translate(1 0) translate(1 0) translate(1 0)" ry="3" rx="3" cy="113" cx="20" fill="green"/>
   <ellipse id="TAG_svg_168" transform="matrix(1 0 0 1 599.382 41.656) translate(126.909 -10.9091) translate(-3.2 3.2) translate(0 -1) translate(1 0) translate(1 0) translate(1 0) translate(1 0) translate(1 0) translate(1 0)" ry="3" rx="3" cy="113" cx="20" fill="green"/>
  </g>
  <g id="TAG_2_8_3">
   <ellipse id="TAG_svg_169" transform="matrix(1 0 0 1 581.184 41.4742) translate(129.556 30) translate(-3.2 3.2) translate(0 0)" ry="3" rx="3" cy="113" cx="20" fill="green"/>
   <ellipse id="TAG_svg_170" transform="matrix(1 0 0 1 638.184 61.4742) translate(72.8889 35.7778) translate(-3.2 3.2)" ry="3" rx="3" cy="113" cx="20" fill="green"/>
  </g>
  <g id="TAG_2_8_4">
   <rect id="TAG_svg_171" transform="matrix(1 0 0 1 160.312 -52.4818)" height="5" width="14" y="82" x="54" fill="green"/>
   <rect id="TAG_svg_172" transform="matrix(1 0 0 1 61.3398 -86.4818)" height="5" width="14" y="116" x="168" fill="green"/>
   <rect id="TAG_svg_173" transform="matrix(1 0 0 1 77.3673 -86.4818)" height="5" width="14" y="116" x="167" fill="green"/>
   <rect id="TAG_svg_174" transform="matrix(1, 0, 0, 1, 145.285, -52.4818)" height="5" width="14" y="82" x="54" fill="green"/>
  </g>
  <g id="TAG_2_18_2">
   <rect id="TAG_svg_175" transform="matrix(1, 0, 0, 1, 192.873, 112.965)" height="5" width="14" y="116" x="167" fill="green"/>
   <rect id="TAG_svg_176" transform="matrix(1 0 0 1 208.645 112.965)" height="5" width="14" y="116" x="167" fill="green"/>
   <rect id="TAG_svg_177" transform="matrix(1 0 0 1 223.691 112.965)" height="5" width="14" y="116" x="167" fill="green"/>
   <rect id="TAG_svg_178" transform="matrix(1 0 0 1 238.736 112.965)" height="5" width="14" y="116" x="167" fill="green"/>
  </g>
  <g id="TAG_2_2_2">
   <rect id="TAG_svg_179" transform="matrix(1, 0, 0, 1, 38.467, 137.116)" height="13" width="5" y="71" x="84" fill="green"/>
   <rect id="TAG_svg_180" transform="matrix(1, 0, 0, 1, 38.467, 120.367)" height="13" width="5" y="71" x="84" fill="green"/>
   <rect id="TAG_svg_181" transform="matrix(1, 0, 0, 1, 38.467, 103.616)" height="13" width="5" y="71" x="84" fill="green"/>
   <rect id="TAG_svg_182" transform="matrix(1, 0, 0, 1, -95.533, 2.8663)" height="13" width="5" y="156" x="218" fill="green"/>
  </g>
  <g id="TAG_2_12_4">
   <rect id="TAG_svg_183" transform="matrix(1, 0, 0, 1, 68.8, 137.116)" height="13" width="5" y="71" x="84" fill="green"/>
   <rect id="TAG_svg_184" transform="matrix(1, 0, 0, 1, 68.8, 120.367)" height="13" width="5" y="71" x="84" fill="green"/>
   <rect id="TAG_svg_185" transform="matrix(1, 0, 0, 1, 68.8, 103.616)" height="13" width="5" y="71" x="84" fill="green"/>
   <rect id="TAG_svg_186" transform="matrix(1, 0, 0, 1, -65.2, 2.8663)" height="13" width="5" y="156" x="218" fill="green"/>
  </g>
  <g id="TAG_2_13_2">
   <rect id="TAG_svg_187" transform="matrix(1, 0, 0, 1, 95.8, 137.116)" height="13" width="5" y="71" x="84" fill="green"/>
   <rect id="TAG_svg_188" transform="matrix(1, 0, 0, 1, 95.8, 120.367)" height="13" width="5" y="71" x="84" fill="green"/>
   <rect id="TAG_svg_189" transform="matrix(1, 0, 0, 1, 95.8, 103.616)" height="13" width="5" y="71" x="84" fill="green"/>
   <rect id="TAG_svg_190" transform="matrix(1, 0, 0, 1, -38.2, 2.8663)" height="13" width="5" y="156" x="218" fill="green"/>
  </g>
  <g id="TAG_2_2_3">
   <rect id="TAG_svg_191" transform="matrix(1 0 0 1 157.8 196.116) translate(-32.6667 -59) translate(0.333333 0)" height="13" width="5" y="71" x="84" fill="green"/>
   <rect id="TAG_svg_192" transform="matrix(1 0 0 1 157.8 179.367) translate(-32.6667 -59) translate(0.333333 0)" height="13" width="5" y="71" x="84" fill="green"/>
   <rect id="TAG_svg_193" transform="matrix(1 0 0 1 157.8 162.616) translate(-32.6667 -59) translate(0.333333 0)" height="13" width="5" y="71" x="84" fill="green"/>
   <rect id="TAG_svg_194" transform="matrix(1 0 0 1 23.8 61.8663) translate(-32.6667 -59) translate(0.333333 0)" height="13" width="5" y="156" x="218" fill="green"/>
  </g>
  <g id="TAG_2_14_4">
   <rect id="TAG_svg_195" transform="matrix(1, 0, 0, 1, 152.8, 137.449)" height="13" width="5" y="71" x="84" fill="green"/>
   <rect id="TAG_svg_196" transform="matrix(1, 0, 0, 1, 152.8, 120.7)" height="13" width="5" y="71" x="84" fill="green"/>
   <rect id="TAG_svg_197" transform="matrix(1, 0, 0, 1, 152.8, 103.949)" height="13" width="5" y="71" x="84" fill="green"/>
   <rect id="TAG_svg_198" transform="matrix(1, 0, 0, 1, 18.8, 3.1996)" height="13" width="5" y="156" x="218" fill="green"/>
  </g>
  <g id="TAG_2_15_2">
   <rect id="TAG_svg_199" transform="matrix(1, 0, 0, 1, 182.133, 137.116)" height="13" width="5" y="71" x="84" fill="green"/>
   <rect id="TAG_svg_200" transform="matrix(1, 0, 0, 1, 182.133, 120.367)" height="13" width="5" y="71" x="84" fill="green"/>
   <rect id="TAG_svg_201" transform="matrix(1, 0, 0, 1, 182.133, 103.616)" height="13" width="5" y="71" x="84" fill="green"/>
   <rect id="TAG_svg_202" transform="matrix(1, 0, 0, 1, 48.1333, 2.8663)" height="13" width="5" y="156" x="218" fill="green"/>
  </g>
  <g id="TAG_2_2_4">
   <rect id="TAG_svg_203" transform="matrix(1, 0, 0, 1, 210.133, 137.116)" height="13" width="5" y="71" x="84" fill="green"/>
   <rect id="TAG_svg_204" transform="matrix(1, 0, 0, 1, 210.133, 120.367)" height="13" width="5" y="71" x="84" fill="green"/>
   <rect id="TAG_svg_205" transform="matrix(1, 0, 0, 1, 210.133, 103.616)" height="13" width="5" y="71" x="84" fill="green"/>
   <rect id="TAG_svg_206" transform="matrix(1 0 0 1 23.8 61.8663) translate(52.3333 -59) translate(0 0)" height="13" width="5" y="156" x="218" fill="green"/>
  </g>
  <g id="TAG_2_16_4">
   <rect id="TAG_svg_207" transform="matrix(1, 0, 0, 1, 238.467, 137.116)" height="13" width="5" y="71" x="84" fill="green"/>
   <rect id="TAG_svg_208" transform="matrix(1, 0, 0, 1, 238.467, 120.367)" height="13" width="5" y="71" x="84" fill="green"/>
   <rect id="TAG_svg_209" transform="matrix(1, 0, 0, 1, 238.467, 103.616)" height="13" width="5" y="71" x="84" fill="green"/>
   <rect id="TAG_svg_210" transform="matrix(1, 0, 0, 1, 104.467, 2.8663)" height="13" width="5" y="156" x="218" fill="green"/>
  </g>
  <g id="TAG_2_17_2">
   <rect id="TAG_svg_211" transform="matrix(1, 0, 0, 1, 266.133, 137.116)" height="13" width="5" y="71" x="84" fill="green"/>
   <rect id="TAG_svg_212" transform="matrix(1, 0, 0, 1, 266.133, 120.367)" height="13" width="5" y="71" x="84" fill="green"/>
   <rect id="TAG_svg_213" transform="matrix(1, 0, 0, 1, 266.133, 103.616)" height="13" width="5" y="71" x="84" fill="green"/>
   <rect id="TAG_svg_214" transform="matrix(1, 0, 0, 1, 132.133, 2.8663)" height="13" width="5" y="156" x="218" fill="green"/>
  </g>
  <g id="TAG_2_3_1">
   <rect id="TAG_svg_215" transform="matrix(1, 0, 0, 1, 294.467, 137.116)" height="13" width="5" y="71" x="84" fill="green"/>
   <rect id="TAG_svg_216" transform="matrix(1, 0, 0, 1, 294.467, 120.367)" height="13" width="5" y="71" x="84" fill="green"/>
   <rect id="TAG_svg_217" transform="matrix(1, 0, 0, 1, 294.467, 103.616)" height="13" width="5" y="71" x="84" fill="green"/>
   <rect id="TAG_svg_218" transform="matrix(1, 0, 0, 1, 160.467, 2.8663)" height="13" width="5" y="156" x="218" fill="green"/>
  </g>
  <g id="TAG_2_24_1">
   <rect id="TAG_svg_219" transform="matrix(1 0 0 1 6.8 -11.967)" height="13" width="5" y="71" x="84" fill="green"/>
   <rect id="TAG_svg_220" transform="matrix(1, 0, 0, 1, -127.2, -131.134)" height="13" width="5" y="156" x="218" fill="green"/>
   <rect id="TAG_svg_221" transform="matrix(1, 0, 0, 1, 21.1333, 5.116)" height="13" width="5" y="71" x="84" fill="green"/>
   <rect id="TAG_svg_222" transform="matrix(1, 0, 0, 1, 21.1333, -29.0503)" height="13" width="5" y="71" x="84" fill="green"/>
  </g>
  <g id="TAG_2_24_3">
   <rect id="TAG_svg_223" transform="matrix(1 0 0 1 6.8 5.11633)" height="13" width="5" y="71" x="84" fill="green"/>
   <rect id="TAG_svg_224" transform="matrix(1 0 0 1 6.8 -29.0503)" height="13" width="5" y="71" x="84" fill="green"/>
   <rect id="TAG_svg_225" transform="matrix(1, 0, 0, 1, 21.1333, -11.967)" height="13" width="5" y="71" x="84" fill="green"/>
   <rect id="TAG_svg_226" transform="matrix(1, 0, 0, 1, -112.867, -131.134)" height="13" width="5" y="156" x="218" fill="green"/>
  </g>
  <g id="TAG_2_24_2">
   <rect id="TAG_svg_227" transform="matrix(1, 0, 0, 1, 104.8, -11.967)" height="13" width="5" y="71" x="84" fill="green"/>
   <rect id="TAG_svg_228" transform="matrix(1, 0, 0, 1, -29.2, -131.134)" height="13" width="5" y="156" x="218" fill="green"/>
   <rect id="TAG_svg_229" transform="matrix(1, 0, 0, 1, 90.1333, 5.116)" height="13" width="5" y="71" x="84" fill="green"/>
   <rect id="TAG_svg_230" transform="matrix(1, 0, 0, 1, 90.1333, -29.0503)" height="13" width="5" y="71" x="84" fill="green"/>
  </g>
  <g id="TAG_2_24_4">
   <rect id="TAG_svg_231" transform="matrix(1, 0, 0, 1, 104.8, 5.116)" height="13" width="5" y="71" x="84" fill="green"/>
   <rect id="TAG_svg_232" transform="matrix(1, 0, 0, 1, 104.8, -29.0503)" height="13" width="5" y="71" x="84" fill="green"/>
   <rect id="TAG_svg_233" transform="matrix(1, 0, 0, 1, 90.1333, -11.967)" height="13" width="5" y="71" x="84" fill="green"/>
   <rect id="TAG_svg_234" transform="matrix(1, 0, 0, 1, -43.8667, -131.134)" height="13" width="5" y="156" x="218" fill="green"/>
  </g>
  <g id="TAG_2_25_4">
   <rect id="TAG_svg_235" transform="matrix(1, 0, 0, 1, 78.8, -11.967)" height="13" width="5" y="71" x="84" fill="green"/>
   <rect id="TAG_svg_236" transform="matrix(1, 0, 0, 1, -55.2, -131.134)" height="13" width="5" y="156" x="218" fill="green"/>
   <rect id="TAG_svg_237" transform="matrix(1, 0, 0, 1, 64.4667, -29.0503)" height="13" width="5" y="71" x="84" fill="green"/>
  </g>
  <g id="TAG_2_25_2">
   <rect id="TAG_svg_238" transform="matrix(1, 0, 0, 1, 78.8, -29.0503)" height="13" width="5" y="71" x="84" fill="green"/>
   <rect id="TAG_svg_239" transform="matrix(1, 0, 0, 1, 64.4667, -11.967)" height="13" width="5" y="71" x="84" fill="green"/>
   <rect id="TAG_svg_240" transform="matrix(1, 0, 0, 1, -69.5333, -131.134)" height="13" width="5" y="156" x="218" fill="green"/>
  </g>
  <g id="TAG_2_26_2">
   <rect id="TAG_svg_241" transform="matrix(1 0 0 1 92.8 109.116) translate(-14 -104) translate(-5 0)" height="13" width="5" y="71" x="84" fill="green"/>
   <rect id="TAG_svg_242" transform="matrix(1 0 0 1 92.8 109.116) translate(-28.3333 -104) translate(-6.66667 0)" height="13" width="5" y="71" x="84" fill="green"/>
   <rect id="TAG_svg_243" transform="matrix(1 0 0 1 92.8 109.116) translate(-58 -104) translate(7 0)" height="13" width="5" y="71" x="84" fill="green"/>
  </g>
  <g id="TAG_2_25_3">
   <rect id="TAG_svg_244" transform="matrix(1, 0, 0, 1, 34.8, -11.967)" height="13" width="5" y="71" x="84" fill="green"/>
   <rect id="TAG_svg_245" transform="matrix(1, 0, 0, 1, -99.2, -131.134)" height="13" width="5" y="156" x="218" fill="green"/>
   <rect id="TAG_svg_246" transform="matrix(1, 0, 0, 1, 49.1333, -29.0503)" height="13" width="5" y="71" x="84" fill="green"/>
  </g>
  <g id="TAG_2_25_1">
   <rect id="TAG_svg_247" transform="matrix(1, 0, 0, 1, 34.8, -29.0503)" height="13" width="5" y="71" x="84" fill="green"/>
   <rect id="TAG_svg_248" transform="matrix(1, 0, 0, 1, 49.1333, -11.967)" height="13" width="5" y="71" x="84" fill="green"/>
   <rect id="TAG_svg_249" transform="matrix(1, 0, 0, 1, -84.8667, -131.134)" height="13" width="5" y="156" x="218" fill="green"/>
  </g>
  <g id="TAG_2_7_4">
   <rect id="TAG_svg_250" transform="matrix(1, 0, 0, 1, 182.467, 20.449)" height="13" width="5" y="71" x="84" fill="green"/>
   <rect id="TAG_svg_251" transform="matrix(1, 0, 0, 1, 182.467, 4.3662)" height="13" width="5" y="71" x="84" fill="green"/>
   <rect id="TAG_svg_252" transform="matrix(1, 0, 0, 1, 182.467, -11.7172)" height="13" width="5" y="71" x="84" fill="green"/>
   <rect id="TAG_svg_253" transform="matrix(1, 0, 0, 1, 48.4667, -112.801)" height="13" width="5" y="156" x="218" fill="green"/>
  </g>
  <g id="TAG_2_8_2">
   <rect id="TAG_svg_254" transform="matrix(1, 0, 0, 1, 210.467, 20.449)" height="13" width="5" y="71" x="84" fill="green"/>
   <rect id="TAG_svg_255" transform="matrix(1, 0, 0, 1, 210.467, 4.3662)" height="13" width="5" y="71" x="84" fill="green"/>
   <rect id="TAG_svg_256" transform="matrix(1, 0, 0, 1, 210.467, -11.7172)" height="13" width="5" y="71" x="84" fill="green"/>
   <rect id="TAG_svg_257" transform="matrix(1, 0, 0, 1, 76.4667, -112.801)" height="13" width="5" y="156" x="218" fill="green"/>
  </g>
  <g id="TAG_2_1_2">
   <rect id="TAG_svg_258" transform="matrix(1, 0, 0, 1, 238.134, 20.449)" height="13" width="5" y="71" x="84" fill="green"/>
   <rect id="TAG_svg_259" transform="matrix(1, 0, 0, 1, 238.134, 4.3662)" height="13" width="5" y="71" x="84" fill="green"/>
   <rect id="TAG_svg_260" transform="matrix(1, 0, 0, 1, 238.134, -11.7172)" height="13" width="5" y="71" x="84" fill="green"/>
   <rect id="TAG_svg_261" transform="matrix(1 0 0 1 94.4667 -25.801) translate(9.66667 -87) translate(0 0)" height="13" width="5" y="156" x="218" fill="green"/>
  </g>
  <g id="TAG_2_9_4">
   <rect id="TAG_svg_262" transform="matrix(1, 0, 0, 1, 266.467, 20.449)" height="13" width="5" y="71" x="84" fill="green"/>
   <rect id="TAG_svg_263" transform="matrix(1, 0, 0, 1, 266.467, 4.3662)" height="13" width="5" y="71" x="84" fill="green"/>
   <rect id="TAG_svg_264" transform="matrix(1, 0, 0, 1, 266.467, -11.7172)" height="13" width="5" y="71" x="84" fill="green"/>
   <rect id="TAG_svg_265" transform="matrix(1 0 0 1 94.4667 -25.801) translate(38 -87) translate(0 0)" height="13" width="5" y="156" x="218" fill="green"/>
  </g>
  <g id="TAG_2_10_2">
   <rect id="TAG_svg_266" transform="matrix(1, 0, 0, 1, 294.467, 20.1157)" height="13" width="5" y="71" x="84" fill="green"/>
   <rect id="TAG_svg_267" transform="matrix(1, 0, 0, 1, 294.467, 4.03291)" height="13" width="5" y="71" x="84" fill="green"/>
   <rect id="TAG_svg_268" transform="matrix(1, 0, 0, 1, 294.467, -12.0505)" height="13" width="5" y="71" x="84" fill="green"/>
   <rect id="TAG_svg_269" transform="matrix(1, 0, 0, 1, 160.467, -113.134)" height="13" width="5" y="156" x="218" fill="green"/>
  </g>
  <g id="TAG_2_1_3">
   <rect id="TAG_svg_270" transform="matrix(1, 0, 0, 1, 323.134, 20.449)" height="13" width="5" y="71" x="84" fill="green"/>
   <rect id="TAG_svg_271" transform="matrix(1, 0, 0, 1, 323.134, 4.3662)" height="13" width="5" y="71" x="84" fill="green"/>
   <rect id="TAG_svg_272" transform="matrix(1, 0, 0, 1, 323.134, -11.7172)" height="13" width="5" y="71" x="84" fill="green"/>
   <rect id="TAG_svg_273" transform="matrix(1, 0, 0, 1, 189.133, -112.801)" height="13" width="5" y="156" x="218" fill="green"/>
  </g>
  <g id="TAG_2_17_4">
   <rect id="TAG_svg_274" transform="matrix(1, 0, 0, 1, 323.134, 136.449)" height="13" width="5" y="71" x="84" fill="green"/>
   <rect id="TAG_svg_275" transform="matrix(1, 0, 0, 1, 323.134, 119.7)" height="13" width="5" y="71" x="84" fill="green"/>
   <rect id="TAG_svg_276" transform="matrix(1, 0, 0, 1, 323.134, 102.949)" height="13" width="5" y="71" x="84" fill="green"/>
   <rect id="TAG_svg_277" transform="matrix(1, 0, 0, 1, 189.134, 2.1996)" height="13" width="5" y="156" x="218" fill="green"/>
  </g>
  <g id="TAG_2_1_1">
   <rect id="TAG_svg_278" transform="matrix(1, 0, 0, 1, 152.8, 20.449)" height="13" width="5" y="71" x="84" fill="green"/>
   <rect id="TAG_svg_279" transform="matrix(1, 0, 0, 1, 152.8, 4.3662)" height="13" width="5" y="71" x="84" fill="green"/>
   <rect id="TAG_svg_280" transform="matrix(1, 0, 0, 1, 152.8, -11.7172)" height="13" width="5" y="71" x="84" fill="green"/>
   <rect id="TAG_svg_281" transform="matrix(1, 0, 0, 1, 18.8, -112.801)" height="13" width="5" y="156" x="218" fill="green"/>
   <rect id="TAG_svg_282" transform="matrix(1, 0, 0, 1, 42.7808, 13.965)" height="5" width="14" y="82" x="54" fill="green"/>
   <rect id="TAG_svg_283" transform="matrix(1 0 0 1 91.1141 13.965)" height="5" width="14" y="82" x="54" fill="green"/>
  </g>
  <g id="TAG_2_7_2">
   <rect id="TAG_svg_284" transform="matrix(1 0 0 1 92.8 109.116) translate(32.6667 -85.6667) translate(0 -1) translate(0 -1) translate(0 -1)" height="13" width="5" y="71" x="84" fill="green"/>
   <rect id="TAG_svg_285" transform="matrix(1 0 0 1 125.467 4.36622)" height="13" width="5" y="71" x="84" fill="green"/>
   <rect id="TAG_svg_286" transform="matrix(1 0 0 1 125.467 -11.7172)" height="13" width="5" y="71" x="84" fill="green"/>
   <rect id="TAG_svg_287" transform="matrix(1 0 0 1 -8.53333 -112.801)" height="13" width="5" y="156" x="218" fill="green"/>
   <rect id="TAG_svg_288" transform="matrix(1, 0, 0, 1, 68.1141, 13.965)" height="5" width="14" y="82" x="54" fill="green"/>
   <rect id="TAG_svg_289" transform="matrix(1 0 0 1 115.781 13.965)" height="5" width="14" y="82" x="54" fill="green"/>
  </g>
  <g id="TAG_2_19_3">
   <rect id="TAG_svg_290" transform="matrix(1 0 0 1 77.7044 90.3547) translate(-11 -33.6667) translate(0 1) translate(0 1) translate(0 1) translate(0 1) translate(0 1) translate(0 1) translate(0 1) translate(0 1) translate(0 1) translate(0 1)" height="13" width="5" y="71" x="84" fill="green"/>
   <rect id="TAG_svg_291" transform="matrix(1, 0, 0, 1, 66.7047, 41.4619)" height="13" width="5" y="71" x="84" fill="green"/>
  </g>
  <g id="TAG_2_17_1">
   <rect id="TAG_svg_292" transform="matrix(1, 0, 0, 1, 79.0377, 66.3547)" height="13" width="5" y="71" x="84" fill="green"/>
   <rect id="TAG_svg_293" transform="matrix(1, 0, 0, 1, 79.038, 41.1286)" height="13" width="5" y="71" x="84" fill="green"/>
  </g>
  <g id="TAG_2_20_1">
   <rect id="TAG_svg_294" transform="matrix(1 0 0 1 77.7044 95.688) translate(17 -20.6667) translate(0 -1) translate(0 -1) translate(0 -1) translate(0 -1) translate(0 -1) translate(0 -1)" height="13" width="5" y="71" x="84" fill="green"/>
   <rect id="TAG_svg_295" transform="matrix(1 0 0 1 109.038 69.3546)" height="13" width="5" y="71" x="84" fill="green"/>
  </g>
  <g id="TAG_2_17_3">
   <rect id="TAG_svg_296" transform="matrix(1 0 0 1 77.7047 70.4619) translate(17 -20.6667) translate(0 0) translate(0 0)" height="13" width="5" y="71" x="84" fill="green"/>
   <rect id="TAG_svg_297" transform="matrix(1 0 0 1 109.038 50.1285)" height="13" width="5" y="71" x="84" fill="green"/>
  </g>
  <g id="TAG_2_20_3">
   <rect id="TAG_svg_298" transform="matrix(1 0 0 1 77.7044 93.0213) translate(45.3333 -32.3333) translate(0 1) translate(0 1) translate(0 1) translate(0 1) translate(0 1) translate(0 1) translate(0 1)" height="13" width="5" y="71" x="84" fill="green"/>
   <rect id="TAG_svg_299" transform="matrix(1, 0, 0, 1, 123.038, 41.4619)" height="13" width="5" y="71" x="84" fill="green"/>
  </g>
  <g id="TAG_2_18_1">
   <rect id="TAG_svg_300" transform="matrix(1, 0, 0, 1, 136.038, 67.688)" height="13" width="5" y="71" x="84" fill="green"/>
   <rect id="TAG_svg_301" transform="matrix(1, 0, 0, 1, 136.038, 41.4619)" height="13" width="5" y="71" x="84" fill="green"/>
  </g>
  <g id="TAG_2_3_2">
   <rect id="TAG_svg_302" transform="matrix(1 0 0 1 165.038 95.688) translate(13 -28.3333) translate(0 -1)" height="13" width="5" y="71" x="84" fill="green"/>
   <rect id="TAG_svg_303" transform="matrix(1, 0, 0, 1, 178.038, 41.1286)" height="13" width="5" y="71" x="84" fill="green"/>
  </g>
  <g id="TAG_2_21_1">
   <rect id="TAG_svg_304" transform="matrix(1 0 0 1 165.038 95.688) translate(29.6667 -31) translate(0 -1) translate(0 -1) translate(0 -1) translate(0 -1) translate(0 -1) translate(0 -1) translate(0 -1) translate(0 -1) translate(0 -1) translate(0 -1) translate(0 -1) translate(0 0)" height="13" width="5" y="71" x="84" fill="green"/>
   <rect id="TAG_svg_305" transform="matrix(1, 0, 0, 1, 216.038, 53.688)" height="13" width="5" y="71" x="84" fill="green"/>
  </g>
  <g id="TAG_2_13_3">
   <rect id="TAG_svg_306" transform="matrix(1, 0, 0, 1, 194.705, 38.4619)" height="13" width="5" y="71" x="84" fill="green"/>
   <rect id="TAG_svg_307" transform="matrix(1, 0, 0, 1, 194.705, 69.0213)" height="13" width="5" y="71" x="84" fill="green"/>
   <rect id="TAG_svg_308" transform="matrix(1, 0, 0, 1, 216.038, 69.0213)" height="13" width="5" y="71" x="84" fill="green"/>
  </g>
  <g id="TAG_2_21_3">
   <rect id="TAG_svg_309" transform="matrix(1, 0, 0, 1, 234.038, 41.3547)" height="13" width="5" y="71" x="84" fill="green"/>
   <rect id="TAG_svg_310" transform="matrix(1 0 0 1 164.705 91.0213) translate(69.3333 -34.3333) translate(0 1) translate(0 1) translate(0 1) translate(0 1) translate(0 1) translate(0 1) translate(0 1) translate(0 1) translate(0 1) translate(0 1)" height="13" width="5" y="71" x="84" fill="green"/>
  </g>
  <g id="TAG_2_14_1">
   <rect id="TAG_svg_311" transform="matrix(1, 0, 0, 1, 248.371, 41.3547)" height="13" width="5" y="71" x="84" fill="green"/>
   <rect id="TAG_svg_312" transform="matrix(1, 0, 0, 1, 248.371, 66.688)" height="13" width="5" y="71" x="84" fill="green"/>
  </g>
  <g id="TAG_2_22_3">
   <rect id="TAG_svg_313" transform="matrix(1 0 0 1 343.038 91.0213) translate(-27 -34) translate(0 1) translate(0 1) translate(0 1) translate(0 1) translate(0 1) translate(0 1) translate(0 1) translate(0 1) translate(0 1) translate(0 1) translate(0 0)" height="13" width="5" y="71" x="84" fill="green"/>
   <rect id="TAG_svg_314" transform="matrix(1, 0, 0, 1, 316.038, 41.688)" height="13" width="5" y="71" x="84" fill="green"/>
  </g>
  <g id="TAG_2_15_1">
   <rect id="TAG_svg_315" transform="matrix(1, 0, 0, 1, 328.705, 67.0213)" height="13" width="5" y="71" x="84" fill="green"/>
   <rect id="TAG_svg_316" transform="matrix(1, 0, 0, 1, 328.705, 41.688)" height="13" width="5" y="71" x="84" fill="green"/>
  </g>
  <g id="TAG_2_22_1">
   <rect id="TAG_svg_317" transform="matrix(1 0 0 1 343.038 95.688) translate(-77 -31.6667) translate(0 -1) translate(0 -1) translate(0 -1) translate(0 -1) translate(0 -1) translate(0 -1) translate(0 -1) translate(0 -1) translate(0 -1) translate(0 -1)" height="13" width="5" y="71" x="84" fill="green"/>
   <rect id="TAG_svg_318" transform="matrix(1, 0, 0, 1, 294.038, 53.688)" height="13" width="5" y="71" x="84" fill="green"/>
  </g>
  <g id="TAG_2_14_3">
   <rect id="TAG_svg_319" transform="matrix(1 0 0 1 343.038 70.3547) translate(-77 -31.6667) translate(0 0)" height="13" width="5" y="71" x="84" fill="green"/>
   <rect id="TAG_svg_320" transform="matrix(1, 0, 0, 1, 294.038, 38.4619)" height="13" width="5" y="71" x="84" fill="green"/>
   <rect id="TAG_svg_321" transform="matrix(1, 0, 0, 1, 294.038, 69.0213)" height="13" width="5" y="71" x="84" fill="green"/>
  </g>
  <g id="TAG_2_11_1">
   <rect id="TAG_svg_322" transform="matrix(1 0 0 1 319.705 220.021) translate(67.1111 -204.444) translate(-39.3333 -28.6667) translate(0 1) translate(0 1) translate(0 1) translate(0 1) translate(0 1) translate(0 1) translate(0 1) translate(0 1) translate(0 1) translate(0 1) translate(0 1) translate(0 -1) translate(0 0)" height="13" width="5" y="71" x="84" fill="green"/>
   <rect id="TAG_svg_323" transform="matrix(1, 0, 0, 1, 358.15, -3.0897)" height="13" width="5" y="71" x="84" fill="green"/>
  </g>
  <g id="TAG_2_6_1">
   <rect id="TAG_svg_324" transform="matrix(1, 0, 0, 1, 347.482, -23.3695)" height="13" width="5" y="71" x="84" fill="green"/>
   <rect id="TAG_svg_325" transform="matrix(1, 0, 0, 1, 358.149, -23.3695)" height="13" width="5" y="71" x="84" fill="green"/>
  </g>
  <g id="TAG_2_10_3">
   <rect id="TAG_svg_326" transform="matrix(1 0 0 1 347.482 -43.6492)" height="13" width="5" y="71" x="84" fill="green"/>
   <rect id="TAG_svg_327" transform="matrix(1, 0, 0, 1, 358.149, -43.6492)" height="13" width="5" y="71" x="84" fill="green"/>
  </g>
  <g id="TAG_2_12_3">
   <rect id="TAG_svg_328" transform="matrix(1 0 0 1 393.037 3.3119) translate(-3.2 3.2) translate(0 -1) translate(0 -1) translate(1 0) translate(1 0) translate(1 0) translate(1 0) translate(0 1) translate(1 0) translate(1 0) translate(-1 0) translate(-1 0)" height="13" width="5" y="71" x="84" fill="green"/>
   <rect id="TAG_svg_329" transform="matrix(1 0 0 1 421.926 3.3119) translate(-3.2 3.2) translate(0 -1) translate(0 -1) translate(1 0) translate(1 0) translate(1 0) translate(1 0) translate(0 1) translate(1 0) translate(1 0) translate(-1 0) translate(-1 0) translate(1 0) translate(1 0) translate(1 0) translate(1 0) translate(1 0)" height="13" width="5" y="71" x="84" fill="green"/>
   <rect id="TAG_svg_330" transform="matrix(1 0 0 1 373.726 5.17857)" height="13" width="5" y="71" x="84" fill="green"/>
  </g>
  <g id="TAG_2_12_1">
   <rect id="TAG_svg_331" transform="matrix(1 0 0 1 373.726 -12.6453)" height="13" width="5" y="71" x="84" fill="green"/>
   <rect id="TAG_svg_332" transform="matrix(1, 0, 0, 1, 393.615, -12.7564)" height="13" width="5" y="71" x="84" fill="green"/>
   <rect id="TAG_svg_333" transform="matrix(1, 0, 0, 1, 410.059, -12.7564)" height="13" width="5" y="71" x="84" fill="green"/>
   <rect id="TAG_svg_334" transform="matrix(1, 0, 0, 1, 428.059, -12.7564)" height="13" width="5" y="71" x="84" fill="green"/>
  </g>
  <g id="TAG_2_6_2">
   <rect id="TAG_svg_335" transform="matrix(1 0 0 1 373.726 -29.9251)" height="13" width="5" y="71" x="84" fill="green"/>
   <rect id="TAG_svg_336" transform="matrix(1 0 0 1 393.615 -30.0362)" height="13" width="5" y="71" x="84" fill="green"/>
   <rect id="TAG_svg_337" transform="matrix(1 0 0 1 410.059 -30.0362)" height="13" width="5" y="71" x="84" fill="green"/>
   <rect id="TAG_svg_338" transform="matrix(1 0 0 1 428.059 -30.0362)" height="13" width="5" y="71" x="84" fill="green"/>
  </g>
  <g id="TAG_2_11_3">
   <rect id="TAG_svg_339" transform="matrix(1, 0, 0, 1, 373.726, -47.2048)" height="13" width="5" y="71" x="84" fill="green"/>
   <rect id="TAG_svg_340" transform="matrix(1, 0, 0, 1, 393.615, -47.3159)" height="13" width="5" y="71" x="84" fill="green"/>
   <rect id="TAG_svg_341" transform="matrix(1, 0, 0, 1, 410.059, -47.3159)" height="13" width="5" y="71" x="84" fill="green"/>
   <rect id="TAG_svg_342" transform="matrix(1, 0, 0, 1, 428.059, -47.3159)" height="13" width="5" y="71" x="84" fill="green"/>
  </g>
  <g id="TAG_2_22_4">
   <rect id="TAG_svg_343" transform="matrix(1 0 0 1 476.699 -132.073)" height="13" width="5" y="156" x="218" fill="green"/>
   <rect id="TAG_svg_344" transform="matrix(1 0 0 1 465.144 -132.073)" height="13" width="5" y="156" x="218" fill="green"/>
   <rect id="TAG_svg_345" transform="matrix(1 0 0 1 452.033 -132.073)" height="13" width="5" y="156" x="218" fill="green"/>
   <rect id="TAG_svg_346" transform="matrix(1 0 0 1 440.477 -132.073)" height="13" width="5" y="156" x="218" fill="green"/>
   <rect id="TAG_svg_347" transform="matrix(1 0 0 1 430.033 -132.073)" height="13" width="5" y="156" x="218" fill="green"/>
  </g>
  <g id="TAG_2_23_2">
   <rect id="TAG_svg_348" transform="matrix(1 0 0 1 373.811 -132.073)" height="13" width="5" y="156" x="218" fill="green"/>
   <rect id="TAG_svg_349" transform="matrix(1 0 0 1 418.033 -132.073)" height="13" width="5" y="156" x="218" fill="green"/>
   <rect id="TAG_svg_350" transform="matrix(1, 0, 0, 1, 406.922, -132.073)" height="13" width="5" y="156" x="218" fill="green"/>
   <rect id="TAG_svg_351" transform="matrix(1 0 0 1 395.144 -132.073)" height="13" width="5" y="156" x="218" fill="green"/>
   <rect id="TAG_svg_352" transform="matrix(1 0 0 1 384.477 -132.073)" height="13" width="5" y="156" x="218" fill="green"/>
  </g>
  <g id="TAG_2_20_2">
   <rect id="TAG_svg_353" transform="matrix(1, 0, 0, 1, 374.209, 69.4933)" height="13" width="5" y="156" x="218" fill="green"/>
   <rect id="TAG_svg_354" transform="matrix(1, 0, 0, 1, 384.875, 69.4933)" height="13" width="5" y="156" x="218" fill="green"/>
   <rect id="TAG_svg_355" transform="matrix(1, 0, 0, 1, 395.542, 69.4933)" height="13" width="5" y="156" x="218" fill="green"/>
   <rect id="TAG_svg_356" transform="matrix(1, 0, 0, 1, 407.32, 69.4933)" height="13" width="5" y="156" x="218" fill="green"/>
   <rect id="TAG_svg_357" transform="matrix(1, 0, 0, 1, 418.431, 69.4933)" height="13" width="5" y="156" x="218" fill="green"/>
  </g>
  <g id="TAG_2_19_4">
   <rect id="TAG_svg_358" transform="matrix(1, 0, 0, 1, 430.431, 69.4933)" height="13" width="5" y="156" x="218" fill="green"/>
   <rect id="TAG_svg_359" transform="matrix(1, 0, 0, 1, 440.875, 69.4933)" height="13" width="5" y="156" x="218" fill="green"/>
   <rect id="TAG_svg_360" transform="matrix(1, 0, 0, 1, 452.431, 69.4933)" height="13" width="5" y="156" x="218" fill="green"/>
   <rect id="TAG_svg_361" transform="matrix(1, 0, 0, 1, 465.542, 69.4933)" height="13" width="5" y="156" x="218" fill="green"/>
   <rect id="TAG_svg_362" transform="matrix(1, 0, 0, 1, 477.097, 69.4933)" height="13" width="5" y="156" x="218" fill="green"/>
  </g>
  <g id="TAG_1_30_1">
   <ellipse id="TAG_svg_363" ry="3" rx="3" cy="177" cx="78" fill="green"/>
   <ellipse id="TAG_svg_364" ry="3" rx="3" cy="215" cx="78" fill="green"/>
  </g>
  <g id="TAG_1_30_3">
   <ellipse id="TAG_svg_365" ry="3" rx="3" cy="185" cx="551" fill="green"/>
   <ellipse id="TAG_svg_366" ry="3" rx="3" cy="225" cx="551" fill="green"/>
  </g>
  <text id="TAG_svg_367" font-size="15px" font-weight="bold" y="20" x="10">4</text>
 </g>
</svg>