<svg width="780" height="600" xmlns="http://www.w3.org/2000/svg" xmlns:svg="http://www.w3.org/2000/svg" xmlns:xlink="http://www.w3.org/1999/xlink">
 <g>
  <title>Layer 1</title>
  <image xlink:href="appPasteur/modules/others/lighting/point-monitor/svg/F05.png" id="TAG_svg_back" height="600" width="780" y="0" x="0"/>
 </g>
 <g>
  <title>Layer 1</title>
  <g id="TAG_3_27_1">
   <ellipse id="TAG_svg_1" transform="matrix(1, 0, 0, 1, 18.3455, -1.17374)" ry="3" rx="3" cy="113" cx="20" fill="green"/>
   <ellipse id="TAG_svg_2" transform="matrix(1 0 0 1 58.3657 3.71515) translate(-25.1111 -4.88889) translate(-1 0)" ry="3" rx="3" cy="113" cx="20" fill="green"/>
   <ellipse id="TAG_svg_3" transform="matrix(1 0 0 1 73.6384 3.89697) translate(-25.1111 -4.88889) translate(-1 0) translate(-1 0)" ry="3" rx="3" cy="113" cx="20" fill="green"/>
   <ellipse id="TAG_svg_4" transform="matrix(1 0 0 1 89.4566 3.71515) translate(-25.1111 -4.88889) translate(-1 0) translate(-1 0) translate(-1 0) translate(1 0) translate(-1 0)" ry="3" rx="3" cy="113" cx="20" fill="green"/>
   <ellipse id="TAG_svg_5" transform="matrix(1 0 0 1 43.4566 20.3818) translate(-25.1111 -4.88889) translate(0 -1)" ry="3" rx="3" cy="113" cx="20" fill="green"/>
   <ellipse id="TAG_svg_6" transform="matrix(1 0 0 1 58.3657 20.3818) translate(-25.1111 -4.88889) translate(-1 0) translate(0 -1)" ry="3" rx="3" cy="113" cx="20" fill="green"/>
   <ellipse id="TAG_svg_7" transform="matrix(1 0 0 1 73.6384 20.5636) translate(-25.1111 -4.88889) translate(-1 0) translate(-1 0) translate(0 -1)" ry="3" rx="3" cy="113" cx="20" fill="green"/>
   <ellipse id="TAG_svg_8" transform="matrix(1 0 0 1 89.4566 20.3818) translate(-25.1111 -4.88889) translate(-1 0) translate(-1 0) translate(-1 0) translate(1 0) translate(-1 0) translate(0 -1)" ry="3" rx="3" cy="113" cx="20" fill="green"/>
  </g>
  <g id="TAG_3_33_4">
   <ellipse id="TAG_svg_9" transform="matrix(1 0 0 1 43.4566 37.0485) translate(-25.1111 -4.88889) translate(0 -1) translate(0 -1)" ry="3" rx="3" cy="113" cx="20" fill="green"/>
   <ellipse id="TAG_svg_10" transform="matrix(1 0 0 1 58.3657 37.0485) translate(-25.1111 -4.88889) translate(-1 0) translate(0 -1) translate(0 -1)" ry="3" rx="3" cy="113" cx="20" fill="green"/>
   <ellipse id="TAG_svg_11" transform="matrix(1 0 0 1 73.6384 37.2303) translate(-25.1111 -4.88889) translate(-1 0) translate(-1 0) translate(0 -1) translate(0 -1)" ry="3" rx="3" cy="113" cx="20" fill="green"/>
   <ellipse id="TAG_svg_12" transform="matrix(1 0 0 1 89.4566 37.0485) translate(-25.1111 -4.88889) translate(-1 0) translate(-1 0) translate(-1 0) translate(1 0) translate(-1 0) translate(0 -1) translate(0 -1)" ry="3" rx="3" cy="113" cx="20" fill="green"/>
   <ellipse id="TAG_svg_13" transform="matrix(1 0 0 1 43.4565 53.7151) translate(-25.1111 -4.88889) translate(0 -1) translate(0 -1) translate(0 -1)" ry="3" rx="3" cy="113" cx="20" fill="green"/>
   <ellipse id="TAG_svg_14" transform="matrix(1 0 0 1 58.3656 53.7151) translate(-25.1111 -4.88889) translate(-1 0) translate(0 -1) translate(0 -1) translate(0 -1)" ry="3" rx="3" cy="113" cx="20" fill="green"/>
   <ellipse id="TAG_svg_15" transform="matrix(1 0 0 1 73.6383 53.8969) translate(-25.1111 -4.88889) translate(-1 0) translate(-1 0) translate(0 -1) translate(0 -1) translate(0 -1)" ry="3" rx="3" cy="113" cx="20" fill="green"/>
   <ellipse id="TAG_svg_16" transform="matrix(1 0 0 1 89.4565 53.7151) translate(-25.1111 -4.88889) translate(-1 0) translate(-1 0) translate(-1 0) translate(1 0) translate(-1 0) translate(0 -1) translate(0 -1) translate(0 -1)" ry="3" rx="3" cy="113" cx="20" fill="green"/>
  </g>
  <g id="TAG_3_34_4">
   <rect id="TAG_svg_17" transform="matrix(1 0 0 1 -87 43.3333)" height="13" width="5" y="129" x="185" fill="green"/>
   <rect id="TAG_svg_18" transform="matrix(1, 0, 0, 1, -68.3333, 43.3333)" height="13" width="5" y="129" x="185" fill="green"/>
  </g>
  <g id="TAG_3_33_2">
   <ellipse id="TAG_svg_19" transform="matrix(1 0 0 1 52.0279 103.287) translate(-25.1111 -4.88889) translate(1 0) translate(0 -1)" ry="3" rx="3" cy="113" cx="20" fill="green"/>
   <ellipse id="TAG_svg_20" transform="matrix(1 0 0 1 52.028 77.6199) translate(-25.1111 -4.88889) translate(1 0) translate(0 1)" ry="3" rx="3" cy="113" cx="20" fill="green"/>
  </g>
  <g id="TAG_3_41_3">
   <rect id="TAG_svg_21" transform="matrix(1 0 0 1 359.605 2.8667) translate(129.2 4) translate(0 -1)" height="13" width="5" y="71" x="84" fill="green"/>
   <rect id="TAG_svg_22" transform="matrix(1 0 0 1 371.605 3.0889) translate(129.2 4) translate(0 -1) translate(1 0)" height="13" width="5" y="71" x="84" fill="green"/>
  </g>
  <g id="TAG_3_32_4">
   <rect id="TAG_svg_23" transform="matrix(1 0 0 1 359.605 -20.2168) translate(129.2 4) translate(0 -1) translate(0 -1) translate(0 -1) translate(0 -1) translate(0 1)" height="13" width="5" y="71" x="84" fill="green"/>
   <rect id="TAG_svg_24" transform="matrix(1 0 0 1 371.605 -19.9946) translate(129.2 4) translate(0 -1) translate(0 -1) translate(0 -1) translate(1 0)" height="13" width="5" y="71" x="84" fill="green"/>
  </g>
  <g id="TAG_3_41_1">
   <rect id="TAG_svg_25" transform="matrix(1 0 0 1 225.605 -128.3) translate(129.2 4) translate(0 -1) translate(0 -1) translate(0 -1) translate(0 -1) translate(0 -1)" height="13" width="5" y="156" x="218" fill="green"/>
   <rect id="TAG_svg_26" transform="matrix(1 0 0 1 237.605 -128.078) translate(129.2 4) translate(0 -1) translate(0 -1) translate(0 -1) translate(0 -1) translate(0 -1) translate(1 0)" height="13" width="5" y="156" x="218" fill="green"/>
  </g>
  <g id="TAG_3_38_1">
   <rect id="TAG_svg_27" transform="matrix(1, 0, 0, 1, 392.455, -113.073)" height="13" width="5" y="156" x="218" fill="green"/>
   <rect id="TAG_svg_28" transform="matrix(1 0 0 1 526.455 -13.3232)" height="13" width="5" y="71" x="84" fill="green"/>
   <rect id="TAG_svg_29" transform="matrix(1 0 0 1 526.455 1.42653)" height="13" width="5" y="71" x="84" fill="green"/>
   <rect id="TAG_svg_30" transform="matrix(1 0 0 1 395.255 16.1763) translate(129.2 4) translate(0 -1) translate(0 -1) translate(0 -1) translate(0 -1) translate(1 0) translate(1 0) translate(0 -1) translate(0 -1) translate(0 1) translate(0 1)" height="13" width="5" y="71" x="84" fill="green"/>
  </g>
  <g id="TAG_3_42_4">
   <rect id="TAG_svg_31" transform="matrix(1 0 0 1 395.71 135.63) translate(129.2 4) translate(1 0) translate(1 0) translate(0 -1) translate(0 -1) translate(0 -1)" height="13" width="5" y="71" x="84" fill="green"/>
   <rect id="TAG_svg_32" transform="matrix(1 0 0 1 395.71 119.881) translate(129.2 4) translate(1 0) translate(1 0) translate(0 -1) translate(0 -1) translate(0 -1)" height="13" width="5" y="71" x="84" fill="green"/>
   <rect id="TAG_svg_33" transform="matrix(1 0 0 1 395.71 104.131) translate(129.2 4) translate(1 0) translate(1 0) translate(0 -1) translate(0 -1) translate(0 -1)" height="13" width="5" y="71" x="84" fill="green"/>
   <rect id="TAG_svg_34" transform="matrix(1 0 0 1 261.71 3.3815) translate(129.2 4) translate(1 0) translate(1 0) translate(0 -1) translate(0 -1) translate(0 -1) translate(0 0)" height="13" width="5" y="156" x="218" fill="green"/>
  </g>
  <g id="TAG_3_30_1">
   <rect id="TAG_svg_35" transform="matrix(1 0 0 1 424.073 134.903) translate(129.2 4) translate(0.285714 -0.857143) translate(0 -1) translate(-1 0) translate(-1 0) translate(1 0) translate(0 -1) translate(0 1)" height="13" width="5" y="71" x="84" fill="green"/>
   <rect id="TAG_svg_36" transform="matrix(1 0 0 1 424.073 119.154) translate(129.2 4) translate(0.285714 -0.857143) translate(0 -1) translate(-1 0) translate(-1 0) translate(1 0) translate(0 -1) translate(0 1)" height="13" width="5" y="71" x="84" fill="green"/>
   <rect id="TAG_svg_37" transform="matrix(1 0 0 1 424.073 103.404) translate(129.2 4) translate(0.285714 -0.857143) translate(0 -1) translate(-1 0) translate(-1 0) translate(1 0) translate(0 -1) translate(0 1)" height="13" width="5" y="71" x="84" fill="green"/>
   <rect id="TAG_svg_38" transform="matrix(1 0 0 1 290.073 2.6543) translate(129.2 4) translate(0.285714 -0.857143) translate(0 -1) translate(-1 0) translate(-1 0) translate(1 0) translate(0 -1) translate(0 1)" height="13" width="5" y="156" x="218" fill="green"/>
  </g>
  <g id="TAG_3_42_2">
   <rect id="TAG_svg_39" transform="matrix(1 0 0 1 452.346 135.267) translate(129.2 4) translate(0.285714 -0.857143) translate(0 -1) translate(-1 0) translate(-1 0) translate(1 0) translate(0 -1) translate(0 1) translate(-1 0)" height="13" width="5" y="71" x="84" fill="green"/>
   <rect id="TAG_svg_40" transform="matrix(1 0 0 1 452.346 119.518) translate(129.2 4) translate(0.285714 -0.857143) translate(0 -1) translate(-1 0) translate(-1 0) translate(1 0) translate(0 -1) translate(0 1) translate(-1 0)" height="13" width="5" y="71" x="84" fill="green"/>
   <rect id="TAG_svg_41" transform="matrix(1 0 0 1 452.346 103.768) translate(129.2 4) translate(0.285714 -0.857143) translate(0 -1) translate(-1 0) translate(-1 0) translate(1 0) translate(0 -1) translate(0 1) translate(-1 0)" height="13" width="5" y="71" x="84" fill="green"/>
   <rect id="TAG_svg_42" transform="matrix(1 0 0 1 318.346 3.0179) translate(129.2 4) translate(0.285714 -0.857143) translate(0 -1) translate(-1 0) translate(-1 0) translate(1 0) translate(0 -1) translate(0 1) translate(-1 0)" height="13" width="5" y="156" x="218" fill="green"/>
  </g>
  <g id="TAG_3_29_4">
   <rect id="TAG_svg_43" transform="matrix(1 0 0 1 479.073 134.994) translate(129.2 4) translate(0.285714 -0.857143) translate(0 -1) translate(-1 0) translate(-1 0) translate(1 0) translate(0 -1) translate(0 1) translate(-1 0)" height="13" width="5" y="71" x="84" fill="green"/>
   <rect id="TAG_svg_44" transform="matrix(1 0 0 1 479.073 119.245) translate(129.2 4) translate(0.285714 -0.857143) translate(0 -1) translate(-1 0) translate(-1 0) translate(1 0) translate(0 -1) translate(0 1) translate(-1 0)" height="13" width="5" y="71" x="84" fill="green"/>
   <rect id="TAG_svg_45" transform="matrix(1 0 0 1 479.073 103.495) translate(129.2 4) translate(0.285714 -0.857143) translate(0 -1) translate(-1 0) translate(-1 0) translate(1 0) translate(0 -1) translate(0 1) translate(-1 0)" height="13" width="5" y="71" x="84" fill="green"/>
   <rect id="TAG_svg_46" transform="matrix(1 0 0 1 345.073 2.7452) translate(129.2 4) translate(0 -1) translate(-1 0) translate(-1 0) translate(1 0) translate(0 -1) translate(0 1) translate(-1 0)" height="13" width="5" y="156" x="218" fill="green"/>
  </g>
  <g id="TAG_3_39_3">
   <rect id="TAG_svg_47" transform="matrix(1 0 0 1 423.891 51.2223) translate(129.2 4) translate(1 0) translate(1 0) translate(1 0) translate(0 -1)" height="13" width="5" y="71" x="84" fill="green"/>
   <rect id="TAG_svg_48" transform="matrix(1 0 0 1 408.891 51.2223) translate(129.2 4) translate(1 0) translate(1 0) translate(0 -1)" height="13" width="5" y="71" x="84" fill="green"/>
   <rect id="TAG_svg_49" transform="matrix(1 0 0 1 394.71 51.2223) translate(129.2 4) translate(-1 0) translate(0 -1)" height="13" width="5" y="71" x="84" fill="green"/>
  </g>
  <g id="TAG_3_29_3">
   <rect id="TAG_svg_50" transform="matrix(1 0 0 1 260.71 -49.5275) translate(129.2 4) translate(0 -1) translate(0 -1) translate(0 -1) translate(0 -1) translate(-1 0)" height="13" width="5" y="156" x="218" fill="green"/>
   <rect id="TAG_svg_51" transform="matrix(1 0 0 1 423.891 67.7678) translate(129.2 4) translate(1 0) translate(1 0) translate(1 0) translate(0 1)" height="13" width="5" y="71" x="84" fill="green"/>
  </g>
  <g id="TAG_3_40_1">
   <ellipse id="TAG_svg_52" transform="matrix(1, 0, 0, 1, 696.971, 0.886303)" ry="3" rx="3" cy="113" cx="20" fill="green"/>
   <ellipse id="TAG_svg_53" transform="matrix(1 0 0 1 710.896 0.856)" ry="3" rx="3" cy="113" cx="20" fill="green"/>
   <ellipse id="TAG_svg_54" transform="matrix(1 0 0 1 723.639 0.856)" ry="3" rx="3" cy="113" cx="20" fill="green"/>
   <ellipse id="TAG_svg_55" transform="matrix(1 0 0 1 737.382 0.856)" ry="3" rx="3" cy="113" cx="20" fill="green"/>
   <ellipse id="TAG_svg_56" transform="matrix(1 0 0 1 565.862 14.5833) translate(129.2 4) translate(1 0) translate(1 0) translate(0 -1) translate(0 -1) translate(0 -1) translate(0 1)" ry="3" rx="3" cy="113" cx="20" fill="green"/>
   <ellipse id="TAG_svg_57" transform="matrix(1 0 0 1 579.605 14.5833) translate(129.2 4) translate(1 0) translate(1 0) translate(0 -1) translate(0 -1) translate(0 -1) translate(0 1)" ry="3" rx="3" cy="113" cx="20" fill="green"/>
   <ellipse id="TAG_svg_58" transform="matrix(1 0 0 1 592.348 14.5833) translate(129.2 4) translate(1 0) translate(1 0) translate(0 -1) translate(0 -1) translate(0 -1) translate(0 1)" ry="3" rx="3" cy="113" cx="20" fill="green"/>
   <ellipse id="TAG_svg_59" transform="matrix(1 0 0 1 606.091 14.5833) translate(129.2 4) translate(1 0) translate(1 0) translate(0 -1) translate(0 -1) translate(0 -1) translate(0 1)" ry="3" rx="3" cy="113" cx="20" fill="green"/>
  </g>
  <g id="TAG_3_30_2">
   <ellipse id="TAG_svg_60" transform="matrix(1 0 0 1 697.062 31.9469)" ry="3" rx="3" cy="113" cx="20" fill="green"/>
   <ellipse id="TAG_svg_61" transform="matrix(1 0 0 1 710.805 31.9469)" ry="3" rx="3" cy="113" cx="20" fill="green"/>
   <ellipse id="TAG_svg_62" transform="matrix(1 0 0 1 723.548 31.9469)" ry="3" rx="3" cy="113" cx="20" fill="green"/>
   <ellipse id="TAG_svg_63" transform="matrix(1 0 0 1 737.291 31.9469)" ry="3" rx="3" cy="113" cx="20" fill="green"/>
   <ellipse id="TAG_svg_64" transform="matrix(1 0 0 1 565.498 47.6742) translate(129.2 4) translate(1 0) translate(1 0) translate(0 -1) translate(0 -1) translate(0 -1)" ry="3" rx="3" cy="113" cx="20" fill="green"/>
   <ellipse id="TAG_svg_65" transform="matrix(1 0 0 1 579.241 47.6742) translate(129.2 4) translate(1 0) translate(1 0) translate(0 -1) translate(0 -1) translate(0 -1)" ry="3" rx="3" cy="113" cx="20" fill="green"/>
   <ellipse id="TAG_svg_66" transform="matrix(1 0 0 1 591.984 47.6742) translate(129.2 4) translate(1 0) translate(1 0) translate(0 -1) translate(0 -1) translate(0 -1)" ry="3" rx="3" cy="113" cx="20" fill="green"/>
   <ellipse id="TAG_svg_67" transform="matrix(1 0 0 1 605.727 47.6742) translate(129.2 4) translate(1 0) translate(1 0) translate(0 -1) translate(0 -1) translate(0 -1)" ry="3" rx="3" cy="113" cx="20" fill="green"/>
  </g>
  <g id="TAG_3_39_1">
   <ellipse id="TAG_svg_68" transform="matrix(1 0 0 1 584.54 72.6742) translate(129.2 4) translate(1 0) translate(1 0) translate(1 0) translate(0 -1) translate(0 -1)" ry="3" rx="3" cy="113" cx="20" fill="green"/>
   <ellipse id="TAG_svg_69" transform="matrix(1 0 0 1 584.873 98.452) translate(129.2 4) translate(1 0) translate(1 0) translate(1 0) translate(0 -1) translate(0 -1)" ry="3" rx="3" cy="113" cx="20" fill="green"/>
  </g>
  <g id="TAG_3_36_3">
   <rect id="TAG_svg_70" transform="matrix(1 0 0 1 484.899 -129.823)" height="13" width="5" y="156" x="218" fill="green"/>
   <rect id="TAG_svg_71" transform="matrix(1 0 0 1 472.094 -129.823)" height="13" width="5" y="156" x="218" fill="green"/>
   <rect id="TAG_svg_72" transform="matrix(1 0 0 1 460.733 -129.823)" height="13" width="5" y="156" x="218" fill="green"/>
   <rect id="TAG_svg_73" transform="matrix(1 0 0 1 449.427 -129.823)" height="13" width="5" y="156" x="218" fill="green"/>
   <rect id="TAG_svg_74" transform="matrix(1 0 0 1 438.233 -129.823)" height="13" width="5" y="156" x="218" fill="green"/>
  </g>
  <g id="TAG_3_37_3">
   <rect id="TAG_svg_75" transform="matrix(1 0 0 1 380.011 -129.823)" height="13" width="5" y="156" x="218" fill="green"/>
   <rect id="TAG_svg_76" transform="matrix(1 0 0 1 426.233 -129.823)" height="13" width="5" y="156" x="218" fill="green"/>
   <rect id="TAG_svg_77" transform="matrix(1 0 0 1 414.872 -129.823)" height="13" width="5" y="156" x="218" fill="green"/>
   <rect id="TAG_svg_78" transform="matrix(1 0 0 1 403.344 -129.823)" height="13" width="5" y="156" x="218" fill="green"/>
   <rect id="TAG_svg_79" transform="matrix(1 0 0 1 392.677 -129.823)" height="13" width="5" y="156" x="218" fill="green"/>
  </g>
  <g id="TAG_3_41_4">
   <rect id="TAG_svg_80" transform="matrix(1 0 0 1 251.209 67.4933) translate(129.2 4) translate(0 -1) translate(0 -1) translate(0 -1)" height="13" width="5" y="156" x="218" fill="green"/>
   <rect id="TAG_svg_81" transform="matrix(1 0 0 1 261.875 67.4933) translate(129.2 4) translate(0 -1) translate(0 -1) translate(1 0) translate(0 -1)" height="13" width="5" y="156" x="218" fill="green"/>
   <rect id="TAG_svg_82" transform="matrix(1 0 0 1 272.542 67.4933) translate(129.2 4) translate(0 -1) translate(0 -1) translate(1 0) translate(0 -1)" height="13" width="5" y="156" x="218" fill="green"/>
   <rect id="TAG_svg_83" transform="matrix(1 0 0 1 284.32 67.4933) translate(129.2 4) translate(0 -1) translate(0 -1) translate(1 0) translate(0 -1)" height="13" width="5" y="156" x="218" fill="green"/>
   <rect id="TAG_svg_84" transform="matrix(1 0 0 1 295.431 67.4933) translate(129.2 4) translate(0 -1) translate(0 -1) translate(1 0) translate(0 -1)" height="13" width="5" y="156" x="218" fill="green"/>
  </g>
  <g id="TAG_3_41_2">
   <rect id="TAG_svg_85" transform="matrix(1 0 0 1 307.431 67.4933) translate(129.2 4) translate(0 -1) translate(0 -1) translate(1 0) translate(0 -1)" height="13" width="5" y="156" x="218" fill="green"/>
   <rect id="TAG_svg_86" transform="matrix(1 0 0 1 317.875 67.4933) translate(129.2 4) translate(0 -1) translate(0 -1) translate(1 0) translate(1 0) translate(0 -1)" height="13" width="5" y="156" x="218" fill="green"/>
   <rect id="TAG_svg_87" transform="matrix(1 0 0 1 329.431 67.4933) translate(129.2 4) translate(0 -1) translate(0 -1) translate(1 0) translate(1 0) translate(0 -1)" height="13" width="5" y="156" x="218" fill="green"/>
   <rect id="TAG_svg_88" transform="matrix(1 0 0 1 342.542 67.4933) translate(129.2 4) translate(0 -1) translate(0 -1) translate(1 0) translate(0 -1)" height="13" width="5" y="156" x="218" fill="green"/>
   <rect id="TAG_svg_89" transform="matrix(1 0 0 1 354.097 67.4933) translate(129.2 4) translate(0 -1) translate(0 -1) translate(1 0) translate(0 -1)" height="13" width="5" y="156" x="218" fill="green"/>
  </g>
  <g id="TAG_3_30_4">
   <rect id="TAG_svg_90" transform="matrix(1 0 0 1 481.455 -55.073) translate(-62.8 -58.4) translate(0 0)" height="13" width="5" y="156" x="218" fill="green"/>
   <rect id="TAG_svg_91" transform="matrix(1, 0, 0, 1, 552.655, -13.7232)" height="13" width="5" y="71" x="84" fill="green"/>
   <rect id="TAG_svg_92" transform="matrix(1, 0, 0, 1, 552.655, 1.0265)" height="13" width="5" y="71" x="84" fill="green"/>
   <rect id="TAG_svg_93" transform="matrix(1, 0, 0, 1, 552.655, 15.7763)" height="13" width="5" y="71" x="84" fill="green"/>
  </g>
  <g id="TAG_3_37_1">
   <rect id="TAG_svg_94" transform="matrix(1, 0, 0, 1, 445.055, -113.873)" height="13" width="5" y="156" x="218" fill="green"/>
   <rect id="TAG_svg_95" transform="matrix(1, 0, 0, 1, 579.055, -14.1232)" height="13" width="5" y="71" x="84" fill="green"/>
   <rect id="TAG_svg_96" transform="matrix(1, 0, 0, 1, 579.055, 0.626499)" height="13" width="5" y="71" x="84" fill="green"/>
   <rect id="TAG_svg_97" transform="matrix(1, 0, 0, 1, 579.055, 15.3763)" height="13" width="5" y="71" x="84" fill="green"/>
  </g>
  <g id="TAG_3_30_3">
   <rect id="TAG_svg_98" transform="matrix(1, 0, 0, 1, 471.855, -113.473)" height="13" width="5" y="156" x="218" fill="green"/>
   <rect id="TAG_svg_99" transform="matrix(1, 0, 0, 1, 605.855, -13.7232)" height="13" width="5" y="71" x="84" fill="green"/>
   <rect id="TAG_svg_100" transform="matrix(1, 0, 0, 1, 605.855, 1.0265)" height="13" width="5" y="71" x="84" fill="green"/>
   <rect id="TAG_svg_101" transform="matrix(1, 0, 0, 1, 605.855, 15.7763)" height="13" width="5" y="71" x="84" fill="green"/>
  </g>
  <g id="TAG_3_40_3">
   <rect id="TAG_svg_102" transform="matrix(1 0 0 1 360.805 -58.3) translate(-47.5 -71.5) translate(0 0)" height="13" width="5" y="156" x="218" fill="green"/>
   <rect id="TAG_svg_103" transform="matrix(1, 0, 0, 1, 327.305, -129.8)" height="13" width="5" y="156" x="218" fill="green"/>
   <rect id="TAG_svg_104" transform="matrix(1, 0, 0, 1, 340.805, -129.8)" height="13" width="5" y="156" x="218" fill="green"/>
  </g>
  <g id="TAG_3_32_3">
   <rect id="TAG_svg_105" transform="matrix(1, 0, 0, 1, 447.305, -19.7168)" height="13" width="5" y="71" x="84" fill="green"/>
   <rect id="TAG_svg_106" transform="matrix(1, 0, 0, 1, 447.305, 5.3667)" height="13" width="5" y="71" x="84" fill="green"/>
   <rect id="TAG_svg_107" transform="matrix(1, 0, 0, 1, 461.305, -19.7168)" height="13" width="5" y="71" x="84" fill="green"/>
   <rect id="TAG_svg_108" transform="matrix(1, 0, 0, 1, 461.305, 5.3667)" height="13" width="5" y="71" x="84" fill="green"/>
   <rect id="TAG_svg_109" transform="matrix(1, 0, 0, 1, 474.805, -19.7168)" height="13" width="5" y="71" x="84" fill="green"/>
   <rect id="TAG_svg_110" transform="matrix(1, 0, 0, 1, 474.805, 5.3667)" height="13" width="5" y="71" x="84" fill="green"/>
  </g>
  <g id="TAG_3_32_2">
   <rect id="TAG_svg_111" transform="matrix(1, 0, 0, 1, 413.083, 5.25559)" height="13" width="5" y="71" x="84" fill="green"/>
  </g>
  <g id="TAG_3_35_3">
   <rect id="TAG_svg_112" transform="matrix(1, 0, 0, 1, 430.638, 5.25559)" height="13" width="5" y="71" x="84" fill="green"/>
   <rect id="TAG_svg_113" transform="matrix(1 0 0 1 394.805 4.58892) translate(0 0.666667) translate(0 0)" height="13" width="5" y="71" x="84" fill="green"/>
  </g>
  <g id="TAG_3_31_2">
   <ellipse id="TAG_svg_114" transform="matrix(1 0 0 1 429.771 59.856) translate(36.5714 -4) translate(-1 0)" ry="3" rx="3" cy="113" cx="20" fill="green"/>
   <ellipse id="TAG_svg_115" transform="matrix(1, 0, 0, 1, 496.494, 55.856)" ry="3" rx="3" cy="113" cx="20" fill="green"/>
   <ellipse id="TAG_svg_116" transform="matrix(1, 0, 0, 1, 526.647, 55.856)" ry="3" rx="3" cy="113" cx="20" fill="green"/>
   <ellipse id="TAG_svg_117" transform="matrix(1, 0, 0, 1, 481.751, 84.856)" ry="3" rx="3" cy="113" cx="20" fill="green"/>
   <ellipse id="TAG_svg_118" transform="matrix(1, 0, 0, 1, 511.904, 84.856)" ry="3" rx="3" cy="113" cx="20" fill="green"/>
   <ellipse id="TAG_svg_119" transform="matrix(1 0 0 1 444.847 29.856) translate(36.5714 -4) translate(0 1) translate(0 1) translate(0 1)" ry="3" rx="3" cy="113" cx="20" fill="green"/>
  </g>
  <g id="TAG_3_31_1">
   <ellipse id="TAG_svg_120" transform="matrix(1 0 0 1 414.694 59.856) translate(36.5714 -4) translate(-1 0) translate(0 1) translate(0 -1)" ry="3" rx="3" cy="113" cx="20" fill="green"/>
   <ellipse id="TAG_svg_121" transform="matrix(1, 0, 0, 1, 481.418, 55.856)" ry="3" rx="3" cy="113" cx="20" fill="green"/>
   <ellipse id="TAG_svg_122" transform="matrix(1, 0, 0, 1, 511.571, 55.856)" ry="3" rx="3" cy="113" cx="20" fill="green"/>
   <ellipse id="TAG_svg_123" transform="matrix(1 0 0 1 430.104 88.856) translate(36.5714 -4) translate(-1 0)" ry="3" rx="3" cy="113" cx="20" fill="green"/>
   <ellipse id="TAG_svg_124" transform="matrix(1, 0, 0, 1, 496.827, 84.856)" ry="3" rx="3" cy="113" cx="20" fill="green"/>
   <ellipse id="TAG_svg_125" transform="matrix(1 0 0 1 459.18 29.856) translate(36.5714 -4) translate(0 1) translate(0 1) translate(0 1)" ry="3" rx="3" cy="113" cx="20" fill="green"/>
  </g>
  <g id="TAG_3_42_1">
   <ellipse id="TAG_svg_126" transform="matrix(1 0 0 1 430.104 74.856) translate(36.5714 -4) translate(-1 0)" ry="3" rx="3" cy="113" cx="20" fill="green"/>
   <ellipse id="TAG_svg_127" transform="matrix(1, 0, 0, 1, 496.827, 70.856)" ry="3" rx="3" cy="113" cx="20" fill="green"/>
   <ellipse id="TAG_svg_128" transform="matrix(1, 0, 0, 1, 481.751, 99.189)" ry="3" rx="3" cy="113" cx="20" fill="green"/>
   <ellipse id="TAG_svg_129" transform="matrix(1 0 0 1 474.333 103.189) translate(36.5714 -4) translate(1 0)" ry="3" rx="3" cy="113" cx="20" fill="green"/>
   <ellipse id="TAG_svg_130" transform="matrix(1 0 0 1 429.104 118.189) translate(36.5714 -4) translate(0 1)" ry="3" rx="3" cy="113" cx="20" fill="green"/>
   <ellipse id="TAG_svg_131" transform="matrix(1 0 0 1 459.256 118.189) translate(36.5714 -4) translate(0 1)" ry="3" rx="3" cy="113" cx="20" fill="green"/>
   <ellipse id="TAG_svg_132" transform="matrix(1 0 0 1 444.847 44.5227) translate(36.5714 -4) translate(0 1) translate(0 1)" ry="3" rx="3" cy="113" cx="20" fill="green"/>
   <ellipse id="TAG_svg_133" transform="matrix(1 0 0 1 444.847 4.18933) translate(36.5714 -4) translate(0 1) translate(0 1)" ry="3" rx="3" cy="113" cx="20" fill="green"/>
   <ellipse id="TAG_svg_134" transform="matrix(1 0 0 1 459.18 17.1893) translate(36.5714 -4) translate(0 1) translate(0 1)" ry="3" rx="3" cy="113" cx="20" fill="green"/>
  </g>
  <g id="TAG_3_42_3">
   <ellipse id="TAG_svg_135" transform="matrix(1, 0, 0, 1, 481.751, 70.856)" ry="3" rx="3" cy="113" cx="20" fill="green"/>
   <ellipse id="TAG_svg_136" transform="matrix(1 0 0 1 475.333 74.856) translate(36.5714 -4) translate(0 0)" ry="3" rx="3" cy="113" cx="20" fill="green"/>
   <ellipse id="TAG_svg_137" transform="matrix(1, 0, 0, 1, 465.675, 99.189)" ry="3" rx="3" cy="113" cx="20" fill="green"/>
   <ellipse id="TAG_svg_138" transform="matrix(1, 0, 0, 1, 495.827, 99.189)" ry="3" rx="3" cy="113" cx="20" fill="green"/>
   <ellipse id="TAG_svg_139" transform="matrix(1 0 0 1 445.18 118.189) translate(36.5714 -4) translate(0 1)" ry="3" rx="3" cy="113" cx="20" fill="green"/>
   <ellipse id="TAG_svg_140" transform="matrix(1 0 0 1 474.333 118.189) translate(36.5714 -4) translate(1 0) translate(0 1)" ry="3" rx="3" cy="113" cx="20" fill="green"/>
   <ellipse id="TAG_svg_141" transform="matrix(1 0 0 1 444.847 17.1893) translate(36.5714 -4) translate(0 1) translate(0 1) translate(0 0)" ry="3" rx="3" cy="113" cx="20" fill="green"/>
   <ellipse id="TAG_svg_142" transform="matrix(1 0 0 1 459.18 44.5227) translate(36.5714 -4) translate(0 1) translate(0 1) translate(0 0)" ry="3" rx="3" cy="113" cx="20" fill="green"/>
   <ellipse id="TAG_svg_143" transform="matrix(1 0 0 1 459.18 4.18933) translate(36.5714 -4) translate(0 1) translate(0 1) translate(0 0)" ry="3" rx="3" cy="113" cx="20" fill="green"/>
  </g>
  <g id="TAG_3_35_1">
   <ellipse id="TAG_svg_144" transform="matrix(1 0 0 1 444.793 -41.3666) translate(0 -1) translate(0 -1) translate(0 -1) translate(0 -1) translate(0 -1)" ry="3" rx="3" cy="113" cx="20" fill="green"/>
   <ellipse id="TAG_svg_145" transform="matrix(1 0 0 1 444.793 -55.6996) translate(0 -1) translate(0 -1) translate(0 -1)" ry="3" rx="3" cy="113" cx="20" fill="green"/>
   <ellipse id="TAG_svg_146" transform="matrix(1 0 0 1 444.793 -69.6996) translate(0 -1) translate(0 -1)" ry="3" rx="3" cy="113" cx="20" fill="green"/>
   <ellipse id="TAG_svg_147" transform="matrix(1 0 0 1 444.793 -84.6996)" ry="3" rx="3" cy="113" cx="20" fill="green"/>
   <ellipse id="TAG_svg_148" transform="matrix(1, 0, 0, 1, 457.571, -46.811)" ry="3" rx="3" cy="113" cx="20" fill="green"/>
   <ellipse id="TAG_svg_149" transform="matrix(1, 0, 0, 1, 457.571, -59.144)" ry="3" rx="3" cy="113" cx="20" fill="green"/>
   <ellipse id="TAG_svg_150" transform="matrix(1, 0, 0, 1, 457.571, -72.144)" ry="3" rx="3" cy="113" cx="20" fill="green"/>
   <ellipse id="TAG_svg_151" transform="matrix(1, 0, 0, 1, 457.571, -85.144)" ry="3" rx="3" cy="113" cx="20" fill="green"/>
  </g>
  <g id="TAG_3_32_1">
   <ellipse id="TAG_svg_152" transform="matrix(1 0 0 1 444.793 -25.3666) translate(0 -1) translate(0 -1) translate(0 -1) translate(0 -1) translate(0 -1) translate(0 -1) translate(0 -1)" ry="3" rx="3" cy="113" cx="20" fill="green"/>
   <ellipse id="TAG_svg_153" transform="matrix(1, 0, 0, 1, 470.015, -46.811)" ry="3" rx="3" cy="113" cx="20" fill="green"/>
   <ellipse id="TAG_svg_154" transform="matrix(1, 0, 0, 1, 470.015, -59.144)" ry="3" rx="3" cy="113" cx="20" fill="green"/>
   <ellipse id="TAG_svg_155" transform="matrix(1, 0, 0, 1, 470.015, -72.144)" ry="3" rx="3" cy="113" cx="20" fill="green"/>
   <ellipse id="TAG_svg_156" transform="matrix(1, 0, 0, 1, 470.015, -85.144)" ry="3" rx="3" cy="113" cx="20" fill="green"/>
  </g>
  <g id="TAG_3_34_3">
   <ellipse id="TAG_svg_157" transform="matrix(1, 0, 0, 1, 482.904, -46.5888)" ry="3" rx="3" cy="113" cx="20" fill="green"/>
   <ellipse id="TAG_svg_158" transform="matrix(1, 0, 0, 1, 482.904, -58.9218)" ry="3" rx="3" cy="113" cx="20" fill="green"/>
   <ellipse id="TAG_svg_159" transform="matrix(1, 0, 0, 1, 482.904, -71.9218)" ry="3" rx="3" cy="113" cx="20" fill="green"/>
   <ellipse id="TAG_svg_160" transform="matrix(1, 0, 0, 1, 482.904, -84.9218)" ry="3" rx="3" cy="113" cx="20" fill="green"/>
   <ellipse id="TAG_svg_161" transform="matrix(1, 0, 0, 1, 495.571, -46.811)" ry="3" rx="3" cy="113" cx="20" fill="green"/>
   <ellipse id="TAG_svg_162" transform="matrix(1, 0, 0, 1, 495.571, -59.144)" ry="3" rx="3" cy="113" cx="20" fill="green"/>
   <ellipse id="TAG_svg_163" transform="matrix(1, 0, 0, 1, 495.571, -72.144)" ry="3" rx="3" cy="113" cx="20" fill="green"/>
   <ellipse id="TAG_svg_164" transform="matrix(1, 0, 0, 1, 495.571, -85.144)" ry="3" rx="3" cy="113" cx="20" fill="green"/>
  </g>
  <g id="TAG_3_27_2">
   <rect id="TAG_svg_165" height="13" width="5" y="74" x="102" fill="green"/>
   <rect id="TAG_svg_166" transform="matrix(1 0 0 1 -58 -43.3333)" height="13" width="5" y="133" x="160" fill="green"/>
  </g>
  <g id="TAG_3_35_2">
   <rect id="TAG_svg_167" transform="matrix(1 0 0 1 -87 96)" height="13" width="5" y="129" x="185" fill="green"/>
   <rect id="TAG_svg_168" transform="matrix(1, 0, 0, 1, -68.3333, 96)" height="13" width="5" y="129" x="185" fill="green"/>
  </g>
  <g id="TAG_3_27_4">
   <rect id="TAG_svg_169" transform="matrix(1 0 0 1 -87 69.6667)" height="13" width="5" y="129" x="185" fill="green"/>
   <rect id="TAG_svg_170" transform="matrix(1, 0, 0, 1, -68.3333, 69.6667)" height="13" width="5" y="129" x="185" fill="green"/>
  </g>
  <g id="TAG_3_20_3">
   <rect id="TAG_svg_171" height="4" width="13" y="95" x="125" fill="green"/>
  </g>
  <g id="TAG_3_23_2">
   <rect id="TAG_svg_172" height="4" width="13" y="134.25" x="238.5" fill="green"/>
   <rect id="TAG_svg_173" height="4" width="13" y="145" x="210" fill="green"/>
   <rect id="TAG_svg_174" transform="translate(-23, 48.25)" height="4" width="13.22217" y="86" x="233" fill="green"/>
  </g>
  <g id="TAG_3_22_1">
   <rect id="TAG_svg_175" height="4" width="13" y="91.5714" x="381" fill="green"/>
  </g>
  <g id="TAG_3_20_2">
   <rect id="TAG_svg_176" transform="matrix(1 0 0 1 -31.2222 -90)" height="13" width="5" y="133" x="160" fill="green"/>
   <rect id="TAG_svg_177" transform="matrix(1, 0, 0, 1, -39.9722, -94.8333)" height="13" width="5" y="121" x="185" fill="green"/>
   <rect id="TAG_svg_178" transform="matrix(1 0 0 1 -14.9722 -76.375)" height="13" width="5" y="133" x="160" fill="green"/>
   <rect id="TAG_svg_179" transform="matrix(1 0 0 1 -14.9722 -45.9166) translate(0 -1) translate(0 1)" height="13" width="5" y="133" x="160" fill="green"/>
   <rect id="TAG_svg_180" transform="matrix(1, 0, 0, 1, 1.2778, -61.1458)" height="13" width="5" y="133" x="160" fill="green"/>
   <rect id="TAG_svg_181" transform="matrix(1, 0, 0, 1, 1.2778, -91.6041)" height="13" width="5" y="133" x="160" fill="green"/>
   <rect id="TAG_svg_182" transform="matrix(1, 0, 0, 1, 17.5278, -46.1666)" height="13" width="5" y="133" x="160" fill="green"/>
   <rect id="TAG_svg_183" transform="matrix(1, 0, 0, 1, 17.5278, -76.625)" height="13" width="5" y="133" x="160" fill="green"/>
   <rect id="TAG_svg_184" transform="matrix(1, 0, 0, 1, -7.4722, -95.0833)" height="13" width="5" y="121" x="185" fill="green"/>
   <rect id="TAG_svg_185" transform="matrix(1, 0, 0, 1, 33.7778, -61.8958)" height="13" width="5" y="133" x="160" fill="green"/>
   <rect id="TAG_svg_186" transform="matrix(1, 0, 0, 1, 33.7778, -92.3541)" height="13" width="5" y="133" x="160" fill="green"/>
  </g>
  <g id="TAG_3_20_1">
   <rect id="TAG_svg_187" transform="matrix(1, 0, 0, 1, -56.2222, -94.6667)" height="13" width="5" y="121" x="185" fill="green"/>
   <rect id="TAG_svg_188" transform="matrix(1 0 0 1 -14.9722 -91.6041)" height="13" width="5" y="133" x="160" fill="green"/>
   <rect id="TAG_svg_189" transform="matrix(1 0 0 1 -14.9722 -61.1458)" height="13" width="5" y="133" x="160" fill="green"/>
   <rect id="TAG_svg_190" transform="matrix(1, 0, 0, 1, 1.2778, -45.9166)" height="13" width="5" y="133" x="160" fill="green"/>
   <rect id="TAG_svg_191" transform="matrix(1, 0, 0, 1, 1.2778, -76.375)" height="13" width="5" y="133" x="160" fill="green"/>
   <rect id="TAG_svg_192" transform="matrix(1, 0, 0, 1, -23.7222, -94.8333)" height="13" width="5" y="121" x="185" fill="green"/>
   <rect id="TAG_svg_193" transform="matrix(1, 0, 0, 1, 17.5278, -61.3958)" height="13" width="5" y="133" x="160" fill="green"/>
   <rect id="TAG_svg_194" transform="matrix(1, 0, 0, 1, 17.5278, -91.8541)" height="13" width="5" y="133" x="160" fill="green"/>
   <rect id="TAG_svg_195" transform="matrix(1, 0, 0, 1, 33.7778, -46.6666)" height="13" width="5" y="133" x="160" fill="green"/>
   <rect id="TAG_svg_196" transform="matrix(1, 0, 0, 1, 33.7778, -77.125)" height="13" width="5" y="133" x="160" fill="green"/>
   <rect id="TAG_svg_197" transform="matrix(1, 0, 0, 1, 8.7778, -95.5833)" height="13" width="5" y="121" x="185" fill="green"/>
  </g>
  <g id="TAG_3_21_3">
   <rect id="TAG_svg_198" transform="matrix(1 0 0 1 50.0278 -67.375) translate(1.5 -9) translate(0 1) translate(0 1) translate(0 1) translate(0 1)" height="13" width="5" y="133" x="160" fill="green"/>
   <rect id="TAG_svg_199" transform="matrix(1 0 0 1 26.5278 -94.8333)" height="13" width="5" y="121" x="185" fill="green"/>
   <rect id="TAG_svg_200" transform="matrix(1, 0, 0, 1, 64.0278, -89.8542)" height="13" width="5" y="133" x="160" fill="green"/>
  </g>
  <g id="TAG_3_21_4">
   <rect id="TAG_svg_201" transform="matrix(1 0 0 1 51.5278 -89.6042)" height="13" width="5" y="133" x="160" fill="green"/>
   <rect id="TAG_svg_202" transform="matrix(1, 0, 0, 1, 64.0278, -72.625)" height="13" width="5" y="133" x="160" fill="green"/>
   <rect id="TAG_svg_203" transform="matrix(1, 0, 0, 1, 39.0278, -95.0833)" height="13" width="5" y="121" x="185" fill="green"/>
  </g>
  <g id="TAG_3_21_1">
   <rect id="TAG_svg_204" transform="matrix(1, 0, 0, 1, 75.7778, -89.6042)" height="13" width="5" y="133" x="160" fill="green"/>
   <rect id="TAG_svg_205" transform="matrix(1, 0, 0, 1, 88.7778, -72.375)" height="13" width="5" y="133" x="160" fill="green"/>
   <rect id="TAG_svg_206" transform="matrix(1, 0, 0, 1, 63.7778, -94.8333)" height="13" width="5" y="121" x="185" fill="green"/>
   <rect id="TAG_svg_207" transform="matrix(1, 0, 0, 1, 101.528, -72.375)" height="13" width="5" y="133" x="160" fill="green"/>
   <rect id="TAG_svg_208" transform="matrix(1, 0, 0, 1, 76.5278, -94.8333)" height="13" width="5" y="121" x="185" fill="green"/>
   <rect id="TAG_svg_209" transform="matrix(1, 0, 0, 1, 116.028, -89.6042)" height="13" width="5" y="133" x="160" fill="green"/>
  </g>
  <g id="TAG_3_20_4">
   <rect id="TAG_svg_210" transform="matrix(1, 0, 0, 1, 75.7778, -72.375)" height="13" width="5" y="133" x="160" fill="green"/>
   <rect id="TAG_svg_211" transform="matrix(1, 0, 0, 1, 50.7778, -94.8333)" height="13" width="5" y="121" x="185" fill="green"/>
   <rect id="TAG_svg_212" transform="matrix(1, 0, 0, 1, 88.7778, -89.6042)" height="13" width="5" y="133" x="160" fill="green"/>
   <rect id="TAG_svg_213" transform="matrix(1, 0, 0, 1, 101.528, -89.6042)" height="13" width="5" y="133" x="160" fill="green"/>
   <rect id="TAG_svg_214" transform="matrix(1, 0, 0, 1, 116.028, -72.375)" height="13" width="5" y="133" x="160" fill="green"/>
   <rect id="TAG_svg_215" transform="matrix(1, 0, 0, 1, 91.0278, -94.8333)" height="13" width="5" y="121" x="185" fill="green"/>
  </g>
  <g id="TAG_3_21_2">
   <rect id="TAG_svg_216" transform="matrix(1, 0, 0, 1, 134.778, -72.375)" height="13" width="5" y="133" x="160" fill="green"/>
   <rect id="TAG_svg_217" transform="matrix(1, 0, 0, 1, 134.778, -89.6042)" height="13" width="5" y="133" x="160" fill="green"/>
   <rect id="TAG_svg_218" transform="matrix(1, 0, 0, 1, 109.778, -94.8333)" height="13" width="5" y="121" x="185" fill="green"/>
   <rect id="TAG_svg_219" transform="matrix(1, 0, 0, 1, 147.028, -72.375)" height="13" width="5" y="133" x="160" fill="green"/>
   <rect id="TAG_svg_220" transform="matrix(1, 0, 0, 1, 147.028, -89.6042)" height="13" width="5" y="133" x="160" fill="green"/>
   <rect id="TAG_svg_221" transform="matrix(1, 0, 0, 1, 122.028, -94.8333)" height="13" width="5" y="121" x="185" fill="green"/>
  </g>
  <g id="TAG_3_23_1">
   <rect id="TAG_svg_222" transform="matrix(1 0 0 1 90.75 20.75)" height="13" width="5" y="66" x="210" fill="green"/>
   <rect id="TAG_svg_223" transform="matrix(1 0 0 1 71.75 20.75)" height="13" width="5" y="66" x="210" fill="green"/>
   <rect id="TAG_svg_224" transform="matrix(1 0 0 1 53.75 20.75)" height="13" width="5" y="66" x="210" fill="green"/>
   <rect id="TAG_svg_225" transform="matrix(1 0 0 1 35 20.75)" height="13" width="5" y="66" x="210" fill="green"/>
   <rect id="TAG_svg_226" transform="matrix(1 0 0 1 16.75 20.75)" height="13" width="5" y="66" x="210" fill="green"/>
   <rect id="TAG_svg_227" transform="matrix(1 0 0 1 -1.25 20.75)" height="13" width="5" y="66" x="210" fill="green"/>
  </g>
  <g id="TAG_3_34_2">
   <rect id="TAG_svg_228" transform="matrix(1 0 0 1 -53.2222 -13.3333)" height="13" width="5" y="121" x="185" fill="green"/>
   <rect id="TAG_svg_229" transform="matrix(1 0 0 1 -38.2222 53.1111)" height="13" width="5" y="89" x="192" fill="green"/>
   <rect id="TAG_svg_230" transform="matrix(1 0 0 1 -38.2222 18.4444)" height="13" width="5" y="89" x="192" fill="green"/>
   <rect id="TAG_svg_231" height="13" width="5" y="142" x="175.4444" fill="green"/>
   <rect id="TAG_svg_232" transform="matrix(1, 0, 0, 1, -4.39882e-05, 30.1111)" height="13" width="5" y="112" x="197" fill="green"/>
  </g>
  <g id="TAG_3_27_3">
   <rect id="TAG_svg_233" transform="matrix(1 0 0 1 -28.2222 -8.66663)" height="13" width="5" y="133" x="160" fill="green"/>
   <rect id="TAG_svg_234" transform="matrix(1 0 0 1 -38.2222 35.5556)" height="13" width="5" y="89" x="192" fill="green"/>
   <rect id="TAG_svg_235" height="13" width="5" y="124.4444" x="175.4444" fill="green"/>
   <rect id="TAG_svg_236" transform="matrix(1, 0, 0, 1, -4.39882e-05, 12.5555)" height="13" width="5" y="112" x="197" fill="green"/>
  </g>
  <g id="TAG_3_22_4">
   <rect id="TAG_svg_237" transform="matrix(1, 0, 0, 1, 35.9999, -1.88891)" height="13" width="5" y="112" x="197" fill="green"/>
   <rect id="TAG_svg_238" transform="matrix(1, 0, 0, 1, 17.7777, -1.66671)" height="13" width="5" y="112" x="197" fill="green"/>
  </g>
  <g transform="translate(0)" id="TAG_3_28_3">
   <rect id="TAG_svg_239" transform="matrix(1, 0, 0, 1, 74.5551, 29.8889)" height="13" width="5" y="112" x="197" fill="green"/>
   <rect id="TAG_svg_240" transform="matrix(1, 0, 0, 1, 74.5551, 12.3333)" height="13" width="5" y="112" x="197" fill="green"/>
  </g>
  <g id="TAG_3_43_2">
   <rect id="TAG_svg_241" height="4" width="13" y="113.75" x="323.75" fill="green"/>
   <rect id="TAG_svg_242" transform="matrix(1 0 0 1 123.444 9) translate(-0.666667 20.4444) translate(-8 2.22222) translate(7.77778 -2)" height="13" width="5" y="112" x="197" fill="green"/>
   <rect id="TAG_svg_243" transform="matrix(1, 0, 0, 1, 138.111, 12.3333)" height="13" width="5" y="112" x="197" fill="green"/>
   <rect id="TAG_svg_244" transform="matrix(1, 0, 0, 1, 107, 12.1111)" height="13" width="5" y="112" x="197" fill="green"/>
   <rect id="TAG_svg_245" transform="matrix(1, 0, 0, 1, 123.444, 9) translate(-32, 20.8889)" height="13" width="5" y="112" x="197" fill="green"/>
  </g>
  <g id="TAG_3_43_4">
   <rect id="TAG_svg_246" transform="matrix(1 0 0 1 123.444 -8.5556) translate(-0.666667 20.4444) translate(-8 2.22222) translate(7.77778 -2)" height="13" width="5" y="112" x="197" fill="green"/>
   <rect id="TAG_svg_247" transform="matrix(1, 0, 0, 1, 138.111, 29.8889)" height="13" width="5" y="112" x="197" fill="green"/>
   <rect id="TAG_svg_248" transform="matrix(1, 0, 0, 1, 107, 29.6667)" height="13" width="5" y="112" x="197" fill="green"/>
   <rect id="TAG_svg_249" transform="matrix(1, 0, 0, 1, 91.444, 12.3333)" height="13" width="5" y="112" x="197" fill="green"/>
  </g>
  <g id="TAG_3_35_4">
   <rect id="TAG_svg_250" transform="matrix(1 0 0 1 -20.8333 25.2778)" height="13" width="5" y="164" x="155" fill="green"/>
   <rect id="TAG_svg_251" transform="matrix(1 0 0 1 -20.8333 60.8333)" height="13" width="5" y="164" x="155" fill="green"/>
   <rect id="TAG_svg_252" transform="matrix(1, 0, 0, 1, -0.3333, 61)" height="13" width="5" y="164" x="155" fill="green"/>
   <rect id="TAG_svg_253" transform="matrix(1, 0, 0, 1, -0.3333, 25.4445)" height="13" width="5" y="164" x="155" fill="green"/>
  </g>
  <g id="TAG_3_28_1">
   <rect id="TAG_svg_254" transform="matrix(1 0 0 1 -20.8333 7.5)" height="13" width="5" y="164" x="155" fill="green"/>
   <rect id="TAG_svg_255" transform="matrix(1 0 0 1 -20.8333 43.0556)" height="13" width="5" y="164" x="155" fill="green"/>
   <rect id="TAG_svg_256" transform="matrix(1, 0, 0, 1, -0.3333, 43.2223)" height="13" width="5" y="164" x="155" fill="green"/>
   <rect id="TAG_svg_257" transform="matrix(1, 0, 0, 1, -0.3333, 7.6667)" height="13" width="5" y="164" x="155" fill="green"/>
  </g>
  <g id="TAG_3_36_2">
   <rect id="TAG_svg_258" transform="matrix(1 0 0 1 60.1667 26.8333) translate(-35 20.3333) translate(0 -1) translate(0 -1) translate(0 -1) translate(0 -1)" height="13" width="5" y="164" x="155" fill="green"/>
   <rect id="TAG_svg_259" transform="matrix(1 0 0 1 60.1667 9.0556) translate(-35 20.3333) translate(0 -1) translate(0 -1) translate(0 -1)" height="13" width="5" y="164" x="155" fill="green"/>
   <rect id="TAG_svg_260" transform="matrix(1 0 0 1 60.1667 -8.7222) translate(-35 20.3333) translate(0 -1)" height="13" width="5" y="164" x="155" fill="green"/>
   <rect id="TAG_svg_261" transform="matrix(1, 0, 0, 1, 25.1667, -6.1667)" height="13" width="5" y="164" x="155" fill="green"/>
  </g>
  <g id="TAG_3_28_2">
   <rect id="TAG_svg_262" transform="matrix(1, 0, 0, 1, 53.8334, 43.1666)" height="13" width="5" y="164" x="155" fill="green"/>
   <rect id="TAG_svg_263" transform="matrix(1, 0, 0, 1, 53.8334, 26.3889)" height="13" width="5" y="164" x="155" fill="green"/>
   <rect id="TAG_svg_264" transform="matrix(1, 0, 0, 1, 53.8334, 10.6111)" height="13" width="5" y="164" x="155" fill="green"/>
   <rect id="TAG_svg_265" transform="matrix(1 0 0 1 60.1667 -24.1667) translate(-6.33333 18) translate(0 0)" height="13" width="5" y="164" x="155" fill="green"/>
  </g>
  <g id="TAG_3_36_4">
   <rect id="TAG_svg_266" transform="matrix(1, 0, 0, 1, 82, 43.3333)" height="13" width="5" y="164" x="155" fill="green"/>
   <rect id="TAG_svg_267" transform="matrix(1, 0, 0, 1, 82, 26.5556)" height="13" width="5" y="164" x="155" fill="green"/>
   <rect id="TAG_svg_268" transform="matrix(1, 0, 0, 1, 82, 10.7778)" height="13" width="5" y="164" x="155" fill="green"/>
   <rect id="TAG_svg_269" transform="matrix(1, 0, 0, 1, 82, -6)" height="13" width="5" y="164" x="155" fill="green"/>
  </g>
  <g id="TAG_3_37_2">
   <rect id="TAG_svg_270" transform="matrix(1, 0, 0, 1, 110.667, 43.4999)" height="13" width="5" y="164" x="155" fill="green"/>
   <rect id="TAG_svg_271" transform="matrix(1, 0, 0, 1, 110.667, 26.7222)" height="13" width="5" y="164" x="155" fill="green"/>
   <rect id="TAG_svg_272" transform="matrix(1, 0, 0, 1, 110.667, 10.9444)" height="13" width="5" y="164" x="155" fill="green"/>
   <rect id="TAG_svg_273" transform="matrix(1, 0, 0, 1, 110.667, -5.8334)" height="13" width="5" y="164" x="155" fill="green"/>
  </g>
  <g id="TAG_3_28_4">
   <rect id="TAG_svg_274" transform="matrix(1, 0, 0, 1, 138.834, 43.3333)" height="13" width="5" y="164" x="155" fill="green"/>
   <rect id="TAG_svg_275" transform="matrix(1, 0, 0, 1, 138.834, 26.5556)" height="13" width="5" y="164" x="155" fill="green"/>
   <rect id="TAG_svg_276" transform="matrix(1, 0, 0, 1, 138.834, 10.7778)" height="13" width="5" y="164" x="155" fill="green"/>
   <rect id="TAG_svg_277" transform="matrix(1 0 0 1 200.167 -24.1667) translate(-61.3333 18.1667) translate(0 0)" height="13" width="5" y="164" x="155" fill="green"/>
  </g>
  <g id="TAG_3_38_4">
   <rect id="TAG_svg_278" transform="matrix(1, 0, 0, 1, 167.334, 43.3333)" height="13" width="5" y="164" x="155" fill="green"/>
   <rect id="TAG_svg_279" transform="matrix(1, 0, 0, 1, 167.334, 26.5556)" height="13" width="5" y="164" x="155" fill="green"/>
   <rect id="TAG_svg_280" transform="matrix(1, 0, 0, 1, 167.334, 10.7778)" height="13" width="5" y="164" x="155" fill="green"/>
   <rect id="TAG_svg_281" transform="matrix(1, 0, 0, 1, 167.334, -6)" height="13" width="5" y="164" x="155" fill="green"/>
  </g>
  <g id="TAG_3_39_2">
   <rect id="TAG_svg_282" transform="matrix(1, 0, 0, 1, 195.834, 43.1666)" height="13" width="5" y="164" x="155" fill="green"/>
   <rect id="TAG_svg_283" transform="matrix(1, 0, 0, 1, 195.834, 26.3889)" height="13" width="5" y="164" x="155" fill="green"/>
   <rect id="TAG_svg_284" transform="matrix(1, 0, 0, 1, 195.834, 10.6111)" height="13" width="5" y="164" x="155" fill="green"/>
   <rect id="TAG_svg_285" transform="matrix(1, 0, 0, 1, 195.834, -6.1667)" height="13" width="5" y="164" x="155" fill="green"/>
  </g>
  <g id="TAG_3_29_1">
   <rect id="TAG_svg_286" transform="matrix(1, 0, 0, 1, 224, 43.1666)" height="13" width="5" y="164" x="155" fill="green"/>
   <rect id="TAG_svg_287" transform="matrix(1, 0, 0, 1, 224, 26.3889)" height="13" width="5" y="164" x="155" fill="green"/>
   <rect id="TAG_svg_288" transform="matrix(1, 0, 0, 1, 224, 10.6111)" height="13" width="5" y="164" x="155" fill="green"/>
   <rect id="TAG_svg_289" transform="matrix(1 0 0 1 200.167 -24.1667) translate(23.8333 18) translate(0 0)" height="13" width="5" y="164" x="155" fill="green"/>
  </g>
  <g id="TAG_3_38_2">
   <rect id="TAG_svg_290" transform="matrix(1 0 0 1 9.59466 151.223)" height="4" width="13" y="79" x="289" fill="green"/>
   <rect id="TAG_svg_291" transform="matrix(1 0 0 1 -4.70599 151.223)" height="4" width="13" y="79" x="289" fill="green"/>
   <rect id="TAG_svg_292" transform="matrix(1 0 0 1 -19.0066 151.223)" height="4" width="13" y="79" x="289" fill="green"/>
   <rect id="TAG_svg_293" transform="matrix(1 0 0 1 -33.3073 151.223)" height="4" width="13" y="79" x="289" fill="green"/>
  </g>
  <g id="TAG_3_37_4">
   <rect id="TAG_svg_294" transform="matrix(1 0 0 1 -119.111 151.223)" height="4" width="13" y="79" x="289" fill="green"/>
   <rect id="TAG_svg_295" transform="matrix(1 0 0 1 -47.6079 151.223)" height="4" width="13" y="79" x="289" fill="green"/>
   <rect id="TAG_svg_296" transform="matrix(1 0 0 1 -61.9085 151.223)" height="4" width="13" y="79" x="289" fill="green"/>
   <rect id="TAG_svg_297" transform="matrix(1 0 0 1 -76.2092 151.223)" height="4" width="13" y="79" x="289" fill="green"/>
   <rect id="TAG_svg_298" transform="matrix(1 0 0 1 -90.5098 151.223)" height="4" width="13" y="79" x="289" fill="green"/>
   <rect id="TAG_svg_299" transform="matrix(1 0 0 1 -104.81 151.223)" height="4" width="13" y="79" x="289" fill="green"/>
  </g>
  <g transform="translate(0)" id="TAG_3_40_4">
   <rect id="TAG_svg_300" transform="matrix(1 0 0 1 124 151.223)" height="4" width="13" y="79" x="289" fill="green"/>
   <rect id="TAG_svg_301" transform="matrix(1, 0, 0, 1, 109.699, 151.223)" height="4" width="13" y="79" x="289" fill="green"/>
   <rect id="TAG_svg_302" transform="matrix(1, 0, 0, 1, 95.3985, 151.223)" height="4" width="13" y="79" x="289" fill="green"/>
   <rect id="TAG_svg_303" transform="matrix(1, 0, 0, 1, 81.0979, 151.223)" height="4" width="13" y="79" x="289" fill="green"/>
  </g>
  <g id="TAG_3_40_2">
   <rect id="TAG_svg_304" transform="matrix(1, 0, 0, 1, 23.8953, 151.223)" height="4" width="13" y="79" x="289" fill="green"/>
   <rect id="TAG_svg_305" transform="matrix(1, 0, 0, 1, 66.7972, 151.223)" height="4" width="13" y="79" x="289" fill="green"/>
   <rect id="TAG_svg_306" transform="matrix(1, 0, 0, 1, 52.4966, 151.223)" height="4" width="13" y="79" x="289" fill="green"/>
   <rect id="TAG_svg_307" transform="matrix(1, 0, 0, 1, 38.1959, 151.223)" height="4" width="13" y="79" x="289" fill="green"/>
  </g>
  <g id="TAG_3_22_3">
   <rect id="TAG_svg_308" transform="matrix(1, 0, 0, 1, 136.778, -95.2976)" height="13" width="5" y="121" x="185" fill="green"/>
   <rect id="TAG_svg_309" transform="matrix(1, 0, 0, 1, 161.778, -76.8393)" height="13" width="5" y="133" x="160" fill="green"/>
   <rect id="TAG_svg_310" transform="matrix(1, 0, 0, 1, 161.778, -46.3809)" height="13" width="5" y="133" x="160" fill="green"/>
   <rect id="TAG_svg_311" transform="matrix(1 0 0 1 164.778 -77.3541) translate(11.4286 -8.28571) translate(-1.28571 -5.85714) translate(0 -0.714286)" height="13" width="5" y="133" x="160" fill="green"/>
   <rect id="TAG_svg_312" transform="matrix(1 0 0 1 164.778 -46.8958) translate(11.4286 -8.28571) translate(-1.28571 -5.85714) translate(0 -0.714286)" height="13" width="5" y="133" x="160" fill="green"/>
   <rect id="TAG_svg_313" transform="matrix(1, 0, 0, 1, 163.635, -95.1547)" height="13" width="5" y="121" x="185" fill="green"/>
   <rect id="TAG_svg_314" transform="matrix(1, 0, 0, 1, 188.635, -76.6964)" height="13" width="5" y="133" x="160" fill="green"/>
   <rect id="TAG_svg_315" transform="matrix(1, 0, 0, 1, 188.635, -46.238)" height="13" width="5" y="133" x="160" fill="green"/>
   <rect id="TAG_svg_316" transform="matrix(1, 0, 0, 1, 176.921, -95.0119)" height="13" width="5" y="121" x="185" fill="green"/>
   <rect id="TAG_svg_317" transform="matrix(1, 0, 0, 1, 201.921, -91.7827)" height="13" width="5" y="133" x="160" fill="green"/>
   <rect id="TAG_svg_318" transform="matrix(1, 0, 0, 1, 201.921, -61.3244)" height="13" width="5" y="133" x="160" fill="green"/>
   <rect id="TAG_svg_319" transform="matrix(1, 0, 0, 1, 191.028, -94.833)" height="13" width="5" y="121" x="185" fill="green"/>
   <rect id="TAG_svg_320" transform="matrix(1, 0, 0, 1, 232.028, -91.6042)" height="13" width="5" y="133" x="160" fill="green"/>
  </g>
  <g id="TAG_3_22_2">
   <rect id="TAG_svg_321" transform="matrix(1 0 0 1 100.75 20.75)" height="13" width="5" y="66" x="210" fill="green"/>
   <rect id="TAG_svg_322" transform="matrix(1, 0, 0, 1, 161.778, -92.0684)" height="13" width="5" y="133" x="160" fill="green"/>
   <rect id="TAG_svg_323" transform="matrix(1, 0, 0, 1, 161.778, -61.6101)" height="13" width="5" y="133" x="160" fill="green"/>
   <rect id="TAG_svg_324" transform="matrix(1 0 0 1 139.778 -80.5833) translate(11.4286 -8.28571) translate(-1.28571 -5.85714) translate(0 -0.714286)" height="13" width="5" y="121" x="185" fill="green"/>
   <rect id="TAG_svg_325" transform="matrix(1 0 0 1 164.778 -62.125) translate(11.4286 -8.28571) translate(-1.28571 -5.85714) translate(0 -0.714286)" height="13" width="5" y="133" x="160" fill="green"/>
   <rect id="TAG_svg_326" transform="matrix(1 0 0 1 164.778 -31.6666) translate(11.4286 -8.28571) translate(-1.28571 -5.85714) translate(0 -0.714286)" height="13" width="5" y="133" x="160" fill="green"/>
   <rect id="TAG_svg_327" transform="matrix(1, 0, 0, 1, 188.635, -91.9255)" height="13" width="5" y="133" x="160" fill="green"/>
   <rect id="TAG_svg_328" transform="matrix(1, 0, 0, 1, 188.635, -61.4672)" height="13" width="5" y="133" x="160" fill="green"/>
   <rect id="TAG_svg_329" transform="matrix(1, 0, 0, 1, 201.921, -76.5536)" height="13" width="5" y="133" x="160" fill="green"/>
   <rect id="TAG_svg_330" transform="matrix(1, 0, 0, 1, 201.921, -46.0952)" height="13" width="5" y="133" x="160" fill="green"/>
   <rect id="TAG_svg_331" transform="matrix(1 0 0 1 206.028 -96.6042) translate(10 7) translate(0 -1) translate(0 -1)" height="13" width="5" y="133" x="160" fill="green"/>
   <rect id="TAG_svg_332" transform="matrix(1, 0, 0, 1, 207.028, -94.833)" height="13" width="5" y="121" x="185" fill="green"/>
  </g>
  <g id="TAG_3_33_1">
   <rect id="TAG_svg_333" transform="matrix(1 0 0 1 206.028 -97.6042) translate(39.75 40.75) translate(0 1) translate(0 1) translate(0 1) translate(0 1) translate(0 1) translate(0 1) translate(0 -1)" height="13" width="5" y="133" x="160" fill="green"/>
   <rect id="TAG_svg_334" transform="matrix(1, 0, 0, 1, 220.778, -60.083)" height="13" width="5" y="121" x="185" fill="green"/>
  </g>
  <g id="TAG_3_31_3">
   <rect id="TAG_svg_335" transform="matrix(1 0 0 1 206.028 -97.6042) translate(53 41) translate(-0.25 0) translate(0 1) translate(0 1) translate(0 1) translate(0 1) translate(0 1)" height="13" width="5" y="133" x="160" fill="green"/>
   <rect id="TAG_svg_336" transform="matrix(1, 0, 0, 1, 234.028, -59.833)" height="13" width="5" y="121" x="185" fill="green"/>
  </g>
  <g id="TAG_3_34_1">
   <rect id="TAG_svg_337" transform="matrix(1 0 0 1 205.921 -89.5536) translate(67 13.25) translate(0 1) translate(0 1) translate(0 1) translate(0 1) translate(0 1) translate(0 1) translate(0 1) translate(0 1) translate(0 1) translate(0 1) translate(0 1) translate(0 1) translate(0 1) translate(0 1) translate(0 1)" height="13" width="5" y="133" x="160" fill="green"/>
   <rect id="TAG_svg_338" transform="matrix(1, 0, 0, 1, 287.671, -61.3036)" height="13" width="5" y="133" x="160" fill="green"/>
  </g>
  <g id="TAG_3_31_4">
   <rect id="TAG_svg_339" transform="matrix(1, 0, 0, 1, 205.921, -104.783) translate(67, 13.25) translate(0, 1) translate(0, 1) translate(0, 1) translate(0, 1) translate(0, 1) translate(0, 1) translate(0, 1) translate(0, 1) translate(0, -1)" height="13" width="5" y="133" x="160" fill="green"/>
   <rect id="TAG_svg_340" transform="matrix(1, 0, 0, 1, 205.921, -105.533) translate(81.75, 21)" height="13" width="5" y="133" x="160" fill="green"/>
  </g>
  <g id="TAG_3_33_3">
   <rect id="TAG_svg_341" transform="matrix(1, 0, 0, 1, 247.921, -94.762)" height="13" width="5" y="121" x="185" fill="green"/>
   <rect id="TAG_svg_342" transform="matrix(1, 0, 0, 1, 262.671, -94.762)" height="13" width="5" y="121" x="185" fill="green"/>
  </g>
  <g id="TAG_3_36_1">
   <rect id="TAG_svg_343" transform="matrix(1, 0, 0, 1, 280.278, -45.854)" height="13" width="5" y="133" x="160" fill="green"/>
  </g>
  <g id="TAG_3_39_4">
   <rect id="TAG_svg_344" transform="matrix(1, 0, 0, 1, 253.167, 43.3333)" height="13" width="5" y="164" x="155" fill="green"/>
   <rect id="TAG_svg_345" transform="matrix(1, 0, 0, 1, 253.167, 26.5556)" height="13" width="5" y="164" x="155" fill="green"/>
   <rect id="TAG_svg_346" transform="matrix(1, 0, 0, 1, 253.167, 10.7778)" height="13" width="5" y="164" x="155" fill="green"/>
   <rect id="TAG_svg_347" transform="matrix(1 0 0 1 200.167 -24.1667) translate(53 18.1667) translate(0 0)" height="13" width="5" y="164" x="155" fill="green"/>
   <rect id="TAG_svg_348" height="13" width="5" y="158" x="435" fill="green"/>
  </g>
  <g id="TAG_3_44_2">
   <rect id="TAG_svg_349" height="4" width="13" y="146.75" x="382.75" fill="green"/>
   <rect id="TAG_svg_350" height="13" width="5" y="130.25" x="346.75" fill="green"/>
   <rect id="TAG_svg_351" height="13" width="5" y="130.25" x="368.25" fill="green"/>
   <rect id="TAG_svg_352" height="13" width="5" y="130.25" x="390.25" fill="green"/>
  </g>
  <g id="TAG_3_43_1">
   <rect id="TAG_svg_353" height="13" width="5" y="110.75" x="356.75" fill="green"/>
   <rect id="TAG_svg_354" height="13" width="5" y="110.75" x="381.25" fill="green"/>
  </g>
  <g id="TAG_3_43_3">
   <rect id="TAG_svg_355" height="13" width="5" y="110.75" x="344.75" fill="green"/>
   <rect id="TAG_svg_356" height="13" width="5" y="110.75" x="369" fill="green"/>
   <rect id="TAG_svg_357" height="13" width="5" y="110.75" x="394" fill="green"/>
  </g>
  <g id="TAG_3_44_1">
   <rect id="TAG_svg_358" transform="matrix(1 0 0 1 38 1)" height="13" width="5" y="110" x="366" fill="green"/>
   <rect id="TAG_svg_359" transform="matrix(1 0 0 1 38 32)" height="13" width="5" y="110" x="366" fill="green"/>
   <rect id="TAG_svg_360" transform="matrix(1, 0, 0, 1, 53.75, 15.75)" height="13" width="5" y="110" x="366" fill="green"/>
  </g>
  <g id="TAG_3_44_3">
   <rect id="TAG_svg_361" transform="matrix(1 0 0 1 38 15.75)" height="13" width="5" y="110" x="366" fill="green"/>
   <rect id="TAG_svg_362" transform="matrix(1, 0, 0, 1, 53.75, 32)" height="13" width="5" y="110" x="366" fill="green"/>
   <rect id="TAG_svg_363" transform="matrix(1, 0, 0, 1, 53.75, 1)" height="13" width="5" y="110" x="366" fill="green"/>
  </g>
  <g id="TAG_1_30_1">
   <ellipse id="TAG_svg_364" ry="3" rx="3" cy="178" cx="78" fill="green"/>
   <ellipse id="TAG_svg_365" ry="3" rx="3" cy="218" cx="78" fill="green"/>
  </g>
  <g id="TAG_1_30_3">
   <ellipse id="TAG_svg_366" ry="3" rx="3" cy="188" cx="556" fill="green"/>
   <ellipse id="TAG_svg_367" ry="3" rx="3" cy="228" cx="556" fill="green"/>
  </g>
    <g id="TAG_3_38_3">
   <rect id="TAG_svg_3582" transform="matrix(1, 0, 0, 1, -87, 69.6667)" height="13" width="5" y="46.3333" x="751.16666" fill="green"/>
   <rect id="TAG_svg_3591" transform="matrix(1, 0, 0, 1, -68.3333, 69.6667)" height="13" width="5" y="46.3333" x="751.16666" fill="green"/>
  </g>
  <g id="TAG_3_29_2">
   <rect id="TAG_svg_3613" transform="matrix(1, 0, 0, 1, -87, 69.6667)" height="13" width="5" y="66.3333" x="752.16669" fill="green"/>
   <rect id="TAG_svg_3624" transform="matrix(1, 0, 0, 1, -68.3333, 69.6667)" height="13" width="5" y="66.3333" x="752.16669" fill="green"/>
  </g>
  <text id="TAG_svg_368" font-size="15px" font-weight="bold" y="20" x="10">5</text>
 </g>
</svg>