<svg width="780" height="600" xmlns="http://www.w3.org/2000/svg" xmlns:svg="http://www.w3.org/2000/svg" xmlns:xlink="http://www.w3.org/1999/xlink">
 <g>
  <title>Layer 1</title>
  <image xlink:href="appPasteur/modules/others/lighting/point-monitor/svg/F07.png" id="TAG_svg_back" height="600" width="780" y="0" x="0"/>
 </g>
 <g>
  <title>Layer 1</title>
  <g id="TAG_3_26_4">
   <rect id="TAG_svg_1" height="4" width="12" y="39" x="106" fill="green"/>
   <rect id="TAG_svg_2" height="4" width="12" y="55.55556" x="105.7778" fill="green"/>
   <rect id="TAG_svg_3" height="4" width="12" y="90.2222" x="105.7778" fill="green"/>
   <rect id="TAG_svg_4" transform="matrix(1, 0, 0, 1, -47.4444, 26.4444)" height="4" width="12" y="64" x="80" fill="green"/>
   <rect id="TAG_svg_5" transform="matrix(1 0 0 1 0.7778 -8.44444) translate(-48.2222 0.222222) translate(0 0)" height="4" width="12" y="64" x="80" fill="green"/>
   <rect id="TAG_svg_6" transform="matrix(1 0 0 1 155.778 26.2222) translate(-1 0) translate(-10 0) translate(-10 0) translate(-10 0) translate(-10 0) translate(-10 0) translate(-10 0) translate(-10 0) translate(1 0) translate(1 0) translate(1 0) translate(1 0) translate(1 0) translate(1 0) translate(1 0) translate(1 0) translate(1 0) translate(1 0) translate(1 0) translate(1 0) translate(1 0)" height="4" width="12" y="64" x="80" fill="green"/>
   <rect id="TAG_svg_7" transform="matrix(1 0 0 1 155.778 -8.44444) translate(-1 0) translate(-10 0) translate(-10 0) translate(-10 0) translate(-10 0) translate(-10 0) translate(-10 0) translate(-10 0) translate(1 0) translate(1 0) translate(1 0) translate(1 0) translate(1 0) translate(1 0) translate(1 0) translate(1 0) translate(1 0) translate(1 0) translate(1 0) translate(1 0) translate(1 0)" height="4" width="12" y="64" x="80" fill="green"/>
   <rect id="TAG_svg_8" transform="translate(-10) translate(-10) translate(-10) translate(-10) translate(-10) translate(-10) translate(-10) translate(1) translate(1) translate(1) translate(1) translate(1) translate(1) translate(1) translate(1) translate(1) translate(1) translate(1) translate(1) translate(1)" height="4" width="12" y="39" x="235" fill="green"/>
  </g>
  <g id="TAG_3_24_4">
   <rect id="TAG_svg_9" transform="matrix(1 0 0 1 155.778 26.2222) translate(1 0) translate(10 0) translate(10 0) translate(1 0) translate(1 0) translate(1 0) translate(1 0) translate(1 0)" height="4" width="12" y="64" x="80" fill="green"/>
   <rect id="TAG_svg_10" transform="matrix(1 0 0 1 155.556 8.66667) translate(1 0) translate(10 0) translate(10 0) translate(1 0) translate(1 0) translate(1 0) translate(1 0) translate(1 0)" height="4" width="12" y="64" x="80" fill="green"/>
   <rect id="TAG_svg_11" transform="matrix(1 0 0 1 155.778 -8.44444) translate(1 0) translate(10 0) translate(10 0) translate(1 0) translate(1 0) translate(1 0) translate(1 0) translate(1 0)" height="4" width="12" y="64" x="80" fill="green"/>
   <rect id="TAG_svg_12" transform="translate(10) translate(10) translate(1) translate(1) translate(1) translate(1) translate(1)" height="4" width="12" y="39" x="237" fill="green"/>
  </g>
  <g id="TAG_3_24_2">
   <rect id="TAG_svg_13" transform="matrix(1 0 0 1 155.778 26.2222) translate(10 0) translate(10 0) translate(10 0) translate(10 0) translate(10 0) translate(10 0) translate(1 0) translate(1 0) translate(1 0) translate(-1 0)" height="4" width="12" y="64" x="80" fill="green"/>
   <rect id="TAG_svg_14" transform="matrix(1 0 0 1 155.556 8.66667) translate(10 0) translate(10 0) translate(10 0) translate(10 0) translate(10 0) translate(10 0) translate(1 0) translate(1 0) translate(1 0) translate(-1 0)" height="4" width="12" y="64" x="80" fill="green"/>
   <rect id="TAG_svg_15" transform="matrix(1 0 0 1 155.778 -8.44444) translate(10 0) translate(10 0) translate(10 0) translate(10 0) translate(10 0) translate(10 0) translate(1 0) translate(1 0) translate(1 0) translate(-1 0)" height="4" width="12" y="64" x="80" fill="green"/>
   <rect id="TAG_svg_16" transform="translate(10) translate(10) translate(10) translate(10) translate(10) translate(1) translate(1) translate(1) translate(-1)" height="4" width="12" y="39" x="246" fill="green"/>
  </g>
  <g id="TAG_3_25_2">
   <rect id="TAG_svg_17" transform="matrix(1 0 0 1 284.778 26.2222) translate(-1 0) translate(-1 0) translate(-1 0) translate(-1 0) translate(-1 0) translate(-10 0) translate(-10 0) translate(-10 0) translate(10 0) translate(-10 0) translate(1 0) translate(1 0) translate(1 0) translate(1 0) translate(1 0)" height="4" width="12" y="64" x="80" fill="green"/>
   <rect id="TAG_svg_18" transform="matrix(1 0 0 1 284.556 8.66667) translate(-1 0) translate(-1 0) translate(-1 0) translate(-1 0) translate(-1 0) translate(-10 0) translate(-10 0) translate(-10 0) translate(10 0) translate(-10 0) translate(1 0) translate(1 0) translate(1 0) translate(1 0) translate(1 0)" height="4" width="12" y="64" x="80" fill="green"/>
   <rect id="TAG_svg_19" transform="matrix(1 0 0 1 284.778 -8.44444) translate(-1 0) translate(-1 0) translate(-1 0) translate(-1 0) translate(-1 0) translate(-10 0) translate(-10 0) translate(-10 0) translate(10 0) translate(-10 0) translate(1 0) translate(1 0) translate(1 0) translate(1 0) translate(1 0)" height="4" width="12" y="64" x="80" fill="green"/>
   <rect id="TAG_svg_20" transform="translate(-1) translate(-1) translate(-1) translate(-1) translate(-1) translate(-10) translate(-10) translate(-10) translate(10) translate(-10) translate(1) translate(1) translate(1) translate(1) translate(1)" height="4" width="12" y="39" x="365" fill="green"/>
  </g>
  <g id="TAG_3_25_4">
   <rect id="TAG_svg_21" transform="matrix(1 0 0 1 25.5556 8.66667)" height="4" width="12" y="64" x="80" fill="green"/>
   <rect id="TAG_svg_22" transform="matrix(1 0 0 1 -47.6666 8.88889)" height="4" width="12" y="64" x="80" fill="green"/>
   <rect id="TAG_svg_23" transform="matrix(1 0 0 1 -11 8.66667)" height="4" width="12" y="64" x="80" fill="green"/>
   <rect id="TAG_svg_24" transform="matrix(1 0 0 1 97.556 8.66667)" height="4" width="12" y="64" x="80" fill="green"/>
   <rect id="TAG_svg_25" transform="matrix(1 0 0 1 61.556 8.66667)" height="4" width="12" y="64" x="80" fill="green"/>
   <rect id="TAG_svg_26" transform="matrix(1 0 0 1 135.556 8.66667)" height="4" width="12" y="64" x="80" fill="green"/>
  </g>
  <g id="TAG_3_26_2">
   <rect id="TAG_svg_27" transform="matrix(1 0 0 1 155.778 -8.44444) translate(-10 0) translate(-10 0)" height="4" width="12" y="64" x="80" fill="green"/>
   <rect id="TAG_svg_28" transform="matrix(1 0 0 1 -10.7778 26.2222)" height="4" width="12" y="64" x="80" fill="green"/>
   <rect id="TAG_svg_29" transform="matrix(1 0 0 1 -10.7778 -8.44444)" height="4" width="12" y="64" x="80" fill="green"/>
   <rect id="TAG_svg_30" transform="matrix(1 0 0 1 135.778 26.2222)" height="4" width="12" y="64" x="80" fill="green"/>
   <rect id="TAG_svg_31" transform="matrix(1 0 0 1 -20 0)" height="4" width="12" y="39" x="236" fill="green"/>
   <rect id="TAG_svg_32" transform="matrix(1 0 0 1 61.778 26.2222)" height="4" width="12" y="64" x="80" fill="green"/>
   <rect id="TAG_svg_33" transform="matrix(1 0 0 1 61.778 -8.44444)" height="4" width="12" y="64" x="80" fill="green"/>
   <rect id="TAG_svg_34" transform="matrix(1 0 0 1 -94 0)" height="4" width="12" y="39" x="236" fill="green"/>
  </g>
  <g id="TAG_3_15_1">
   <ellipse id="TAG_svg_35" transform="matrix(1 0 0 1 11 35) translate(0 -1) translate(0 -1) translate(0 -1) translate(0 -1) translate(0 -1) translate(0 -1) translate(0 -1) translate(0 -1) translate(0 -1) translate(0 -1) translate(0 -1) translate(0 -1) translate(0 -1) translate(0 -1) translate(0 -1) translate(0 -1) translate(0 -1) translate(0 -1) translate(0 -1) translate(0 -1) translate(0 -1) translate(0 -1) translate(-1 0) translate(-1 0) translate(-1 0) translate(-1 0) translate(-1 0) translate(-1 0) translate(-1 0) translate(-1 0) translate(-1 0) translate(-1 0) translate(-1 0)" ry="3.5" rx="3.5" cy="173.5" cx="482.5" fill="green"/>
   <ellipse id="TAG_svg_36" transform="matrix(1 0 0 1 41 35) translate(0 -1) translate(0 -1) translate(0 -1) translate(0 -1) translate(0 -1) translate(0 -1) translate(0 -1) translate(0 -1) translate(0 -1) translate(0 -1) translate(0 -1) translate(0 -1) translate(0 -1) translate(0 -1) translate(0 -1) translate(0 -1) translate(0 -1) translate(0 -1) translate(0 -1) translate(0 -1) translate(0 -1) translate(0 -1) translate(-1 0) translate(-1 0) translate(-1 0) translate(-1 0) translate(-1 0) translate(-1 0) translate(-1 0) translate(-1 0) translate(-1 0) translate(-1 0) translate(-1 0)" ry="3.5" rx="3.5" cy="173.5" cx="482.5" fill="green"/>
   <ellipse id="TAG_svg_37" transform="matrix(1 0 0 1 11 35) translate(0 1) translate(0 1) translate(0 1) translate(0 1) translate(0 1) translate(0 1) translate(0 1) translate(0 1) translate(0 1) translate(0 1) translate(0 1) translate(0 1) translate(0 1) translate(-1 0) translate(-1 0) translate(-1 0) translate(-1 0) translate(-1 0) translate(-1 0) translate(-1 0) translate(-1 0) translate(-1 0) translate(-1 0) translate(-1 0) translate(-1 0) translate(1 0) translate(0 1) translate(0 -1)" ry="3.5" rx="3.5" cy="173.5" cx="482.5" fill="green"/>
   <ellipse id="TAG_svg_38" transform="matrix(1 0 0 1 41 35) translate(0 1) translate(0 1) translate(0 1) translate(0 1) translate(0 1) translate(0 1) translate(0 1) translate(0 1) translate(0 1) translate(0 1) translate(0 1) translate(0 1) translate(0 1) translate(-1 0) translate(-1 0) translate(-1 0) translate(-1 0) translate(-1 0) translate(-1 0) translate(-1 0) translate(-1 0) translate(-1 0) translate(-1 0) translate(-1 0) translate(-1 0) translate(1 0) translate(0 1) translate(0 -1)" ry="3.5" rx="3.5" cy="173.5" cx="482.5" fill="green"/>
  </g>
  <g id="TAG_3_15_3">
   <ellipse id="TAG_svg_39" transform="matrix(1 0 0 1 26 35) translate(0 -1) translate(0 -1) translate(0 -1) translate(0 -1) translate(0 -1) translate(0 -1) translate(0 -1) translate(0 -1) translate(0 -1) translate(0 -1) translate(0 -1) translate(0 -1) translate(0 -1) translate(0 -1) translate(0 -1) translate(0 -1) translate(0 -1) translate(0 -1) translate(0 -1) translate(0 -1) translate(0 -1) translate(0 -1) translate(-1 0) translate(-1 0) translate(-1 0) translate(-1 0) translate(-1 0) translate(-1 0) translate(-1 0) translate(-1 0) translate(-1 0) translate(-1 0) translate(-1 0)" ry="3.5" rx="3.5" cy="173.5" cx="482.5" fill="green"/>
   <ellipse id="TAG_svg_40" transform="matrix(1 0 0 1 58 35) translate(0 -1) translate(0 -1) translate(0 -1) translate(0 -1) translate(0 -1) translate(0 -1) translate(0 -1) translate(0 -1) translate(0 -1) translate(0 -1) translate(0 -1) translate(0 -1) translate(0 -1) translate(0 -1) translate(0 -1) translate(0 -1) translate(0 -1) translate(0 -1) translate(0 -1) translate(0 -1) translate(0 -1) translate(0 -1) translate(-1 0) translate(-1 0) translate(-1 0) translate(-1 0) translate(-1 0) translate(-1 0) translate(-1 0) translate(-1 0) translate(-1 0) translate(-1 0) translate(-1 0)" ry="3.5" rx="3.5" cy="173.5" cx="482.5" fill="green"/>
   <ellipse id="TAG_svg_41" transform="matrix(1 0 0 1 26 35) translate(0 1) translate(0 1) translate(0 1) translate(0 1) translate(0 1) translate(0 1) translate(0 1) translate(0 1) translate(0 1) translate(0 1) translate(0 1) translate(0 1) translate(0 1) translate(-1 0) translate(-1 0) translate(-1 0) translate(-1 0) translate(-1 0) translate(-1 0) translate(-1 0) translate(-1 0) translate(-1 0) translate(-1 0) translate(-1 0) translate(-1 0) translate(1 0) translate(0 1) translate(0 -1)" ry="3.5" rx="3.5" cy="173.5" cx="482.5" fill="green"/>
   <ellipse id="TAG_svg_42" transform="matrix(1 0 0 1 58 35) translate(0 1) translate(0 1) translate(0 1) translate(0 1) translate(0 1) translate(0 1) translate(0 1) translate(0 1) translate(0 1) translate(0 1) translate(0 1) translate(0 1) translate(0 1) translate(-1 0) translate(-1 0) translate(-1 0) translate(-1 0) translate(-1 0) translate(-1 0) translate(-1 0) translate(-1 0) translate(-1 0) translate(-1 0) translate(-1 0) translate(-1 0) translate(1 0) translate(0 1) translate(0 -1)" ry="3.5" rx="3.5" cy="173.5" cx="482.5" fill="green"/>
  </g>
  <g id="TAG_3_12_3">
   <ellipse id="TAG_svg_43" transform="translate(-1) translate(1)" ry="3.5" rx="3.5" cy="172.5" cx="482.5" fill="green"/>
   <ellipse id="TAG_svg_44" transform="matrix(1 0 0 1 35 35) translate(0 -1) translate(0 -1) translate(0 -1) translate(0 -1) translate(0 -1) translate(0 -1) translate(0 -1) translate(0 -1) translate(0 -1) translate(0 -1) translate(0 -1) translate(0 -1) translate(0 -1) translate(0 -1) translate(0 -1) translate(0 -1) translate(0 -1) translate(0 -1) translate(0 -1) translate(0 -1) translate(0 -1) translate(0 -1) translate(0 -1) translate(0 -1) translate(0 -1) translate(0 -1) translate(0 -1) translate(0 -1) translate(0 -1) translate(0 -1) translate(0 -1) translate(0 -1) translate(0 -1) translate(0 -1) translate(0 -1) translate(0 -1) translate(-10 0) translate(-10 0) translate(10 0) translate(1 0) translate(1 0) translate(1 0) translate(1 0) translate(1 0)" ry="3.5" rx="3.5" cy="173.5" cx="482.5" fill="green"/>
   <ellipse id="TAG_svg_45" transform="matrix(1 0 0 1 11 35) translate(0 -1) translate(0 -1) translate(0 -1) translate(-1 0) translate(-1 0) translate(-1 0) translate(-1 0) translate(-1 0) translate(-1 0) translate(-1 0) translate(-1 0) translate(-1 0) translate(-1 0) translate(-1 0) translate(-1 0) translate(1 0)" ry="3.5" rx="3.5" cy="173.5" cx="482.5" fill="green"/>
   <ellipse id="TAG_svg_46" transform="matrix(1 0 0 1 41 35) translate(0 -1) translate(0 -1) translate(0 -1) translate(-1 0) translate(-1 0) translate(-1 0) translate(-1 0) translate(-1 0) translate(-1 0) translate(-1 0) translate(-1 0) translate(-1 0) translate(-1 0) translate(-1 0) translate(-1 0) translate(1 0)" ry="3.5" rx="3.5" cy="173.5" cx="482.5" fill="green"/>
   <ellipse id="TAG_svg_47" transform="matrix(1 0 0 1 11 35) translate(0 10) translate(0 10) translate(0 1) translate(0 1) translate(0 1) translate(0 1) translate(0 1) translate(0 1) translate(0 1) translate(0 1) translate(0 -1) translate(-1 0) translate(-1 0) translate(-1 0) translate(-1 0) translate(-1 0) translate(-1 0) translate(-1 0) translate(-1 0) translate(-1 0) translate(-1 0) translate(-1 0) translate(-1 0) translate(1 0)" ry="3.5" rx="3.5" cy="173.5" cx="482.5" fill="green"/>
   <ellipse id="TAG_svg_48" transform="matrix(1 0 0 1 41 35) translate(0 10) translate(0 10) translate(0 1) translate(0 1) translate(0 1) translate(0 1) translate(0 1) translate(0 1) translate(0 1) translate(0 1) translate(0 -1) translate(-1 0) translate(-1 0) translate(-1 0) translate(-1 0) translate(-1 0) translate(-1 0) translate(-1 0) translate(-1 0) translate(-1 0) translate(-1 0) translate(-1 0) translate(-1 0) translate(1 0)" ry="3.5" rx="3.5" cy="173.5" cx="482.5" fill="green"/>
  </g>
  <g id="TAG_3_13_1">
   <ellipse id="TAG_svg_49" transform="matrix(1 0 0 1 35 35) translate(0 -10) translate(0 -10) translate(0 -10) translate(0 -10) translate(0 10) translate(0 -1) translate(0 -1) translate(0 -1) translate(0 -1) translate(0 -1) translate(0 -1) translate(-1 0) translate(-1 0) translate(-1 0) translate(-1 0) translate(-1 0) translate(-1 0) translate(-1 0) translate(-1 0) translate(-1 0) translate(-1 0) translate(-1 0) translate(-1 0) translate(-1 0) translate(-1 0) translate(-1 0) translate(-1 0) translate(-1 0) translate(-1 0) translate(-1 0) translate(-1 0)" ry="3.5" rx="3.5" cy="173.5" cx="482.5" fill="green"/>
   <ellipse id="TAG_svg_50" transform="matrix(1 0 0 1 35 35) translate(0 -10) translate(0 -10) translate(0 -10) translate(0 -10) translate(0 10) translate(0 -1) translate(0 -1) translate(0 -1) translate(0 -1) translate(0 -1) translate(0 -1) translate(-1 0) translate(-1 0) translate(-1 0) translate(-1 0) translate(-1 0) translate(1 0) translate(1 0) translate(1 0) translate(1 0) translate(1 0) translate(1 0) translate(1 0) translate(1 0) translate(1 0) translate(1 0) translate(1 0) translate(1 0) translate(1 0) translate(1 0) translate(1 0) translate(1 0) translate(1 0)" ry="3.5" rx="3.5" cy="173.5" cx="482.5" fill="green"/>
   <ellipse id="TAG_svg_51" transform="matrix(1 0 0 1 26 35) translate(0 -1) translate(0 -1) translate(0 -1) translate(-1 0) translate(-1 0) translate(-1 0) translate(-1 0) translate(-1 0) translate(-1 0) translate(-1 0) translate(-1 0) translate(-1 0) translate(-1 0) translate(-1 0) translate(-1 0) translate(1 0)" ry="3.5" rx="3.5" cy="173.5" cx="482.5" fill="green"/>
   <ellipse id="TAG_svg_52" transform="matrix(1 0 0 1 58 35) translate(0 -1) translate(0 -1) translate(0 -1) translate(-1 0) translate(-1 0) translate(-1 0) translate(-1 0) translate(-1 0) translate(-1 0) translate(-1 0) translate(-1 0) translate(-1 0) translate(-1 0) translate(-1 0) translate(-1 0) translate(1 0)" ry="3.5" rx="3.5" cy="173.5" cx="482.5" fill="green"/>
   <ellipse id="TAG_svg_53" transform="matrix(1 0 0 1 26 35) translate(0 10) translate(0 10) translate(0 1) translate(0 1) translate(0 1) translate(0 1) translate(0 1) translate(0 1) translate(0 1) translate(0 1) translate(0 -1) translate(-1 0) translate(-1 0) translate(-1 0) translate(-1 0) translate(-1 0) translate(-1 0) translate(-1 0) translate(-1 0) translate(-1 0) translate(-1 0) translate(-1 0) translate(-1 0) translate(1 0)" ry="3.5" rx="3.5" cy="173.5" cx="482.5" fill="green"/>
   <ellipse id="TAG_svg_54" transform="matrix(1 0 0 1 58 35) translate(0 10) translate(0 10) translate(0 1) translate(0 1) translate(0 1) translate(0 1) translate(0 1) translate(0 1) translate(0 1) translate(0 1) translate(0 -1) translate(-1 0) translate(-1 0) translate(-1 0) translate(-1 0) translate(-1 0) translate(-1 0) translate(-1 0) translate(-1 0) translate(-1 0) translate(-1 0) translate(-1 0) translate(-1 0) translate(1 0)" ry="3.5" rx="3.5" cy="173.5" cx="482.5" fill="green"/>
  </g>
  <g id="TAG_1_30_3">
   <ellipse id="TAG_svg_55" ry="3" rx="3" cy="194" cx="553" fill="green"/>
   <ellipse id="TAG_svg_56" ry="3" rx="3" cy="237" cx="553" fill="green"/>
  </g>
 </g>
</svg>