<svg width="780" height="620" xmlns="http://www.w3.org/2000/svg" xmlns:svg="http://www.w3.org/2000/svg" xmlns:xlink="http://www.w3.org/1999/xlink">
 <g>
  <title>Layer 1</title>
  <image xlink:href="appPasteur/modules/emergency/cctv/point-monitor/svg/F01.png" id="TAG_svg_back" height="620" width="780" y="0" x="0"/>
 </g>

 <g>
  <title>Layer 1</title>
  <a target="_blank" xlink:href="http://192.168.245.115" id="TAG_2_11">
   <rect id="TAG_svg_1" height="15" width="15" y="186" x="42" fill="green"/>
  </a>
  <a target="_blank" xlink:href="http://192.168.245.115" id="TAG_2_12">
   <rect id="TAG_svg_2" height="15" width="15" y="23" x="378" fill="green"/>
  </a>
  <a target="_blank" xlink:href="http://192.168.245.115" id="TAG_2_9">
   <rect id="TAG_svg_3" height="15" width="15" y="293" x="301" fill="green"/>
  </a>
  <a target="_blank" xlink:href="http://192.168.245.115" id="TAG_2_10">
   <rect id="TAG_svg_4" height="15" width="15" y="292" x="623" fill="green"/>
  </a>
  <a target="_blank" xlink:href="http://192.168.245.115" id="TAG_2_5">
   <rect id="TAG_svg_5" height="15" width="15" y="99" x="524" fill="green"/>
  </a>
  <a target="_blank" xlink:href="http://192.168.245.112" id="TAG_1_5">
   <rect id="TAG_svg_6" height="15" width="15" y="145" x="528" fill="green"/>
  </a>
  <a target="_blank" xlink:href="http://192.168.245.112" id="TAG_1_4">
   <rect id="TAG_svg_7" height="15" width="15" y="197" x="531" fill="green"/>
  </a>
  <a target="_blank" xlink:href="http://192.168.245.112" id="TAG_1_2">
   <rect id="TAG_svg_8" height="15" width="15" y="298" x="554" fill="green"/>
  </a>
  <a target="_blank" xlink:href="http://192.168.245.112" id="TAG_1_1">
   <rect id="TAG_svg_9" transform="matrix(1 0 0 1 -176 -1) translate(174 -43) translate(1 0) translate(1 0) translate(1 0) translate(1 0)" height="15" width="15" y="305" x="535" fill="green"/>
  </a>
  <a target="_blank" xlink:href="http://192.168.245.112" id="TAG_1_3">
   <rect id="TAG_svg_10" transform="matrix(1 0 0 1 -176 -1) translate(153 71) translate(8 -3)" height="15" width="15" y="305" x="552" fill="green"/>
  </a>
  <a target="_blank" xlink:href="http://192.168.245.115" id="TAG_2_7">
   <rect id="TAG_svg_11" height="15" width="15" y="192.81927" x="311.78313" fill="green"/>
  </a>
  <a target="_blank" xlink:href="http://192.168.245.115" id="TAG_2_6">
   <rect id="TAG_svg_12" transform="matrix(1, 0, 0, 1, 50.265, -1.3615)" height="15" width="15" y="188" x="316" fill="green"/>
  </a>
  <a target="_blank" xlink:href="http://192.168.245.115" id="TAG_2_16">
   <rect id="TAG_svg_13" height="15" width="15" y="70" x="200" fill="green"/>
  </a>
  <a target="_blank" xlink:href="http://192.168.245.115" id="TAG_2_15">
   <rect id="TAG_svg_14" height="15" width="15" y="125" x="200" fill="green"/>
  </a>
  <a target="_blank" xlink:href="http://192.168.245.115" id="TAG_2_14">
   <rect id="TAG_svg_15" height="15" width="15" y="180" x="200" fill="green"/>
  </a>
  <a target="_blank" xlink:href="http://192.168.245.115" id="TAG_2_8">
   <rect id="TAG_svg_16" height="15" width="15" y="70" x="330" fill="green"/>
  </a>
  <a target="_blank" xlink:href="http://192.168.245.115" id="TAG_2_13">
   <rect id="TAG_svg_17" height="15" width="15" y="60" x="550" fill="green"/>
  </a>
  <a target="_blank" xlink:href="http://192.168.245.84" id="TAG_3_1">
   <rect id="TAG_svg_18" height="15" width="15" y="95" x="410" fill="green"/>
  </a>
  <a target="_blank" xlink:href="http://192.168.245.84" id="TAG_3_2">
   <rect id="TAG_svg_19" height="15" width="15" y="95" x="450" fill="green"/>
  </a>
  <a target="_blank" xlink:href="http://192.168.245.84" id="TAG_3_3">
   <rect id="TAG_svg_20" height="15" width="15" y="117" x="410" fill="green"/>
  </a>
  <a target="_blank" xlink:href="http://192.168.245.84" id="TAG_3_4">
   <rect id="TAG_svg_21" height="15" width="15" y="117" x="450" fill="green"/>
  </a>
  <a target="_blank" xlink:href="http://192.168.245.84" id="TAG_3_5">
   <rect id="TAG_svg_22" height="15" width="15" y="150" x="410" fill="green"/>
  </a>
  <a target="_blank" xlink:href="http://192.168.245.84" id="TAG_3_6">
   <rect id="TAG_svg_23" height="15" width="15" y="150" x="450" fill="green"/>
  </a>
  <a target="_blank" xlink:href="http://192.168.245.89/web_viewer2.html" id="TAG_5_1">
   <rect height="15" width="15" y="381.5" x="388" fill="green" id="dvr_5_1"/>
  </a>
  <a target="_blank" xlink:href="http://192.168.245.89/web_viewer2.html" id="TAG_5_2">
   <rect height="15" width="15" y="412.5" x="682" fill="green" id="dvr_5_2"/>
  </a>
  <a target="_blank" xlink:href="http://192.168.245.89/web_viewer2.html" id="TAG_5_3">
   <rect height="15" width="15" y="68.5" x="758" fill="green" id="dvr_5_3"/>
  </a>
  <a target="_blank" xlink:href="http://192.168.245.89/web_viewer2.html" id="TAG_5_4">
   <rect height="15" width="15" y="97.5" x="360" fill="green" id="dvr_5_4"/>
  </a>
  <a target="_blank" xlink:href="http://192.168.245.89/web_viewer2.html" id="TAG_5_5">
   <rect height="15" width="15" y="185.5" x="426" fill="green" id="dvr_5_5"/>
  </a>
  <a target="_blank" xlink:href="http://192.168.245.89/web_viewer2.html" id="TAG_5_6">
   <rect height="15" width="15" y="123.5" x="555" fill="green" id="dvr_5_6"/>
  </a>
  <a target="_blank" xlink:href="http://192.168.245.89/web_viewer2.html" id="TAG_5_7">
   <rect height="15" width="15" y="89.5" x="553" fill="green" id="dvr_5_7"/>
  </a>
 </g>
</svg>